%
M48
M72
T01C0.03150
T02C0.03200
T03C0.04000
T04C0.04400
T05C0.05118
T06C0.11024
T07C0.13000
%
T01
X314753Y43257
X314753Y59005
T02
X167824Y43257
X187824Y43257
X189320Y70816
X169320Y70816
X179438Y102839
X179438Y110839
X49280Y109060
X49280Y117060
X334359Y61131
X334359Y41131
T03
X204005Y39989
X204005Y49989
X204005Y59989
X204005Y69989
X204005Y79989
X204005Y89989
X204005Y99989
X204005Y109989
X294005Y109989
X294005Y99989
X294005Y89989
X294005Y79989
X294005Y69989
X294005Y59989
X294005Y49989
X294005Y39989
X327745Y83690
X327745Y93690
X327745Y103690
T04
X90540Y85107
X80540Y85107
X70540Y85107
X125658Y93729
X135658Y93729
X145658Y93729
T05
X18690Y39713
X18690Y59398
X17509Y90894
X17509Y110580
T06
X80540Y25422
X135658Y25422
X328572Y17548
X328572Y131721
T07
X80540Y26107
X135658Y24729
M30
