G75*
%MOIN*%
%OFA0B0*%
%FSLAX25Y25*%
%IPPOS*%
%LPD*%
%AMOC8*
5,1,8,0,0,1.08239X$1,22.5*
%
%ADD10C,0.01600*%
%ADD11C,0.00000*%
D10*
X0001800Y0001800D02*
X0001800Y0147469D01*
X0344320Y0147469D01*
X0344320Y0001800D01*
X0001800Y0001800D01*
D11*
X0075028Y0025422D02*
X0075030Y0025570D01*
X0075036Y0025718D01*
X0075046Y0025866D01*
X0075060Y0026013D01*
X0075078Y0026160D01*
X0075099Y0026306D01*
X0075125Y0026452D01*
X0075155Y0026597D01*
X0075188Y0026741D01*
X0075226Y0026884D01*
X0075267Y0027026D01*
X0075312Y0027167D01*
X0075360Y0027307D01*
X0075413Y0027446D01*
X0075469Y0027583D01*
X0075529Y0027718D01*
X0075592Y0027852D01*
X0075659Y0027984D01*
X0075730Y0028114D01*
X0075804Y0028242D01*
X0075881Y0028368D01*
X0075962Y0028492D01*
X0076046Y0028614D01*
X0076133Y0028733D01*
X0076224Y0028850D01*
X0076318Y0028965D01*
X0076414Y0029077D01*
X0076514Y0029187D01*
X0076616Y0029293D01*
X0076722Y0029397D01*
X0076830Y0029498D01*
X0076941Y0029596D01*
X0077054Y0029692D01*
X0077170Y0029784D01*
X0077288Y0029873D01*
X0077409Y0029958D01*
X0077532Y0030041D01*
X0077657Y0030120D01*
X0077784Y0030196D01*
X0077913Y0030268D01*
X0078044Y0030337D01*
X0078177Y0030402D01*
X0078312Y0030463D01*
X0078448Y0030521D01*
X0078585Y0030576D01*
X0078724Y0030626D01*
X0078865Y0030673D01*
X0079006Y0030716D01*
X0079149Y0030756D01*
X0079293Y0030791D01*
X0079437Y0030823D01*
X0079583Y0030850D01*
X0079729Y0030874D01*
X0079876Y0030894D01*
X0080023Y0030910D01*
X0080170Y0030922D01*
X0080318Y0030930D01*
X0080466Y0030934D01*
X0080614Y0030934D01*
X0080762Y0030930D01*
X0080910Y0030922D01*
X0081057Y0030910D01*
X0081204Y0030894D01*
X0081351Y0030874D01*
X0081497Y0030850D01*
X0081643Y0030823D01*
X0081787Y0030791D01*
X0081931Y0030756D01*
X0082074Y0030716D01*
X0082215Y0030673D01*
X0082356Y0030626D01*
X0082495Y0030576D01*
X0082632Y0030521D01*
X0082768Y0030463D01*
X0082903Y0030402D01*
X0083036Y0030337D01*
X0083167Y0030268D01*
X0083296Y0030196D01*
X0083423Y0030120D01*
X0083548Y0030041D01*
X0083671Y0029958D01*
X0083792Y0029873D01*
X0083910Y0029784D01*
X0084026Y0029692D01*
X0084139Y0029596D01*
X0084250Y0029498D01*
X0084358Y0029397D01*
X0084464Y0029293D01*
X0084566Y0029187D01*
X0084666Y0029077D01*
X0084762Y0028965D01*
X0084856Y0028850D01*
X0084947Y0028733D01*
X0085034Y0028614D01*
X0085118Y0028492D01*
X0085199Y0028368D01*
X0085276Y0028242D01*
X0085350Y0028114D01*
X0085421Y0027984D01*
X0085488Y0027852D01*
X0085551Y0027718D01*
X0085611Y0027583D01*
X0085667Y0027446D01*
X0085720Y0027307D01*
X0085768Y0027167D01*
X0085813Y0027026D01*
X0085854Y0026884D01*
X0085892Y0026741D01*
X0085925Y0026597D01*
X0085955Y0026452D01*
X0085981Y0026306D01*
X0086002Y0026160D01*
X0086020Y0026013D01*
X0086034Y0025866D01*
X0086044Y0025718D01*
X0086050Y0025570D01*
X0086052Y0025422D01*
X0086050Y0025274D01*
X0086044Y0025126D01*
X0086034Y0024978D01*
X0086020Y0024831D01*
X0086002Y0024684D01*
X0085981Y0024538D01*
X0085955Y0024392D01*
X0085925Y0024247D01*
X0085892Y0024103D01*
X0085854Y0023960D01*
X0085813Y0023818D01*
X0085768Y0023677D01*
X0085720Y0023537D01*
X0085667Y0023398D01*
X0085611Y0023261D01*
X0085551Y0023126D01*
X0085488Y0022992D01*
X0085421Y0022860D01*
X0085350Y0022730D01*
X0085276Y0022602D01*
X0085199Y0022476D01*
X0085118Y0022352D01*
X0085034Y0022230D01*
X0084947Y0022111D01*
X0084856Y0021994D01*
X0084762Y0021879D01*
X0084666Y0021767D01*
X0084566Y0021657D01*
X0084464Y0021551D01*
X0084358Y0021447D01*
X0084250Y0021346D01*
X0084139Y0021248D01*
X0084026Y0021152D01*
X0083910Y0021060D01*
X0083792Y0020971D01*
X0083671Y0020886D01*
X0083548Y0020803D01*
X0083423Y0020724D01*
X0083296Y0020648D01*
X0083167Y0020576D01*
X0083036Y0020507D01*
X0082903Y0020442D01*
X0082768Y0020381D01*
X0082632Y0020323D01*
X0082495Y0020268D01*
X0082356Y0020218D01*
X0082215Y0020171D01*
X0082074Y0020128D01*
X0081931Y0020088D01*
X0081787Y0020053D01*
X0081643Y0020021D01*
X0081497Y0019994D01*
X0081351Y0019970D01*
X0081204Y0019950D01*
X0081057Y0019934D01*
X0080910Y0019922D01*
X0080762Y0019914D01*
X0080614Y0019910D01*
X0080466Y0019910D01*
X0080318Y0019914D01*
X0080170Y0019922D01*
X0080023Y0019934D01*
X0079876Y0019950D01*
X0079729Y0019970D01*
X0079583Y0019994D01*
X0079437Y0020021D01*
X0079293Y0020053D01*
X0079149Y0020088D01*
X0079006Y0020128D01*
X0078865Y0020171D01*
X0078724Y0020218D01*
X0078585Y0020268D01*
X0078448Y0020323D01*
X0078312Y0020381D01*
X0078177Y0020442D01*
X0078044Y0020507D01*
X0077913Y0020576D01*
X0077784Y0020648D01*
X0077657Y0020724D01*
X0077532Y0020803D01*
X0077409Y0020886D01*
X0077288Y0020971D01*
X0077170Y0021060D01*
X0077054Y0021152D01*
X0076941Y0021248D01*
X0076830Y0021346D01*
X0076722Y0021447D01*
X0076616Y0021551D01*
X0076514Y0021657D01*
X0076414Y0021767D01*
X0076318Y0021879D01*
X0076224Y0021994D01*
X0076133Y0022111D01*
X0076046Y0022230D01*
X0075962Y0022352D01*
X0075881Y0022476D01*
X0075804Y0022602D01*
X0075730Y0022730D01*
X0075659Y0022860D01*
X0075592Y0022992D01*
X0075529Y0023126D01*
X0075469Y0023261D01*
X0075413Y0023398D01*
X0075360Y0023537D01*
X0075312Y0023677D01*
X0075267Y0023818D01*
X0075226Y0023960D01*
X0075188Y0024103D01*
X0075155Y0024247D01*
X0075125Y0024392D01*
X0075099Y0024538D01*
X0075078Y0024684D01*
X0075060Y0024831D01*
X0075046Y0024978D01*
X0075036Y0025126D01*
X0075030Y0025274D01*
X0075028Y0025422D01*
X0074040Y0026107D02*
X0074042Y0026268D01*
X0074048Y0026428D01*
X0074058Y0026589D01*
X0074072Y0026749D01*
X0074090Y0026909D01*
X0074111Y0027068D01*
X0074137Y0027227D01*
X0074167Y0027385D01*
X0074200Y0027542D01*
X0074238Y0027699D01*
X0074279Y0027854D01*
X0074324Y0028008D01*
X0074373Y0028161D01*
X0074426Y0028313D01*
X0074482Y0028464D01*
X0074543Y0028613D01*
X0074606Y0028761D01*
X0074674Y0028907D01*
X0074745Y0029051D01*
X0074819Y0029193D01*
X0074897Y0029334D01*
X0074979Y0029472D01*
X0075064Y0029609D01*
X0075152Y0029743D01*
X0075244Y0029875D01*
X0075339Y0030005D01*
X0075437Y0030133D01*
X0075538Y0030258D01*
X0075642Y0030380D01*
X0075749Y0030500D01*
X0075859Y0030617D01*
X0075972Y0030732D01*
X0076088Y0030843D01*
X0076207Y0030952D01*
X0076328Y0031057D01*
X0076452Y0031160D01*
X0076578Y0031260D01*
X0076706Y0031356D01*
X0076837Y0031449D01*
X0076971Y0031539D01*
X0077106Y0031626D01*
X0077244Y0031709D01*
X0077383Y0031789D01*
X0077525Y0031865D01*
X0077668Y0031938D01*
X0077813Y0032007D01*
X0077960Y0032073D01*
X0078108Y0032135D01*
X0078258Y0032193D01*
X0078409Y0032248D01*
X0078562Y0032299D01*
X0078716Y0032346D01*
X0078871Y0032389D01*
X0079027Y0032428D01*
X0079183Y0032464D01*
X0079341Y0032495D01*
X0079499Y0032523D01*
X0079658Y0032547D01*
X0079818Y0032567D01*
X0079978Y0032583D01*
X0080138Y0032595D01*
X0080299Y0032603D01*
X0080460Y0032607D01*
X0080620Y0032607D01*
X0080781Y0032603D01*
X0080942Y0032595D01*
X0081102Y0032583D01*
X0081262Y0032567D01*
X0081422Y0032547D01*
X0081581Y0032523D01*
X0081739Y0032495D01*
X0081897Y0032464D01*
X0082053Y0032428D01*
X0082209Y0032389D01*
X0082364Y0032346D01*
X0082518Y0032299D01*
X0082671Y0032248D01*
X0082822Y0032193D01*
X0082972Y0032135D01*
X0083120Y0032073D01*
X0083267Y0032007D01*
X0083412Y0031938D01*
X0083555Y0031865D01*
X0083697Y0031789D01*
X0083836Y0031709D01*
X0083974Y0031626D01*
X0084109Y0031539D01*
X0084243Y0031449D01*
X0084374Y0031356D01*
X0084502Y0031260D01*
X0084628Y0031160D01*
X0084752Y0031057D01*
X0084873Y0030952D01*
X0084992Y0030843D01*
X0085108Y0030732D01*
X0085221Y0030617D01*
X0085331Y0030500D01*
X0085438Y0030380D01*
X0085542Y0030258D01*
X0085643Y0030133D01*
X0085741Y0030005D01*
X0085836Y0029875D01*
X0085928Y0029743D01*
X0086016Y0029609D01*
X0086101Y0029472D01*
X0086183Y0029334D01*
X0086261Y0029193D01*
X0086335Y0029051D01*
X0086406Y0028907D01*
X0086474Y0028761D01*
X0086537Y0028613D01*
X0086598Y0028464D01*
X0086654Y0028313D01*
X0086707Y0028161D01*
X0086756Y0028008D01*
X0086801Y0027854D01*
X0086842Y0027699D01*
X0086880Y0027542D01*
X0086913Y0027385D01*
X0086943Y0027227D01*
X0086969Y0027068D01*
X0086990Y0026909D01*
X0087008Y0026749D01*
X0087022Y0026589D01*
X0087032Y0026428D01*
X0087038Y0026268D01*
X0087040Y0026107D01*
X0087038Y0025946D01*
X0087032Y0025786D01*
X0087022Y0025625D01*
X0087008Y0025465D01*
X0086990Y0025305D01*
X0086969Y0025146D01*
X0086943Y0024987D01*
X0086913Y0024829D01*
X0086880Y0024672D01*
X0086842Y0024515D01*
X0086801Y0024360D01*
X0086756Y0024206D01*
X0086707Y0024053D01*
X0086654Y0023901D01*
X0086598Y0023750D01*
X0086537Y0023601D01*
X0086474Y0023453D01*
X0086406Y0023307D01*
X0086335Y0023163D01*
X0086261Y0023021D01*
X0086183Y0022880D01*
X0086101Y0022742D01*
X0086016Y0022605D01*
X0085928Y0022471D01*
X0085836Y0022339D01*
X0085741Y0022209D01*
X0085643Y0022081D01*
X0085542Y0021956D01*
X0085438Y0021834D01*
X0085331Y0021714D01*
X0085221Y0021597D01*
X0085108Y0021482D01*
X0084992Y0021371D01*
X0084873Y0021262D01*
X0084752Y0021157D01*
X0084628Y0021054D01*
X0084502Y0020954D01*
X0084374Y0020858D01*
X0084243Y0020765D01*
X0084109Y0020675D01*
X0083974Y0020588D01*
X0083836Y0020505D01*
X0083697Y0020425D01*
X0083555Y0020349D01*
X0083412Y0020276D01*
X0083267Y0020207D01*
X0083120Y0020141D01*
X0082972Y0020079D01*
X0082822Y0020021D01*
X0082671Y0019966D01*
X0082518Y0019915D01*
X0082364Y0019868D01*
X0082209Y0019825D01*
X0082053Y0019786D01*
X0081897Y0019750D01*
X0081739Y0019719D01*
X0081581Y0019691D01*
X0081422Y0019667D01*
X0081262Y0019647D01*
X0081102Y0019631D01*
X0080942Y0019619D01*
X0080781Y0019611D01*
X0080620Y0019607D01*
X0080460Y0019607D01*
X0080299Y0019611D01*
X0080138Y0019619D01*
X0079978Y0019631D01*
X0079818Y0019647D01*
X0079658Y0019667D01*
X0079499Y0019691D01*
X0079341Y0019719D01*
X0079183Y0019750D01*
X0079027Y0019786D01*
X0078871Y0019825D01*
X0078716Y0019868D01*
X0078562Y0019915D01*
X0078409Y0019966D01*
X0078258Y0020021D01*
X0078108Y0020079D01*
X0077960Y0020141D01*
X0077813Y0020207D01*
X0077668Y0020276D01*
X0077525Y0020349D01*
X0077383Y0020425D01*
X0077244Y0020505D01*
X0077106Y0020588D01*
X0076971Y0020675D01*
X0076837Y0020765D01*
X0076706Y0020858D01*
X0076578Y0020954D01*
X0076452Y0021054D01*
X0076328Y0021157D01*
X0076207Y0021262D01*
X0076088Y0021371D01*
X0075972Y0021482D01*
X0075859Y0021597D01*
X0075749Y0021714D01*
X0075642Y0021834D01*
X0075538Y0021956D01*
X0075437Y0022081D01*
X0075339Y0022209D01*
X0075244Y0022339D01*
X0075152Y0022471D01*
X0075064Y0022605D01*
X0074979Y0022742D01*
X0074897Y0022880D01*
X0074819Y0023021D01*
X0074745Y0023163D01*
X0074674Y0023307D01*
X0074606Y0023453D01*
X0074543Y0023601D01*
X0074482Y0023750D01*
X0074426Y0023901D01*
X0074373Y0024053D01*
X0074324Y0024206D01*
X0074279Y0024360D01*
X0074238Y0024515D01*
X0074200Y0024672D01*
X0074167Y0024829D01*
X0074137Y0024987D01*
X0074111Y0025146D01*
X0074090Y0025305D01*
X0074072Y0025465D01*
X0074058Y0025625D01*
X0074048Y0025786D01*
X0074042Y0025946D01*
X0074040Y0026107D01*
X0130146Y0025422D02*
X0130148Y0025570D01*
X0130154Y0025718D01*
X0130164Y0025866D01*
X0130178Y0026013D01*
X0130196Y0026160D01*
X0130217Y0026306D01*
X0130243Y0026452D01*
X0130273Y0026597D01*
X0130306Y0026741D01*
X0130344Y0026884D01*
X0130385Y0027026D01*
X0130430Y0027167D01*
X0130478Y0027307D01*
X0130531Y0027446D01*
X0130587Y0027583D01*
X0130647Y0027718D01*
X0130710Y0027852D01*
X0130777Y0027984D01*
X0130848Y0028114D01*
X0130922Y0028242D01*
X0130999Y0028368D01*
X0131080Y0028492D01*
X0131164Y0028614D01*
X0131251Y0028733D01*
X0131342Y0028850D01*
X0131436Y0028965D01*
X0131532Y0029077D01*
X0131632Y0029187D01*
X0131734Y0029293D01*
X0131840Y0029397D01*
X0131948Y0029498D01*
X0132059Y0029596D01*
X0132172Y0029692D01*
X0132288Y0029784D01*
X0132406Y0029873D01*
X0132527Y0029958D01*
X0132650Y0030041D01*
X0132775Y0030120D01*
X0132902Y0030196D01*
X0133031Y0030268D01*
X0133162Y0030337D01*
X0133295Y0030402D01*
X0133430Y0030463D01*
X0133566Y0030521D01*
X0133703Y0030576D01*
X0133842Y0030626D01*
X0133983Y0030673D01*
X0134124Y0030716D01*
X0134267Y0030756D01*
X0134411Y0030791D01*
X0134555Y0030823D01*
X0134701Y0030850D01*
X0134847Y0030874D01*
X0134994Y0030894D01*
X0135141Y0030910D01*
X0135288Y0030922D01*
X0135436Y0030930D01*
X0135584Y0030934D01*
X0135732Y0030934D01*
X0135880Y0030930D01*
X0136028Y0030922D01*
X0136175Y0030910D01*
X0136322Y0030894D01*
X0136469Y0030874D01*
X0136615Y0030850D01*
X0136761Y0030823D01*
X0136905Y0030791D01*
X0137049Y0030756D01*
X0137192Y0030716D01*
X0137333Y0030673D01*
X0137474Y0030626D01*
X0137613Y0030576D01*
X0137750Y0030521D01*
X0137886Y0030463D01*
X0138021Y0030402D01*
X0138154Y0030337D01*
X0138285Y0030268D01*
X0138414Y0030196D01*
X0138541Y0030120D01*
X0138666Y0030041D01*
X0138789Y0029958D01*
X0138910Y0029873D01*
X0139028Y0029784D01*
X0139144Y0029692D01*
X0139257Y0029596D01*
X0139368Y0029498D01*
X0139476Y0029397D01*
X0139582Y0029293D01*
X0139684Y0029187D01*
X0139784Y0029077D01*
X0139880Y0028965D01*
X0139974Y0028850D01*
X0140065Y0028733D01*
X0140152Y0028614D01*
X0140236Y0028492D01*
X0140317Y0028368D01*
X0140394Y0028242D01*
X0140468Y0028114D01*
X0140539Y0027984D01*
X0140606Y0027852D01*
X0140669Y0027718D01*
X0140729Y0027583D01*
X0140785Y0027446D01*
X0140838Y0027307D01*
X0140886Y0027167D01*
X0140931Y0027026D01*
X0140972Y0026884D01*
X0141010Y0026741D01*
X0141043Y0026597D01*
X0141073Y0026452D01*
X0141099Y0026306D01*
X0141120Y0026160D01*
X0141138Y0026013D01*
X0141152Y0025866D01*
X0141162Y0025718D01*
X0141168Y0025570D01*
X0141170Y0025422D01*
X0141168Y0025274D01*
X0141162Y0025126D01*
X0141152Y0024978D01*
X0141138Y0024831D01*
X0141120Y0024684D01*
X0141099Y0024538D01*
X0141073Y0024392D01*
X0141043Y0024247D01*
X0141010Y0024103D01*
X0140972Y0023960D01*
X0140931Y0023818D01*
X0140886Y0023677D01*
X0140838Y0023537D01*
X0140785Y0023398D01*
X0140729Y0023261D01*
X0140669Y0023126D01*
X0140606Y0022992D01*
X0140539Y0022860D01*
X0140468Y0022730D01*
X0140394Y0022602D01*
X0140317Y0022476D01*
X0140236Y0022352D01*
X0140152Y0022230D01*
X0140065Y0022111D01*
X0139974Y0021994D01*
X0139880Y0021879D01*
X0139784Y0021767D01*
X0139684Y0021657D01*
X0139582Y0021551D01*
X0139476Y0021447D01*
X0139368Y0021346D01*
X0139257Y0021248D01*
X0139144Y0021152D01*
X0139028Y0021060D01*
X0138910Y0020971D01*
X0138789Y0020886D01*
X0138666Y0020803D01*
X0138541Y0020724D01*
X0138414Y0020648D01*
X0138285Y0020576D01*
X0138154Y0020507D01*
X0138021Y0020442D01*
X0137886Y0020381D01*
X0137750Y0020323D01*
X0137613Y0020268D01*
X0137474Y0020218D01*
X0137333Y0020171D01*
X0137192Y0020128D01*
X0137049Y0020088D01*
X0136905Y0020053D01*
X0136761Y0020021D01*
X0136615Y0019994D01*
X0136469Y0019970D01*
X0136322Y0019950D01*
X0136175Y0019934D01*
X0136028Y0019922D01*
X0135880Y0019914D01*
X0135732Y0019910D01*
X0135584Y0019910D01*
X0135436Y0019914D01*
X0135288Y0019922D01*
X0135141Y0019934D01*
X0134994Y0019950D01*
X0134847Y0019970D01*
X0134701Y0019994D01*
X0134555Y0020021D01*
X0134411Y0020053D01*
X0134267Y0020088D01*
X0134124Y0020128D01*
X0133983Y0020171D01*
X0133842Y0020218D01*
X0133703Y0020268D01*
X0133566Y0020323D01*
X0133430Y0020381D01*
X0133295Y0020442D01*
X0133162Y0020507D01*
X0133031Y0020576D01*
X0132902Y0020648D01*
X0132775Y0020724D01*
X0132650Y0020803D01*
X0132527Y0020886D01*
X0132406Y0020971D01*
X0132288Y0021060D01*
X0132172Y0021152D01*
X0132059Y0021248D01*
X0131948Y0021346D01*
X0131840Y0021447D01*
X0131734Y0021551D01*
X0131632Y0021657D01*
X0131532Y0021767D01*
X0131436Y0021879D01*
X0131342Y0021994D01*
X0131251Y0022111D01*
X0131164Y0022230D01*
X0131080Y0022352D01*
X0130999Y0022476D01*
X0130922Y0022602D01*
X0130848Y0022730D01*
X0130777Y0022860D01*
X0130710Y0022992D01*
X0130647Y0023126D01*
X0130587Y0023261D01*
X0130531Y0023398D01*
X0130478Y0023537D01*
X0130430Y0023677D01*
X0130385Y0023818D01*
X0130344Y0023960D01*
X0130306Y0024103D01*
X0130273Y0024247D01*
X0130243Y0024392D01*
X0130217Y0024538D01*
X0130196Y0024684D01*
X0130178Y0024831D01*
X0130164Y0024978D01*
X0130154Y0025126D01*
X0130148Y0025274D01*
X0130146Y0025422D01*
X0129158Y0024729D02*
X0129160Y0024890D01*
X0129166Y0025050D01*
X0129176Y0025211D01*
X0129190Y0025371D01*
X0129208Y0025531D01*
X0129229Y0025690D01*
X0129255Y0025849D01*
X0129285Y0026007D01*
X0129318Y0026164D01*
X0129356Y0026321D01*
X0129397Y0026476D01*
X0129442Y0026630D01*
X0129491Y0026783D01*
X0129544Y0026935D01*
X0129600Y0027086D01*
X0129661Y0027235D01*
X0129724Y0027383D01*
X0129792Y0027529D01*
X0129863Y0027673D01*
X0129937Y0027815D01*
X0130015Y0027956D01*
X0130097Y0028094D01*
X0130182Y0028231D01*
X0130270Y0028365D01*
X0130362Y0028497D01*
X0130457Y0028627D01*
X0130555Y0028755D01*
X0130656Y0028880D01*
X0130760Y0029002D01*
X0130867Y0029122D01*
X0130977Y0029239D01*
X0131090Y0029354D01*
X0131206Y0029465D01*
X0131325Y0029574D01*
X0131446Y0029679D01*
X0131570Y0029782D01*
X0131696Y0029882D01*
X0131824Y0029978D01*
X0131955Y0030071D01*
X0132089Y0030161D01*
X0132224Y0030248D01*
X0132362Y0030331D01*
X0132501Y0030411D01*
X0132643Y0030487D01*
X0132786Y0030560D01*
X0132931Y0030629D01*
X0133078Y0030695D01*
X0133226Y0030757D01*
X0133376Y0030815D01*
X0133527Y0030870D01*
X0133680Y0030921D01*
X0133834Y0030968D01*
X0133989Y0031011D01*
X0134145Y0031050D01*
X0134301Y0031086D01*
X0134459Y0031117D01*
X0134617Y0031145D01*
X0134776Y0031169D01*
X0134936Y0031189D01*
X0135096Y0031205D01*
X0135256Y0031217D01*
X0135417Y0031225D01*
X0135578Y0031229D01*
X0135738Y0031229D01*
X0135899Y0031225D01*
X0136060Y0031217D01*
X0136220Y0031205D01*
X0136380Y0031189D01*
X0136540Y0031169D01*
X0136699Y0031145D01*
X0136857Y0031117D01*
X0137015Y0031086D01*
X0137171Y0031050D01*
X0137327Y0031011D01*
X0137482Y0030968D01*
X0137636Y0030921D01*
X0137789Y0030870D01*
X0137940Y0030815D01*
X0138090Y0030757D01*
X0138238Y0030695D01*
X0138385Y0030629D01*
X0138530Y0030560D01*
X0138673Y0030487D01*
X0138815Y0030411D01*
X0138954Y0030331D01*
X0139092Y0030248D01*
X0139227Y0030161D01*
X0139361Y0030071D01*
X0139492Y0029978D01*
X0139620Y0029882D01*
X0139746Y0029782D01*
X0139870Y0029679D01*
X0139991Y0029574D01*
X0140110Y0029465D01*
X0140226Y0029354D01*
X0140339Y0029239D01*
X0140449Y0029122D01*
X0140556Y0029002D01*
X0140660Y0028880D01*
X0140761Y0028755D01*
X0140859Y0028627D01*
X0140954Y0028497D01*
X0141046Y0028365D01*
X0141134Y0028231D01*
X0141219Y0028094D01*
X0141301Y0027956D01*
X0141379Y0027815D01*
X0141453Y0027673D01*
X0141524Y0027529D01*
X0141592Y0027383D01*
X0141655Y0027235D01*
X0141716Y0027086D01*
X0141772Y0026935D01*
X0141825Y0026783D01*
X0141874Y0026630D01*
X0141919Y0026476D01*
X0141960Y0026321D01*
X0141998Y0026164D01*
X0142031Y0026007D01*
X0142061Y0025849D01*
X0142087Y0025690D01*
X0142108Y0025531D01*
X0142126Y0025371D01*
X0142140Y0025211D01*
X0142150Y0025050D01*
X0142156Y0024890D01*
X0142158Y0024729D01*
X0142156Y0024568D01*
X0142150Y0024408D01*
X0142140Y0024247D01*
X0142126Y0024087D01*
X0142108Y0023927D01*
X0142087Y0023768D01*
X0142061Y0023609D01*
X0142031Y0023451D01*
X0141998Y0023294D01*
X0141960Y0023137D01*
X0141919Y0022982D01*
X0141874Y0022828D01*
X0141825Y0022675D01*
X0141772Y0022523D01*
X0141716Y0022372D01*
X0141655Y0022223D01*
X0141592Y0022075D01*
X0141524Y0021929D01*
X0141453Y0021785D01*
X0141379Y0021643D01*
X0141301Y0021502D01*
X0141219Y0021364D01*
X0141134Y0021227D01*
X0141046Y0021093D01*
X0140954Y0020961D01*
X0140859Y0020831D01*
X0140761Y0020703D01*
X0140660Y0020578D01*
X0140556Y0020456D01*
X0140449Y0020336D01*
X0140339Y0020219D01*
X0140226Y0020104D01*
X0140110Y0019993D01*
X0139991Y0019884D01*
X0139870Y0019779D01*
X0139746Y0019676D01*
X0139620Y0019576D01*
X0139492Y0019480D01*
X0139361Y0019387D01*
X0139227Y0019297D01*
X0139092Y0019210D01*
X0138954Y0019127D01*
X0138815Y0019047D01*
X0138673Y0018971D01*
X0138530Y0018898D01*
X0138385Y0018829D01*
X0138238Y0018763D01*
X0138090Y0018701D01*
X0137940Y0018643D01*
X0137789Y0018588D01*
X0137636Y0018537D01*
X0137482Y0018490D01*
X0137327Y0018447D01*
X0137171Y0018408D01*
X0137015Y0018372D01*
X0136857Y0018341D01*
X0136699Y0018313D01*
X0136540Y0018289D01*
X0136380Y0018269D01*
X0136220Y0018253D01*
X0136060Y0018241D01*
X0135899Y0018233D01*
X0135738Y0018229D01*
X0135578Y0018229D01*
X0135417Y0018233D01*
X0135256Y0018241D01*
X0135096Y0018253D01*
X0134936Y0018269D01*
X0134776Y0018289D01*
X0134617Y0018313D01*
X0134459Y0018341D01*
X0134301Y0018372D01*
X0134145Y0018408D01*
X0133989Y0018447D01*
X0133834Y0018490D01*
X0133680Y0018537D01*
X0133527Y0018588D01*
X0133376Y0018643D01*
X0133226Y0018701D01*
X0133078Y0018763D01*
X0132931Y0018829D01*
X0132786Y0018898D01*
X0132643Y0018971D01*
X0132501Y0019047D01*
X0132362Y0019127D01*
X0132224Y0019210D01*
X0132089Y0019297D01*
X0131955Y0019387D01*
X0131824Y0019480D01*
X0131696Y0019576D01*
X0131570Y0019676D01*
X0131446Y0019779D01*
X0131325Y0019884D01*
X0131206Y0019993D01*
X0131090Y0020104D01*
X0130977Y0020219D01*
X0130867Y0020336D01*
X0130760Y0020456D01*
X0130656Y0020578D01*
X0130555Y0020703D01*
X0130457Y0020831D01*
X0130362Y0020961D01*
X0130270Y0021093D01*
X0130182Y0021227D01*
X0130097Y0021364D01*
X0130015Y0021502D01*
X0129937Y0021643D01*
X0129863Y0021785D01*
X0129792Y0021929D01*
X0129724Y0022075D01*
X0129661Y0022223D01*
X0129600Y0022372D01*
X0129544Y0022523D01*
X0129491Y0022675D01*
X0129442Y0022828D01*
X0129397Y0022982D01*
X0129356Y0023137D01*
X0129318Y0023294D01*
X0129285Y0023451D01*
X0129255Y0023609D01*
X0129229Y0023768D01*
X0129208Y0023927D01*
X0129190Y0024087D01*
X0129176Y0024247D01*
X0129166Y0024408D01*
X0129160Y0024568D01*
X0129158Y0024729D01*
X0323060Y0017548D02*
X0323062Y0017696D01*
X0323068Y0017844D01*
X0323078Y0017992D01*
X0323092Y0018139D01*
X0323110Y0018286D01*
X0323131Y0018432D01*
X0323157Y0018578D01*
X0323187Y0018723D01*
X0323220Y0018867D01*
X0323258Y0019010D01*
X0323299Y0019152D01*
X0323344Y0019293D01*
X0323392Y0019433D01*
X0323445Y0019572D01*
X0323501Y0019709D01*
X0323561Y0019844D01*
X0323624Y0019978D01*
X0323691Y0020110D01*
X0323762Y0020240D01*
X0323836Y0020368D01*
X0323913Y0020494D01*
X0323994Y0020618D01*
X0324078Y0020740D01*
X0324165Y0020859D01*
X0324256Y0020976D01*
X0324350Y0021091D01*
X0324446Y0021203D01*
X0324546Y0021313D01*
X0324648Y0021419D01*
X0324754Y0021523D01*
X0324862Y0021624D01*
X0324973Y0021722D01*
X0325086Y0021818D01*
X0325202Y0021910D01*
X0325320Y0021999D01*
X0325441Y0022084D01*
X0325564Y0022167D01*
X0325689Y0022246D01*
X0325816Y0022322D01*
X0325945Y0022394D01*
X0326076Y0022463D01*
X0326209Y0022528D01*
X0326344Y0022589D01*
X0326480Y0022647D01*
X0326617Y0022702D01*
X0326756Y0022752D01*
X0326897Y0022799D01*
X0327038Y0022842D01*
X0327181Y0022882D01*
X0327325Y0022917D01*
X0327469Y0022949D01*
X0327615Y0022976D01*
X0327761Y0023000D01*
X0327908Y0023020D01*
X0328055Y0023036D01*
X0328202Y0023048D01*
X0328350Y0023056D01*
X0328498Y0023060D01*
X0328646Y0023060D01*
X0328794Y0023056D01*
X0328942Y0023048D01*
X0329089Y0023036D01*
X0329236Y0023020D01*
X0329383Y0023000D01*
X0329529Y0022976D01*
X0329675Y0022949D01*
X0329819Y0022917D01*
X0329963Y0022882D01*
X0330106Y0022842D01*
X0330247Y0022799D01*
X0330388Y0022752D01*
X0330527Y0022702D01*
X0330664Y0022647D01*
X0330800Y0022589D01*
X0330935Y0022528D01*
X0331068Y0022463D01*
X0331199Y0022394D01*
X0331328Y0022322D01*
X0331455Y0022246D01*
X0331580Y0022167D01*
X0331703Y0022084D01*
X0331824Y0021999D01*
X0331942Y0021910D01*
X0332058Y0021818D01*
X0332171Y0021722D01*
X0332282Y0021624D01*
X0332390Y0021523D01*
X0332496Y0021419D01*
X0332598Y0021313D01*
X0332698Y0021203D01*
X0332794Y0021091D01*
X0332888Y0020976D01*
X0332979Y0020859D01*
X0333066Y0020740D01*
X0333150Y0020618D01*
X0333231Y0020494D01*
X0333308Y0020368D01*
X0333382Y0020240D01*
X0333453Y0020110D01*
X0333520Y0019978D01*
X0333583Y0019844D01*
X0333643Y0019709D01*
X0333699Y0019572D01*
X0333752Y0019433D01*
X0333800Y0019293D01*
X0333845Y0019152D01*
X0333886Y0019010D01*
X0333924Y0018867D01*
X0333957Y0018723D01*
X0333987Y0018578D01*
X0334013Y0018432D01*
X0334034Y0018286D01*
X0334052Y0018139D01*
X0334066Y0017992D01*
X0334076Y0017844D01*
X0334082Y0017696D01*
X0334084Y0017548D01*
X0334082Y0017400D01*
X0334076Y0017252D01*
X0334066Y0017104D01*
X0334052Y0016957D01*
X0334034Y0016810D01*
X0334013Y0016664D01*
X0333987Y0016518D01*
X0333957Y0016373D01*
X0333924Y0016229D01*
X0333886Y0016086D01*
X0333845Y0015944D01*
X0333800Y0015803D01*
X0333752Y0015663D01*
X0333699Y0015524D01*
X0333643Y0015387D01*
X0333583Y0015252D01*
X0333520Y0015118D01*
X0333453Y0014986D01*
X0333382Y0014856D01*
X0333308Y0014728D01*
X0333231Y0014602D01*
X0333150Y0014478D01*
X0333066Y0014356D01*
X0332979Y0014237D01*
X0332888Y0014120D01*
X0332794Y0014005D01*
X0332698Y0013893D01*
X0332598Y0013783D01*
X0332496Y0013677D01*
X0332390Y0013573D01*
X0332282Y0013472D01*
X0332171Y0013374D01*
X0332058Y0013278D01*
X0331942Y0013186D01*
X0331824Y0013097D01*
X0331703Y0013012D01*
X0331580Y0012929D01*
X0331455Y0012850D01*
X0331328Y0012774D01*
X0331199Y0012702D01*
X0331068Y0012633D01*
X0330935Y0012568D01*
X0330800Y0012507D01*
X0330664Y0012449D01*
X0330527Y0012394D01*
X0330388Y0012344D01*
X0330247Y0012297D01*
X0330106Y0012254D01*
X0329963Y0012214D01*
X0329819Y0012179D01*
X0329675Y0012147D01*
X0329529Y0012120D01*
X0329383Y0012096D01*
X0329236Y0012076D01*
X0329089Y0012060D01*
X0328942Y0012048D01*
X0328794Y0012040D01*
X0328646Y0012036D01*
X0328498Y0012036D01*
X0328350Y0012040D01*
X0328202Y0012048D01*
X0328055Y0012060D01*
X0327908Y0012076D01*
X0327761Y0012096D01*
X0327615Y0012120D01*
X0327469Y0012147D01*
X0327325Y0012179D01*
X0327181Y0012214D01*
X0327038Y0012254D01*
X0326897Y0012297D01*
X0326756Y0012344D01*
X0326617Y0012394D01*
X0326480Y0012449D01*
X0326344Y0012507D01*
X0326209Y0012568D01*
X0326076Y0012633D01*
X0325945Y0012702D01*
X0325816Y0012774D01*
X0325689Y0012850D01*
X0325564Y0012929D01*
X0325441Y0013012D01*
X0325320Y0013097D01*
X0325202Y0013186D01*
X0325086Y0013278D01*
X0324973Y0013374D01*
X0324862Y0013472D01*
X0324754Y0013573D01*
X0324648Y0013677D01*
X0324546Y0013783D01*
X0324446Y0013893D01*
X0324350Y0014005D01*
X0324256Y0014120D01*
X0324165Y0014237D01*
X0324078Y0014356D01*
X0323994Y0014478D01*
X0323913Y0014602D01*
X0323836Y0014728D01*
X0323762Y0014856D01*
X0323691Y0014986D01*
X0323624Y0015118D01*
X0323561Y0015252D01*
X0323501Y0015387D01*
X0323445Y0015524D01*
X0323392Y0015663D01*
X0323344Y0015803D01*
X0323299Y0015944D01*
X0323258Y0016086D01*
X0323220Y0016229D01*
X0323187Y0016373D01*
X0323157Y0016518D01*
X0323131Y0016664D01*
X0323110Y0016810D01*
X0323092Y0016957D01*
X0323078Y0017104D01*
X0323068Y0017252D01*
X0323062Y0017400D01*
X0323060Y0017548D01*
X0323060Y0131721D02*
X0323062Y0131869D01*
X0323068Y0132017D01*
X0323078Y0132165D01*
X0323092Y0132312D01*
X0323110Y0132459D01*
X0323131Y0132605D01*
X0323157Y0132751D01*
X0323187Y0132896D01*
X0323220Y0133040D01*
X0323258Y0133183D01*
X0323299Y0133325D01*
X0323344Y0133466D01*
X0323392Y0133606D01*
X0323445Y0133745D01*
X0323501Y0133882D01*
X0323561Y0134017D01*
X0323624Y0134151D01*
X0323691Y0134283D01*
X0323762Y0134413D01*
X0323836Y0134541D01*
X0323913Y0134667D01*
X0323994Y0134791D01*
X0324078Y0134913D01*
X0324165Y0135032D01*
X0324256Y0135149D01*
X0324350Y0135264D01*
X0324446Y0135376D01*
X0324546Y0135486D01*
X0324648Y0135592D01*
X0324754Y0135696D01*
X0324862Y0135797D01*
X0324973Y0135895D01*
X0325086Y0135991D01*
X0325202Y0136083D01*
X0325320Y0136172D01*
X0325441Y0136257D01*
X0325564Y0136340D01*
X0325689Y0136419D01*
X0325816Y0136495D01*
X0325945Y0136567D01*
X0326076Y0136636D01*
X0326209Y0136701D01*
X0326344Y0136762D01*
X0326480Y0136820D01*
X0326617Y0136875D01*
X0326756Y0136925D01*
X0326897Y0136972D01*
X0327038Y0137015D01*
X0327181Y0137055D01*
X0327325Y0137090D01*
X0327469Y0137122D01*
X0327615Y0137149D01*
X0327761Y0137173D01*
X0327908Y0137193D01*
X0328055Y0137209D01*
X0328202Y0137221D01*
X0328350Y0137229D01*
X0328498Y0137233D01*
X0328646Y0137233D01*
X0328794Y0137229D01*
X0328942Y0137221D01*
X0329089Y0137209D01*
X0329236Y0137193D01*
X0329383Y0137173D01*
X0329529Y0137149D01*
X0329675Y0137122D01*
X0329819Y0137090D01*
X0329963Y0137055D01*
X0330106Y0137015D01*
X0330247Y0136972D01*
X0330388Y0136925D01*
X0330527Y0136875D01*
X0330664Y0136820D01*
X0330800Y0136762D01*
X0330935Y0136701D01*
X0331068Y0136636D01*
X0331199Y0136567D01*
X0331328Y0136495D01*
X0331455Y0136419D01*
X0331580Y0136340D01*
X0331703Y0136257D01*
X0331824Y0136172D01*
X0331942Y0136083D01*
X0332058Y0135991D01*
X0332171Y0135895D01*
X0332282Y0135797D01*
X0332390Y0135696D01*
X0332496Y0135592D01*
X0332598Y0135486D01*
X0332698Y0135376D01*
X0332794Y0135264D01*
X0332888Y0135149D01*
X0332979Y0135032D01*
X0333066Y0134913D01*
X0333150Y0134791D01*
X0333231Y0134667D01*
X0333308Y0134541D01*
X0333382Y0134413D01*
X0333453Y0134283D01*
X0333520Y0134151D01*
X0333583Y0134017D01*
X0333643Y0133882D01*
X0333699Y0133745D01*
X0333752Y0133606D01*
X0333800Y0133466D01*
X0333845Y0133325D01*
X0333886Y0133183D01*
X0333924Y0133040D01*
X0333957Y0132896D01*
X0333987Y0132751D01*
X0334013Y0132605D01*
X0334034Y0132459D01*
X0334052Y0132312D01*
X0334066Y0132165D01*
X0334076Y0132017D01*
X0334082Y0131869D01*
X0334084Y0131721D01*
X0334082Y0131573D01*
X0334076Y0131425D01*
X0334066Y0131277D01*
X0334052Y0131130D01*
X0334034Y0130983D01*
X0334013Y0130837D01*
X0333987Y0130691D01*
X0333957Y0130546D01*
X0333924Y0130402D01*
X0333886Y0130259D01*
X0333845Y0130117D01*
X0333800Y0129976D01*
X0333752Y0129836D01*
X0333699Y0129697D01*
X0333643Y0129560D01*
X0333583Y0129425D01*
X0333520Y0129291D01*
X0333453Y0129159D01*
X0333382Y0129029D01*
X0333308Y0128901D01*
X0333231Y0128775D01*
X0333150Y0128651D01*
X0333066Y0128529D01*
X0332979Y0128410D01*
X0332888Y0128293D01*
X0332794Y0128178D01*
X0332698Y0128066D01*
X0332598Y0127956D01*
X0332496Y0127850D01*
X0332390Y0127746D01*
X0332282Y0127645D01*
X0332171Y0127547D01*
X0332058Y0127451D01*
X0331942Y0127359D01*
X0331824Y0127270D01*
X0331703Y0127185D01*
X0331580Y0127102D01*
X0331455Y0127023D01*
X0331328Y0126947D01*
X0331199Y0126875D01*
X0331068Y0126806D01*
X0330935Y0126741D01*
X0330800Y0126680D01*
X0330664Y0126622D01*
X0330527Y0126567D01*
X0330388Y0126517D01*
X0330247Y0126470D01*
X0330106Y0126427D01*
X0329963Y0126387D01*
X0329819Y0126352D01*
X0329675Y0126320D01*
X0329529Y0126293D01*
X0329383Y0126269D01*
X0329236Y0126249D01*
X0329089Y0126233D01*
X0328942Y0126221D01*
X0328794Y0126213D01*
X0328646Y0126209D01*
X0328498Y0126209D01*
X0328350Y0126213D01*
X0328202Y0126221D01*
X0328055Y0126233D01*
X0327908Y0126249D01*
X0327761Y0126269D01*
X0327615Y0126293D01*
X0327469Y0126320D01*
X0327325Y0126352D01*
X0327181Y0126387D01*
X0327038Y0126427D01*
X0326897Y0126470D01*
X0326756Y0126517D01*
X0326617Y0126567D01*
X0326480Y0126622D01*
X0326344Y0126680D01*
X0326209Y0126741D01*
X0326076Y0126806D01*
X0325945Y0126875D01*
X0325816Y0126947D01*
X0325689Y0127023D01*
X0325564Y0127102D01*
X0325441Y0127185D01*
X0325320Y0127270D01*
X0325202Y0127359D01*
X0325086Y0127451D01*
X0324973Y0127547D01*
X0324862Y0127645D01*
X0324754Y0127746D01*
X0324648Y0127850D01*
X0324546Y0127956D01*
X0324446Y0128066D01*
X0324350Y0128178D01*
X0324256Y0128293D01*
X0324165Y0128410D01*
X0324078Y0128529D01*
X0323994Y0128651D01*
X0323913Y0128775D01*
X0323836Y0128901D01*
X0323762Y0129029D01*
X0323691Y0129159D01*
X0323624Y0129291D01*
X0323561Y0129425D01*
X0323501Y0129560D01*
X0323445Y0129697D01*
X0323392Y0129836D01*
X0323344Y0129976D01*
X0323299Y0130117D01*
X0323258Y0130259D01*
X0323220Y0130402D01*
X0323187Y0130546D01*
X0323157Y0130691D01*
X0323131Y0130837D01*
X0323110Y0130983D01*
X0323092Y0131130D01*
X0323078Y0131277D01*
X0323068Y0131425D01*
X0323062Y0131573D01*
X0323060Y0131721D01*
M02*
