G75*
%MOIN*%
%OFA0B0*%
%FSLAX25Y25*%
%IPPOS*%
%LPD*%
%AMOC8*
5,1,8,0,0,1.08239X$1,22.5*
%
%ADD10C,0.01600*%
%ADD11C,0.00600*%
%ADD12C,0.00000*%
D10*
X0001800Y0002252D02*
X0001800Y0147921D01*
X0344320Y0147921D01*
X0344320Y0002252D01*
X0001800Y0002252D01*
D11*
X0070558Y0132473D02*
X0072693Y0132473D01*
X0073760Y0133541D01*
X0073760Y0135676D01*
X0072693Y0136744D01*
X0070558Y0136744D01*
X0069490Y0135676D01*
X0069490Y0134608D01*
X0073760Y0134608D01*
X0075936Y0136744D02*
X0078071Y0132473D01*
X0080206Y0136744D01*
X0082381Y0135676D02*
X0082381Y0134608D01*
X0086651Y0134608D01*
X0086651Y0133541D02*
X0086651Y0135676D01*
X0085584Y0136744D01*
X0083449Y0136744D01*
X0082381Y0135676D01*
X0083449Y0132473D02*
X0085584Y0132473D01*
X0086651Y0133541D01*
X0088813Y0132473D02*
X0089881Y0133541D01*
X0089881Y0137811D01*
X0090948Y0136744D02*
X0088813Y0136744D01*
X0093124Y0136744D02*
X0096326Y0136744D01*
X0097394Y0135676D01*
X0096326Y0134608D01*
X0094191Y0134608D01*
X0093124Y0133541D01*
X0094191Y0132473D01*
X0097394Y0132473D01*
X0106015Y0133541D02*
X0107082Y0132473D01*
X0109217Y0132473D01*
X0110285Y0133541D01*
X0110285Y0134608D01*
X0109217Y0135676D01*
X0107082Y0135676D01*
X0106015Y0134608D01*
X0106015Y0133541D01*
X0107082Y0135676D02*
X0106015Y0136744D01*
X0106015Y0137811D01*
X0107082Y0138879D01*
X0109217Y0138879D01*
X0110285Y0137811D01*
X0110285Y0136744D01*
X0109217Y0135676D01*
X0112460Y0132473D02*
X0116730Y0132473D01*
X0114595Y0132473D02*
X0114595Y0138879D01*
X0116730Y0136744D01*
X0118905Y0137811D02*
X0123176Y0133541D01*
X0122108Y0132473D01*
X0119973Y0132473D01*
X0118905Y0133541D01*
X0118905Y0137811D01*
X0119973Y0138879D01*
X0122108Y0138879D01*
X0123176Y0137811D01*
X0123176Y0133541D01*
X0125351Y0132473D02*
X0129621Y0132473D01*
X0125351Y0136744D01*
X0125351Y0137811D01*
X0126419Y0138879D01*
X0128554Y0138879D01*
X0129621Y0137811D01*
X0138229Y0136744D02*
X0140364Y0138879D01*
X0138229Y0136744D02*
X0138229Y0134608D01*
X0140364Y0132473D01*
X0142539Y0132473D02*
X0145742Y0132473D01*
X0146809Y0133541D01*
X0146809Y0135676D01*
X0145742Y0136744D01*
X0142539Y0136744D01*
X0148971Y0138879D02*
X0151106Y0136744D01*
X0151106Y0134608D01*
X0148971Y0132473D01*
D12*
X0322666Y0132173D02*
X0322668Y0132326D01*
X0322674Y0132480D01*
X0322684Y0132633D01*
X0322698Y0132785D01*
X0322716Y0132938D01*
X0322738Y0133089D01*
X0322763Y0133240D01*
X0322793Y0133391D01*
X0322827Y0133541D01*
X0322864Y0133689D01*
X0322905Y0133837D01*
X0322950Y0133983D01*
X0322999Y0134129D01*
X0323052Y0134273D01*
X0323108Y0134415D01*
X0323168Y0134556D01*
X0323232Y0134696D01*
X0323299Y0134834D01*
X0323370Y0134970D01*
X0323445Y0135104D01*
X0323522Y0135236D01*
X0323604Y0135366D01*
X0323688Y0135494D01*
X0323776Y0135620D01*
X0323867Y0135743D01*
X0323961Y0135864D01*
X0324059Y0135982D01*
X0324159Y0136098D01*
X0324263Y0136211D01*
X0324369Y0136322D01*
X0324478Y0136430D01*
X0324590Y0136535D01*
X0324704Y0136636D01*
X0324822Y0136735D01*
X0324941Y0136831D01*
X0325063Y0136924D01*
X0325188Y0137013D01*
X0325315Y0137100D01*
X0325444Y0137182D01*
X0325575Y0137262D01*
X0325708Y0137338D01*
X0325843Y0137411D01*
X0325980Y0137480D01*
X0326119Y0137545D01*
X0326259Y0137607D01*
X0326401Y0137665D01*
X0326544Y0137720D01*
X0326689Y0137771D01*
X0326835Y0137818D01*
X0326982Y0137861D01*
X0327130Y0137900D01*
X0327279Y0137936D01*
X0327429Y0137967D01*
X0327580Y0137995D01*
X0327731Y0138019D01*
X0327884Y0138039D01*
X0328036Y0138055D01*
X0328189Y0138067D01*
X0328342Y0138075D01*
X0328495Y0138079D01*
X0328649Y0138079D01*
X0328802Y0138075D01*
X0328955Y0138067D01*
X0329108Y0138055D01*
X0329260Y0138039D01*
X0329413Y0138019D01*
X0329564Y0137995D01*
X0329715Y0137967D01*
X0329865Y0137936D01*
X0330014Y0137900D01*
X0330162Y0137861D01*
X0330309Y0137818D01*
X0330455Y0137771D01*
X0330600Y0137720D01*
X0330743Y0137665D01*
X0330885Y0137607D01*
X0331025Y0137545D01*
X0331164Y0137480D01*
X0331301Y0137411D01*
X0331436Y0137338D01*
X0331569Y0137262D01*
X0331700Y0137182D01*
X0331829Y0137100D01*
X0331956Y0137013D01*
X0332081Y0136924D01*
X0332203Y0136831D01*
X0332322Y0136735D01*
X0332440Y0136636D01*
X0332554Y0136535D01*
X0332666Y0136430D01*
X0332775Y0136322D01*
X0332881Y0136211D01*
X0332985Y0136098D01*
X0333085Y0135982D01*
X0333183Y0135864D01*
X0333277Y0135743D01*
X0333368Y0135620D01*
X0333456Y0135494D01*
X0333540Y0135366D01*
X0333622Y0135236D01*
X0333699Y0135104D01*
X0333774Y0134970D01*
X0333845Y0134834D01*
X0333912Y0134696D01*
X0333976Y0134556D01*
X0334036Y0134415D01*
X0334092Y0134273D01*
X0334145Y0134129D01*
X0334194Y0133983D01*
X0334239Y0133837D01*
X0334280Y0133689D01*
X0334317Y0133541D01*
X0334351Y0133391D01*
X0334381Y0133240D01*
X0334406Y0133089D01*
X0334428Y0132938D01*
X0334446Y0132785D01*
X0334460Y0132633D01*
X0334470Y0132480D01*
X0334476Y0132326D01*
X0334478Y0132173D01*
X0334476Y0132020D01*
X0334470Y0131866D01*
X0334460Y0131713D01*
X0334446Y0131561D01*
X0334428Y0131408D01*
X0334406Y0131257D01*
X0334381Y0131106D01*
X0334351Y0130955D01*
X0334317Y0130805D01*
X0334280Y0130657D01*
X0334239Y0130509D01*
X0334194Y0130363D01*
X0334145Y0130217D01*
X0334092Y0130073D01*
X0334036Y0129931D01*
X0333976Y0129790D01*
X0333912Y0129650D01*
X0333845Y0129512D01*
X0333774Y0129376D01*
X0333699Y0129242D01*
X0333622Y0129110D01*
X0333540Y0128980D01*
X0333456Y0128852D01*
X0333368Y0128726D01*
X0333277Y0128603D01*
X0333183Y0128482D01*
X0333085Y0128364D01*
X0332985Y0128248D01*
X0332881Y0128135D01*
X0332775Y0128024D01*
X0332666Y0127916D01*
X0332554Y0127811D01*
X0332440Y0127710D01*
X0332322Y0127611D01*
X0332203Y0127515D01*
X0332081Y0127422D01*
X0331956Y0127333D01*
X0331829Y0127246D01*
X0331700Y0127164D01*
X0331569Y0127084D01*
X0331436Y0127008D01*
X0331301Y0126935D01*
X0331164Y0126866D01*
X0331025Y0126801D01*
X0330885Y0126739D01*
X0330743Y0126681D01*
X0330600Y0126626D01*
X0330455Y0126575D01*
X0330309Y0126528D01*
X0330162Y0126485D01*
X0330014Y0126446D01*
X0329865Y0126410D01*
X0329715Y0126379D01*
X0329564Y0126351D01*
X0329413Y0126327D01*
X0329260Y0126307D01*
X0329108Y0126291D01*
X0328955Y0126279D01*
X0328802Y0126271D01*
X0328649Y0126267D01*
X0328495Y0126267D01*
X0328342Y0126271D01*
X0328189Y0126279D01*
X0328036Y0126291D01*
X0327884Y0126307D01*
X0327731Y0126327D01*
X0327580Y0126351D01*
X0327429Y0126379D01*
X0327279Y0126410D01*
X0327130Y0126446D01*
X0326982Y0126485D01*
X0326835Y0126528D01*
X0326689Y0126575D01*
X0326544Y0126626D01*
X0326401Y0126681D01*
X0326259Y0126739D01*
X0326119Y0126801D01*
X0325980Y0126866D01*
X0325843Y0126935D01*
X0325708Y0127008D01*
X0325575Y0127084D01*
X0325444Y0127164D01*
X0325315Y0127246D01*
X0325188Y0127333D01*
X0325063Y0127422D01*
X0324941Y0127515D01*
X0324822Y0127611D01*
X0324704Y0127710D01*
X0324590Y0127811D01*
X0324478Y0127916D01*
X0324369Y0128024D01*
X0324263Y0128135D01*
X0324159Y0128248D01*
X0324059Y0128364D01*
X0323961Y0128482D01*
X0323867Y0128603D01*
X0323776Y0128726D01*
X0323688Y0128852D01*
X0323604Y0128980D01*
X0323522Y0129110D01*
X0323445Y0129242D01*
X0323370Y0129376D01*
X0323299Y0129512D01*
X0323232Y0129650D01*
X0323168Y0129790D01*
X0323108Y0129931D01*
X0323052Y0130073D01*
X0322999Y0130217D01*
X0322950Y0130363D01*
X0322905Y0130509D01*
X0322864Y0130657D01*
X0322827Y0130805D01*
X0322793Y0130955D01*
X0322763Y0131106D01*
X0322738Y0131257D01*
X0322716Y0131408D01*
X0322698Y0131561D01*
X0322684Y0131713D01*
X0322674Y0131866D01*
X0322668Y0132020D01*
X0322666Y0132173D01*
X0130146Y0025874D02*
X0130148Y0026022D01*
X0130154Y0026170D01*
X0130164Y0026318D01*
X0130178Y0026465D01*
X0130196Y0026612D01*
X0130217Y0026758D01*
X0130243Y0026904D01*
X0130273Y0027049D01*
X0130306Y0027193D01*
X0130344Y0027336D01*
X0130385Y0027478D01*
X0130430Y0027619D01*
X0130478Y0027759D01*
X0130531Y0027898D01*
X0130587Y0028035D01*
X0130647Y0028170D01*
X0130710Y0028304D01*
X0130777Y0028436D01*
X0130848Y0028566D01*
X0130922Y0028694D01*
X0130999Y0028820D01*
X0131080Y0028944D01*
X0131164Y0029066D01*
X0131251Y0029185D01*
X0131342Y0029302D01*
X0131436Y0029417D01*
X0131532Y0029529D01*
X0131632Y0029639D01*
X0131734Y0029745D01*
X0131840Y0029849D01*
X0131948Y0029950D01*
X0132059Y0030048D01*
X0132172Y0030144D01*
X0132288Y0030236D01*
X0132406Y0030325D01*
X0132527Y0030410D01*
X0132650Y0030493D01*
X0132775Y0030572D01*
X0132902Y0030648D01*
X0133031Y0030720D01*
X0133162Y0030789D01*
X0133295Y0030854D01*
X0133430Y0030915D01*
X0133566Y0030973D01*
X0133703Y0031028D01*
X0133842Y0031078D01*
X0133983Y0031125D01*
X0134124Y0031168D01*
X0134267Y0031208D01*
X0134411Y0031243D01*
X0134555Y0031275D01*
X0134701Y0031302D01*
X0134847Y0031326D01*
X0134994Y0031346D01*
X0135141Y0031362D01*
X0135288Y0031374D01*
X0135436Y0031382D01*
X0135584Y0031386D01*
X0135732Y0031386D01*
X0135880Y0031382D01*
X0136028Y0031374D01*
X0136175Y0031362D01*
X0136322Y0031346D01*
X0136469Y0031326D01*
X0136615Y0031302D01*
X0136761Y0031275D01*
X0136905Y0031243D01*
X0137049Y0031208D01*
X0137192Y0031168D01*
X0137333Y0031125D01*
X0137474Y0031078D01*
X0137613Y0031028D01*
X0137750Y0030973D01*
X0137886Y0030915D01*
X0138021Y0030854D01*
X0138154Y0030789D01*
X0138285Y0030720D01*
X0138414Y0030648D01*
X0138541Y0030572D01*
X0138666Y0030493D01*
X0138789Y0030410D01*
X0138910Y0030325D01*
X0139028Y0030236D01*
X0139144Y0030144D01*
X0139257Y0030048D01*
X0139368Y0029950D01*
X0139476Y0029849D01*
X0139582Y0029745D01*
X0139684Y0029639D01*
X0139784Y0029529D01*
X0139880Y0029417D01*
X0139974Y0029302D01*
X0140065Y0029185D01*
X0140152Y0029066D01*
X0140236Y0028944D01*
X0140317Y0028820D01*
X0140394Y0028694D01*
X0140468Y0028566D01*
X0140539Y0028436D01*
X0140606Y0028304D01*
X0140669Y0028170D01*
X0140729Y0028035D01*
X0140785Y0027898D01*
X0140838Y0027759D01*
X0140886Y0027619D01*
X0140931Y0027478D01*
X0140972Y0027336D01*
X0141010Y0027193D01*
X0141043Y0027049D01*
X0141073Y0026904D01*
X0141099Y0026758D01*
X0141120Y0026612D01*
X0141138Y0026465D01*
X0141152Y0026318D01*
X0141162Y0026170D01*
X0141168Y0026022D01*
X0141170Y0025874D01*
X0141168Y0025726D01*
X0141162Y0025578D01*
X0141152Y0025430D01*
X0141138Y0025283D01*
X0141120Y0025136D01*
X0141099Y0024990D01*
X0141073Y0024844D01*
X0141043Y0024699D01*
X0141010Y0024555D01*
X0140972Y0024412D01*
X0140931Y0024270D01*
X0140886Y0024129D01*
X0140838Y0023989D01*
X0140785Y0023850D01*
X0140729Y0023713D01*
X0140669Y0023578D01*
X0140606Y0023444D01*
X0140539Y0023312D01*
X0140468Y0023182D01*
X0140394Y0023054D01*
X0140317Y0022928D01*
X0140236Y0022804D01*
X0140152Y0022682D01*
X0140065Y0022563D01*
X0139974Y0022446D01*
X0139880Y0022331D01*
X0139784Y0022219D01*
X0139684Y0022109D01*
X0139582Y0022003D01*
X0139476Y0021899D01*
X0139368Y0021798D01*
X0139257Y0021700D01*
X0139144Y0021604D01*
X0139028Y0021512D01*
X0138910Y0021423D01*
X0138789Y0021338D01*
X0138666Y0021255D01*
X0138541Y0021176D01*
X0138414Y0021100D01*
X0138285Y0021028D01*
X0138154Y0020959D01*
X0138021Y0020894D01*
X0137886Y0020833D01*
X0137750Y0020775D01*
X0137613Y0020720D01*
X0137474Y0020670D01*
X0137333Y0020623D01*
X0137192Y0020580D01*
X0137049Y0020540D01*
X0136905Y0020505D01*
X0136761Y0020473D01*
X0136615Y0020446D01*
X0136469Y0020422D01*
X0136322Y0020402D01*
X0136175Y0020386D01*
X0136028Y0020374D01*
X0135880Y0020366D01*
X0135732Y0020362D01*
X0135584Y0020362D01*
X0135436Y0020366D01*
X0135288Y0020374D01*
X0135141Y0020386D01*
X0134994Y0020402D01*
X0134847Y0020422D01*
X0134701Y0020446D01*
X0134555Y0020473D01*
X0134411Y0020505D01*
X0134267Y0020540D01*
X0134124Y0020580D01*
X0133983Y0020623D01*
X0133842Y0020670D01*
X0133703Y0020720D01*
X0133566Y0020775D01*
X0133430Y0020833D01*
X0133295Y0020894D01*
X0133162Y0020959D01*
X0133031Y0021028D01*
X0132902Y0021100D01*
X0132775Y0021176D01*
X0132650Y0021255D01*
X0132527Y0021338D01*
X0132406Y0021423D01*
X0132288Y0021512D01*
X0132172Y0021604D01*
X0132059Y0021700D01*
X0131948Y0021798D01*
X0131840Y0021899D01*
X0131734Y0022003D01*
X0131632Y0022109D01*
X0131532Y0022219D01*
X0131436Y0022331D01*
X0131342Y0022446D01*
X0131251Y0022563D01*
X0131164Y0022682D01*
X0131080Y0022804D01*
X0130999Y0022928D01*
X0130922Y0023054D01*
X0130848Y0023182D01*
X0130777Y0023312D01*
X0130710Y0023444D01*
X0130647Y0023578D01*
X0130587Y0023713D01*
X0130531Y0023850D01*
X0130478Y0023989D01*
X0130430Y0024129D01*
X0130385Y0024270D01*
X0130344Y0024412D01*
X0130306Y0024555D01*
X0130273Y0024699D01*
X0130243Y0024844D01*
X0130217Y0024990D01*
X0130196Y0025136D01*
X0130178Y0025283D01*
X0130164Y0025430D01*
X0130154Y0025578D01*
X0130148Y0025726D01*
X0130146Y0025874D01*
X0129158Y0025181D02*
X0129160Y0025342D01*
X0129166Y0025502D01*
X0129176Y0025663D01*
X0129190Y0025823D01*
X0129208Y0025983D01*
X0129229Y0026142D01*
X0129255Y0026301D01*
X0129285Y0026459D01*
X0129318Y0026616D01*
X0129356Y0026773D01*
X0129397Y0026928D01*
X0129442Y0027082D01*
X0129491Y0027235D01*
X0129544Y0027387D01*
X0129600Y0027538D01*
X0129661Y0027687D01*
X0129724Y0027835D01*
X0129792Y0027981D01*
X0129863Y0028125D01*
X0129937Y0028267D01*
X0130015Y0028408D01*
X0130097Y0028546D01*
X0130182Y0028683D01*
X0130270Y0028817D01*
X0130362Y0028949D01*
X0130457Y0029079D01*
X0130555Y0029207D01*
X0130656Y0029332D01*
X0130760Y0029454D01*
X0130867Y0029574D01*
X0130977Y0029691D01*
X0131090Y0029806D01*
X0131206Y0029917D01*
X0131325Y0030026D01*
X0131446Y0030131D01*
X0131570Y0030234D01*
X0131696Y0030334D01*
X0131824Y0030430D01*
X0131955Y0030523D01*
X0132089Y0030613D01*
X0132224Y0030700D01*
X0132362Y0030783D01*
X0132501Y0030863D01*
X0132643Y0030939D01*
X0132786Y0031012D01*
X0132931Y0031081D01*
X0133078Y0031147D01*
X0133226Y0031209D01*
X0133376Y0031267D01*
X0133527Y0031322D01*
X0133680Y0031373D01*
X0133834Y0031420D01*
X0133989Y0031463D01*
X0134145Y0031502D01*
X0134301Y0031538D01*
X0134459Y0031569D01*
X0134617Y0031597D01*
X0134776Y0031621D01*
X0134936Y0031641D01*
X0135096Y0031657D01*
X0135256Y0031669D01*
X0135417Y0031677D01*
X0135578Y0031681D01*
X0135738Y0031681D01*
X0135899Y0031677D01*
X0136060Y0031669D01*
X0136220Y0031657D01*
X0136380Y0031641D01*
X0136540Y0031621D01*
X0136699Y0031597D01*
X0136857Y0031569D01*
X0137015Y0031538D01*
X0137171Y0031502D01*
X0137327Y0031463D01*
X0137482Y0031420D01*
X0137636Y0031373D01*
X0137789Y0031322D01*
X0137940Y0031267D01*
X0138090Y0031209D01*
X0138238Y0031147D01*
X0138385Y0031081D01*
X0138530Y0031012D01*
X0138673Y0030939D01*
X0138815Y0030863D01*
X0138954Y0030783D01*
X0139092Y0030700D01*
X0139227Y0030613D01*
X0139361Y0030523D01*
X0139492Y0030430D01*
X0139620Y0030334D01*
X0139746Y0030234D01*
X0139870Y0030131D01*
X0139991Y0030026D01*
X0140110Y0029917D01*
X0140226Y0029806D01*
X0140339Y0029691D01*
X0140449Y0029574D01*
X0140556Y0029454D01*
X0140660Y0029332D01*
X0140761Y0029207D01*
X0140859Y0029079D01*
X0140954Y0028949D01*
X0141046Y0028817D01*
X0141134Y0028683D01*
X0141219Y0028546D01*
X0141301Y0028408D01*
X0141379Y0028267D01*
X0141453Y0028125D01*
X0141524Y0027981D01*
X0141592Y0027835D01*
X0141655Y0027687D01*
X0141716Y0027538D01*
X0141772Y0027387D01*
X0141825Y0027235D01*
X0141874Y0027082D01*
X0141919Y0026928D01*
X0141960Y0026773D01*
X0141998Y0026616D01*
X0142031Y0026459D01*
X0142061Y0026301D01*
X0142087Y0026142D01*
X0142108Y0025983D01*
X0142126Y0025823D01*
X0142140Y0025663D01*
X0142150Y0025502D01*
X0142156Y0025342D01*
X0142158Y0025181D01*
X0142156Y0025020D01*
X0142150Y0024860D01*
X0142140Y0024699D01*
X0142126Y0024539D01*
X0142108Y0024379D01*
X0142087Y0024220D01*
X0142061Y0024061D01*
X0142031Y0023903D01*
X0141998Y0023746D01*
X0141960Y0023589D01*
X0141919Y0023434D01*
X0141874Y0023280D01*
X0141825Y0023127D01*
X0141772Y0022975D01*
X0141716Y0022824D01*
X0141655Y0022675D01*
X0141592Y0022527D01*
X0141524Y0022381D01*
X0141453Y0022237D01*
X0141379Y0022095D01*
X0141301Y0021954D01*
X0141219Y0021816D01*
X0141134Y0021679D01*
X0141046Y0021545D01*
X0140954Y0021413D01*
X0140859Y0021283D01*
X0140761Y0021155D01*
X0140660Y0021030D01*
X0140556Y0020908D01*
X0140449Y0020788D01*
X0140339Y0020671D01*
X0140226Y0020556D01*
X0140110Y0020445D01*
X0139991Y0020336D01*
X0139870Y0020231D01*
X0139746Y0020128D01*
X0139620Y0020028D01*
X0139492Y0019932D01*
X0139361Y0019839D01*
X0139227Y0019749D01*
X0139092Y0019662D01*
X0138954Y0019579D01*
X0138815Y0019499D01*
X0138673Y0019423D01*
X0138530Y0019350D01*
X0138385Y0019281D01*
X0138238Y0019215D01*
X0138090Y0019153D01*
X0137940Y0019095D01*
X0137789Y0019040D01*
X0137636Y0018989D01*
X0137482Y0018942D01*
X0137327Y0018899D01*
X0137171Y0018860D01*
X0137015Y0018824D01*
X0136857Y0018793D01*
X0136699Y0018765D01*
X0136540Y0018741D01*
X0136380Y0018721D01*
X0136220Y0018705D01*
X0136060Y0018693D01*
X0135899Y0018685D01*
X0135738Y0018681D01*
X0135578Y0018681D01*
X0135417Y0018685D01*
X0135256Y0018693D01*
X0135096Y0018705D01*
X0134936Y0018721D01*
X0134776Y0018741D01*
X0134617Y0018765D01*
X0134459Y0018793D01*
X0134301Y0018824D01*
X0134145Y0018860D01*
X0133989Y0018899D01*
X0133834Y0018942D01*
X0133680Y0018989D01*
X0133527Y0019040D01*
X0133376Y0019095D01*
X0133226Y0019153D01*
X0133078Y0019215D01*
X0132931Y0019281D01*
X0132786Y0019350D01*
X0132643Y0019423D01*
X0132501Y0019499D01*
X0132362Y0019579D01*
X0132224Y0019662D01*
X0132089Y0019749D01*
X0131955Y0019839D01*
X0131824Y0019932D01*
X0131696Y0020028D01*
X0131570Y0020128D01*
X0131446Y0020231D01*
X0131325Y0020336D01*
X0131206Y0020445D01*
X0131090Y0020556D01*
X0130977Y0020671D01*
X0130867Y0020788D01*
X0130760Y0020908D01*
X0130656Y0021030D01*
X0130555Y0021155D01*
X0130457Y0021283D01*
X0130362Y0021413D01*
X0130270Y0021545D01*
X0130182Y0021679D01*
X0130097Y0021816D01*
X0130015Y0021954D01*
X0129937Y0022095D01*
X0129863Y0022237D01*
X0129792Y0022381D01*
X0129724Y0022527D01*
X0129661Y0022675D01*
X0129600Y0022824D01*
X0129544Y0022975D01*
X0129491Y0023127D01*
X0129442Y0023280D01*
X0129397Y0023434D01*
X0129356Y0023589D01*
X0129318Y0023746D01*
X0129285Y0023903D01*
X0129255Y0024061D01*
X0129229Y0024220D01*
X0129208Y0024379D01*
X0129190Y0024539D01*
X0129176Y0024699D01*
X0129166Y0024860D01*
X0129160Y0025020D01*
X0129158Y0025181D01*
X0075028Y0025874D02*
X0075030Y0026022D01*
X0075036Y0026170D01*
X0075046Y0026318D01*
X0075060Y0026465D01*
X0075078Y0026612D01*
X0075099Y0026758D01*
X0075125Y0026904D01*
X0075155Y0027049D01*
X0075188Y0027193D01*
X0075226Y0027336D01*
X0075267Y0027478D01*
X0075312Y0027619D01*
X0075360Y0027759D01*
X0075413Y0027898D01*
X0075469Y0028035D01*
X0075529Y0028170D01*
X0075592Y0028304D01*
X0075659Y0028436D01*
X0075730Y0028566D01*
X0075804Y0028694D01*
X0075881Y0028820D01*
X0075962Y0028944D01*
X0076046Y0029066D01*
X0076133Y0029185D01*
X0076224Y0029302D01*
X0076318Y0029417D01*
X0076414Y0029529D01*
X0076514Y0029639D01*
X0076616Y0029745D01*
X0076722Y0029849D01*
X0076830Y0029950D01*
X0076941Y0030048D01*
X0077054Y0030144D01*
X0077170Y0030236D01*
X0077288Y0030325D01*
X0077409Y0030410D01*
X0077532Y0030493D01*
X0077657Y0030572D01*
X0077784Y0030648D01*
X0077913Y0030720D01*
X0078044Y0030789D01*
X0078177Y0030854D01*
X0078312Y0030915D01*
X0078448Y0030973D01*
X0078585Y0031028D01*
X0078724Y0031078D01*
X0078865Y0031125D01*
X0079006Y0031168D01*
X0079149Y0031208D01*
X0079293Y0031243D01*
X0079437Y0031275D01*
X0079583Y0031302D01*
X0079729Y0031326D01*
X0079876Y0031346D01*
X0080023Y0031362D01*
X0080170Y0031374D01*
X0080318Y0031382D01*
X0080466Y0031386D01*
X0080614Y0031386D01*
X0080762Y0031382D01*
X0080910Y0031374D01*
X0081057Y0031362D01*
X0081204Y0031346D01*
X0081351Y0031326D01*
X0081497Y0031302D01*
X0081643Y0031275D01*
X0081787Y0031243D01*
X0081931Y0031208D01*
X0082074Y0031168D01*
X0082215Y0031125D01*
X0082356Y0031078D01*
X0082495Y0031028D01*
X0082632Y0030973D01*
X0082768Y0030915D01*
X0082903Y0030854D01*
X0083036Y0030789D01*
X0083167Y0030720D01*
X0083296Y0030648D01*
X0083423Y0030572D01*
X0083548Y0030493D01*
X0083671Y0030410D01*
X0083792Y0030325D01*
X0083910Y0030236D01*
X0084026Y0030144D01*
X0084139Y0030048D01*
X0084250Y0029950D01*
X0084358Y0029849D01*
X0084464Y0029745D01*
X0084566Y0029639D01*
X0084666Y0029529D01*
X0084762Y0029417D01*
X0084856Y0029302D01*
X0084947Y0029185D01*
X0085034Y0029066D01*
X0085118Y0028944D01*
X0085199Y0028820D01*
X0085276Y0028694D01*
X0085350Y0028566D01*
X0085421Y0028436D01*
X0085488Y0028304D01*
X0085551Y0028170D01*
X0085611Y0028035D01*
X0085667Y0027898D01*
X0085720Y0027759D01*
X0085768Y0027619D01*
X0085813Y0027478D01*
X0085854Y0027336D01*
X0085892Y0027193D01*
X0085925Y0027049D01*
X0085955Y0026904D01*
X0085981Y0026758D01*
X0086002Y0026612D01*
X0086020Y0026465D01*
X0086034Y0026318D01*
X0086044Y0026170D01*
X0086050Y0026022D01*
X0086052Y0025874D01*
X0086050Y0025726D01*
X0086044Y0025578D01*
X0086034Y0025430D01*
X0086020Y0025283D01*
X0086002Y0025136D01*
X0085981Y0024990D01*
X0085955Y0024844D01*
X0085925Y0024699D01*
X0085892Y0024555D01*
X0085854Y0024412D01*
X0085813Y0024270D01*
X0085768Y0024129D01*
X0085720Y0023989D01*
X0085667Y0023850D01*
X0085611Y0023713D01*
X0085551Y0023578D01*
X0085488Y0023444D01*
X0085421Y0023312D01*
X0085350Y0023182D01*
X0085276Y0023054D01*
X0085199Y0022928D01*
X0085118Y0022804D01*
X0085034Y0022682D01*
X0084947Y0022563D01*
X0084856Y0022446D01*
X0084762Y0022331D01*
X0084666Y0022219D01*
X0084566Y0022109D01*
X0084464Y0022003D01*
X0084358Y0021899D01*
X0084250Y0021798D01*
X0084139Y0021700D01*
X0084026Y0021604D01*
X0083910Y0021512D01*
X0083792Y0021423D01*
X0083671Y0021338D01*
X0083548Y0021255D01*
X0083423Y0021176D01*
X0083296Y0021100D01*
X0083167Y0021028D01*
X0083036Y0020959D01*
X0082903Y0020894D01*
X0082768Y0020833D01*
X0082632Y0020775D01*
X0082495Y0020720D01*
X0082356Y0020670D01*
X0082215Y0020623D01*
X0082074Y0020580D01*
X0081931Y0020540D01*
X0081787Y0020505D01*
X0081643Y0020473D01*
X0081497Y0020446D01*
X0081351Y0020422D01*
X0081204Y0020402D01*
X0081057Y0020386D01*
X0080910Y0020374D01*
X0080762Y0020366D01*
X0080614Y0020362D01*
X0080466Y0020362D01*
X0080318Y0020366D01*
X0080170Y0020374D01*
X0080023Y0020386D01*
X0079876Y0020402D01*
X0079729Y0020422D01*
X0079583Y0020446D01*
X0079437Y0020473D01*
X0079293Y0020505D01*
X0079149Y0020540D01*
X0079006Y0020580D01*
X0078865Y0020623D01*
X0078724Y0020670D01*
X0078585Y0020720D01*
X0078448Y0020775D01*
X0078312Y0020833D01*
X0078177Y0020894D01*
X0078044Y0020959D01*
X0077913Y0021028D01*
X0077784Y0021100D01*
X0077657Y0021176D01*
X0077532Y0021255D01*
X0077409Y0021338D01*
X0077288Y0021423D01*
X0077170Y0021512D01*
X0077054Y0021604D01*
X0076941Y0021700D01*
X0076830Y0021798D01*
X0076722Y0021899D01*
X0076616Y0022003D01*
X0076514Y0022109D01*
X0076414Y0022219D01*
X0076318Y0022331D01*
X0076224Y0022446D01*
X0076133Y0022563D01*
X0076046Y0022682D01*
X0075962Y0022804D01*
X0075881Y0022928D01*
X0075804Y0023054D01*
X0075730Y0023182D01*
X0075659Y0023312D01*
X0075592Y0023444D01*
X0075529Y0023578D01*
X0075469Y0023713D01*
X0075413Y0023850D01*
X0075360Y0023989D01*
X0075312Y0024129D01*
X0075267Y0024270D01*
X0075226Y0024412D01*
X0075188Y0024555D01*
X0075155Y0024699D01*
X0075125Y0024844D01*
X0075099Y0024990D01*
X0075078Y0025136D01*
X0075060Y0025283D01*
X0075046Y0025430D01*
X0075036Y0025578D01*
X0075030Y0025726D01*
X0075028Y0025874D01*
X0074040Y0026559D02*
X0074042Y0026720D01*
X0074048Y0026880D01*
X0074058Y0027041D01*
X0074072Y0027201D01*
X0074090Y0027361D01*
X0074111Y0027520D01*
X0074137Y0027679D01*
X0074167Y0027837D01*
X0074200Y0027994D01*
X0074238Y0028151D01*
X0074279Y0028306D01*
X0074324Y0028460D01*
X0074373Y0028613D01*
X0074426Y0028765D01*
X0074482Y0028916D01*
X0074543Y0029065D01*
X0074606Y0029213D01*
X0074674Y0029359D01*
X0074745Y0029503D01*
X0074819Y0029645D01*
X0074897Y0029786D01*
X0074979Y0029924D01*
X0075064Y0030061D01*
X0075152Y0030195D01*
X0075244Y0030327D01*
X0075339Y0030457D01*
X0075437Y0030585D01*
X0075538Y0030710D01*
X0075642Y0030832D01*
X0075749Y0030952D01*
X0075859Y0031069D01*
X0075972Y0031184D01*
X0076088Y0031295D01*
X0076207Y0031404D01*
X0076328Y0031509D01*
X0076452Y0031612D01*
X0076578Y0031712D01*
X0076706Y0031808D01*
X0076837Y0031901D01*
X0076971Y0031991D01*
X0077106Y0032078D01*
X0077244Y0032161D01*
X0077383Y0032241D01*
X0077525Y0032317D01*
X0077668Y0032390D01*
X0077813Y0032459D01*
X0077960Y0032525D01*
X0078108Y0032587D01*
X0078258Y0032645D01*
X0078409Y0032700D01*
X0078562Y0032751D01*
X0078716Y0032798D01*
X0078871Y0032841D01*
X0079027Y0032880D01*
X0079183Y0032916D01*
X0079341Y0032947D01*
X0079499Y0032975D01*
X0079658Y0032999D01*
X0079818Y0033019D01*
X0079978Y0033035D01*
X0080138Y0033047D01*
X0080299Y0033055D01*
X0080460Y0033059D01*
X0080620Y0033059D01*
X0080781Y0033055D01*
X0080942Y0033047D01*
X0081102Y0033035D01*
X0081262Y0033019D01*
X0081422Y0032999D01*
X0081581Y0032975D01*
X0081739Y0032947D01*
X0081897Y0032916D01*
X0082053Y0032880D01*
X0082209Y0032841D01*
X0082364Y0032798D01*
X0082518Y0032751D01*
X0082671Y0032700D01*
X0082822Y0032645D01*
X0082972Y0032587D01*
X0083120Y0032525D01*
X0083267Y0032459D01*
X0083412Y0032390D01*
X0083555Y0032317D01*
X0083697Y0032241D01*
X0083836Y0032161D01*
X0083974Y0032078D01*
X0084109Y0031991D01*
X0084243Y0031901D01*
X0084374Y0031808D01*
X0084502Y0031712D01*
X0084628Y0031612D01*
X0084752Y0031509D01*
X0084873Y0031404D01*
X0084992Y0031295D01*
X0085108Y0031184D01*
X0085221Y0031069D01*
X0085331Y0030952D01*
X0085438Y0030832D01*
X0085542Y0030710D01*
X0085643Y0030585D01*
X0085741Y0030457D01*
X0085836Y0030327D01*
X0085928Y0030195D01*
X0086016Y0030061D01*
X0086101Y0029924D01*
X0086183Y0029786D01*
X0086261Y0029645D01*
X0086335Y0029503D01*
X0086406Y0029359D01*
X0086474Y0029213D01*
X0086537Y0029065D01*
X0086598Y0028916D01*
X0086654Y0028765D01*
X0086707Y0028613D01*
X0086756Y0028460D01*
X0086801Y0028306D01*
X0086842Y0028151D01*
X0086880Y0027994D01*
X0086913Y0027837D01*
X0086943Y0027679D01*
X0086969Y0027520D01*
X0086990Y0027361D01*
X0087008Y0027201D01*
X0087022Y0027041D01*
X0087032Y0026880D01*
X0087038Y0026720D01*
X0087040Y0026559D01*
X0087038Y0026398D01*
X0087032Y0026238D01*
X0087022Y0026077D01*
X0087008Y0025917D01*
X0086990Y0025757D01*
X0086969Y0025598D01*
X0086943Y0025439D01*
X0086913Y0025281D01*
X0086880Y0025124D01*
X0086842Y0024967D01*
X0086801Y0024812D01*
X0086756Y0024658D01*
X0086707Y0024505D01*
X0086654Y0024353D01*
X0086598Y0024202D01*
X0086537Y0024053D01*
X0086474Y0023905D01*
X0086406Y0023759D01*
X0086335Y0023615D01*
X0086261Y0023473D01*
X0086183Y0023332D01*
X0086101Y0023194D01*
X0086016Y0023057D01*
X0085928Y0022923D01*
X0085836Y0022791D01*
X0085741Y0022661D01*
X0085643Y0022533D01*
X0085542Y0022408D01*
X0085438Y0022286D01*
X0085331Y0022166D01*
X0085221Y0022049D01*
X0085108Y0021934D01*
X0084992Y0021823D01*
X0084873Y0021714D01*
X0084752Y0021609D01*
X0084628Y0021506D01*
X0084502Y0021406D01*
X0084374Y0021310D01*
X0084243Y0021217D01*
X0084109Y0021127D01*
X0083974Y0021040D01*
X0083836Y0020957D01*
X0083697Y0020877D01*
X0083555Y0020801D01*
X0083412Y0020728D01*
X0083267Y0020659D01*
X0083120Y0020593D01*
X0082972Y0020531D01*
X0082822Y0020473D01*
X0082671Y0020418D01*
X0082518Y0020367D01*
X0082364Y0020320D01*
X0082209Y0020277D01*
X0082053Y0020238D01*
X0081897Y0020202D01*
X0081739Y0020171D01*
X0081581Y0020143D01*
X0081422Y0020119D01*
X0081262Y0020099D01*
X0081102Y0020083D01*
X0080942Y0020071D01*
X0080781Y0020063D01*
X0080620Y0020059D01*
X0080460Y0020059D01*
X0080299Y0020063D01*
X0080138Y0020071D01*
X0079978Y0020083D01*
X0079818Y0020099D01*
X0079658Y0020119D01*
X0079499Y0020143D01*
X0079341Y0020171D01*
X0079183Y0020202D01*
X0079027Y0020238D01*
X0078871Y0020277D01*
X0078716Y0020320D01*
X0078562Y0020367D01*
X0078409Y0020418D01*
X0078258Y0020473D01*
X0078108Y0020531D01*
X0077960Y0020593D01*
X0077813Y0020659D01*
X0077668Y0020728D01*
X0077525Y0020801D01*
X0077383Y0020877D01*
X0077244Y0020957D01*
X0077106Y0021040D01*
X0076971Y0021127D01*
X0076837Y0021217D01*
X0076706Y0021310D01*
X0076578Y0021406D01*
X0076452Y0021506D01*
X0076328Y0021609D01*
X0076207Y0021714D01*
X0076088Y0021823D01*
X0075972Y0021934D01*
X0075859Y0022049D01*
X0075749Y0022166D01*
X0075642Y0022286D01*
X0075538Y0022408D01*
X0075437Y0022533D01*
X0075339Y0022661D01*
X0075244Y0022791D01*
X0075152Y0022923D01*
X0075064Y0023057D01*
X0074979Y0023194D01*
X0074897Y0023332D01*
X0074819Y0023473D01*
X0074745Y0023615D01*
X0074674Y0023759D01*
X0074606Y0023905D01*
X0074543Y0024053D01*
X0074482Y0024202D01*
X0074426Y0024353D01*
X0074373Y0024505D01*
X0074324Y0024658D01*
X0074279Y0024812D01*
X0074238Y0024967D01*
X0074200Y0025124D01*
X0074167Y0025281D01*
X0074137Y0025439D01*
X0074111Y0025598D01*
X0074090Y0025757D01*
X0074072Y0025917D01*
X0074058Y0026077D01*
X0074048Y0026238D01*
X0074042Y0026398D01*
X0074040Y0026559D01*
X0322666Y0018000D02*
X0322668Y0018153D01*
X0322674Y0018307D01*
X0322684Y0018460D01*
X0322698Y0018612D01*
X0322716Y0018765D01*
X0322738Y0018916D01*
X0322763Y0019067D01*
X0322793Y0019218D01*
X0322827Y0019368D01*
X0322864Y0019516D01*
X0322905Y0019664D01*
X0322950Y0019810D01*
X0322999Y0019956D01*
X0323052Y0020100D01*
X0323108Y0020242D01*
X0323168Y0020383D01*
X0323232Y0020523D01*
X0323299Y0020661D01*
X0323370Y0020797D01*
X0323445Y0020931D01*
X0323522Y0021063D01*
X0323604Y0021193D01*
X0323688Y0021321D01*
X0323776Y0021447D01*
X0323867Y0021570D01*
X0323961Y0021691D01*
X0324059Y0021809D01*
X0324159Y0021925D01*
X0324263Y0022038D01*
X0324369Y0022149D01*
X0324478Y0022257D01*
X0324590Y0022362D01*
X0324704Y0022463D01*
X0324822Y0022562D01*
X0324941Y0022658D01*
X0325063Y0022751D01*
X0325188Y0022840D01*
X0325315Y0022927D01*
X0325444Y0023009D01*
X0325575Y0023089D01*
X0325708Y0023165D01*
X0325843Y0023238D01*
X0325980Y0023307D01*
X0326119Y0023372D01*
X0326259Y0023434D01*
X0326401Y0023492D01*
X0326544Y0023547D01*
X0326689Y0023598D01*
X0326835Y0023645D01*
X0326982Y0023688D01*
X0327130Y0023727D01*
X0327279Y0023763D01*
X0327429Y0023794D01*
X0327580Y0023822D01*
X0327731Y0023846D01*
X0327884Y0023866D01*
X0328036Y0023882D01*
X0328189Y0023894D01*
X0328342Y0023902D01*
X0328495Y0023906D01*
X0328649Y0023906D01*
X0328802Y0023902D01*
X0328955Y0023894D01*
X0329108Y0023882D01*
X0329260Y0023866D01*
X0329413Y0023846D01*
X0329564Y0023822D01*
X0329715Y0023794D01*
X0329865Y0023763D01*
X0330014Y0023727D01*
X0330162Y0023688D01*
X0330309Y0023645D01*
X0330455Y0023598D01*
X0330600Y0023547D01*
X0330743Y0023492D01*
X0330885Y0023434D01*
X0331025Y0023372D01*
X0331164Y0023307D01*
X0331301Y0023238D01*
X0331436Y0023165D01*
X0331569Y0023089D01*
X0331700Y0023009D01*
X0331829Y0022927D01*
X0331956Y0022840D01*
X0332081Y0022751D01*
X0332203Y0022658D01*
X0332322Y0022562D01*
X0332440Y0022463D01*
X0332554Y0022362D01*
X0332666Y0022257D01*
X0332775Y0022149D01*
X0332881Y0022038D01*
X0332985Y0021925D01*
X0333085Y0021809D01*
X0333183Y0021691D01*
X0333277Y0021570D01*
X0333368Y0021447D01*
X0333456Y0021321D01*
X0333540Y0021193D01*
X0333622Y0021063D01*
X0333699Y0020931D01*
X0333774Y0020797D01*
X0333845Y0020661D01*
X0333912Y0020523D01*
X0333976Y0020383D01*
X0334036Y0020242D01*
X0334092Y0020100D01*
X0334145Y0019956D01*
X0334194Y0019810D01*
X0334239Y0019664D01*
X0334280Y0019516D01*
X0334317Y0019368D01*
X0334351Y0019218D01*
X0334381Y0019067D01*
X0334406Y0018916D01*
X0334428Y0018765D01*
X0334446Y0018612D01*
X0334460Y0018460D01*
X0334470Y0018307D01*
X0334476Y0018153D01*
X0334478Y0018000D01*
X0334476Y0017847D01*
X0334470Y0017693D01*
X0334460Y0017540D01*
X0334446Y0017388D01*
X0334428Y0017235D01*
X0334406Y0017084D01*
X0334381Y0016933D01*
X0334351Y0016782D01*
X0334317Y0016632D01*
X0334280Y0016484D01*
X0334239Y0016336D01*
X0334194Y0016190D01*
X0334145Y0016044D01*
X0334092Y0015900D01*
X0334036Y0015758D01*
X0333976Y0015617D01*
X0333912Y0015477D01*
X0333845Y0015339D01*
X0333774Y0015203D01*
X0333699Y0015069D01*
X0333622Y0014937D01*
X0333540Y0014807D01*
X0333456Y0014679D01*
X0333368Y0014553D01*
X0333277Y0014430D01*
X0333183Y0014309D01*
X0333085Y0014191D01*
X0332985Y0014075D01*
X0332881Y0013962D01*
X0332775Y0013851D01*
X0332666Y0013743D01*
X0332554Y0013638D01*
X0332440Y0013537D01*
X0332322Y0013438D01*
X0332203Y0013342D01*
X0332081Y0013249D01*
X0331956Y0013160D01*
X0331829Y0013073D01*
X0331700Y0012991D01*
X0331569Y0012911D01*
X0331436Y0012835D01*
X0331301Y0012762D01*
X0331164Y0012693D01*
X0331025Y0012628D01*
X0330885Y0012566D01*
X0330743Y0012508D01*
X0330600Y0012453D01*
X0330455Y0012402D01*
X0330309Y0012355D01*
X0330162Y0012312D01*
X0330014Y0012273D01*
X0329865Y0012237D01*
X0329715Y0012206D01*
X0329564Y0012178D01*
X0329413Y0012154D01*
X0329260Y0012134D01*
X0329108Y0012118D01*
X0328955Y0012106D01*
X0328802Y0012098D01*
X0328649Y0012094D01*
X0328495Y0012094D01*
X0328342Y0012098D01*
X0328189Y0012106D01*
X0328036Y0012118D01*
X0327884Y0012134D01*
X0327731Y0012154D01*
X0327580Y0012178D01*
X0327429Y0012206D01*
X0327279Y0012237D01*
X0327130Y0012273D01*
X0326982Y0012312D01*
X0326835Y0012355D01*
X0326689Y0012402D01*
X0326544Y0012453D01*
X0326401Y0012508D01*
X0326259Y0012566D01*
X0326119Y0012628D01*
X0325980Y0012693D01*
X0325843Y0012762D01*
X0325708Y0012835D01*
X0325575Y0012911D01*
X0325444Y0012991D01*
X0325315Y0013073D01*
X0325188Y0013160D01*
X0325063Y0013249D01*
X0324941Y0013342D01*
X0324822Y0013438D01*
X0324704Y0013537D01*
X0324590Y0013638D01*
X0324478Y0013743D01*
X0324369Y0013851D01*
X0324263Y0013962D01*
X0324159Y0014075D01*
X0324059Y0014191D01*
X0323961Y0014309D01*
X0323867Y0014430D01*
X0323776Y0014553D01*
X0323688Y0014679D01*
X0323604Y0014807D01*
X0323522Y0014937D01*
X0323445Y0015069D01*
X0323370Y0015203D01*
X0323299Y0015339D01*
X0323232Y0015477D01*
X0323168Y0015617D01*
X0323108Y0015758D01*
X0323052Y0015900D01*
X0322999Y0016044D01*
X0322950Y0016190D01*
X0322905Y0016336D01*
X0322864Y0016484D01*
X0322827Y0016632D01*
X0322793Y0016782D01*
X0322763Y0016933D01*
X0322738Y0017084D01*
X0322716Y0017235D01*
X0322698Y0017388D01*
X0322684Y0017540D01*
X0322674Y0017693D01*
X0322668Y0017847D01*
X0322666Y0018000D01*
M02*
