%
M48
M72
T01C0.03150
T02C0.03200
T03C0.04000
T04C0.04400
T05C0.05118
T06C0.11024
T07C0.11811
T08C0.13000
%
T01
X110028Y118512
X94280Y118512
T02
X171091Y54181
X186839Y54181
X186839Y84181
X171091Y84181
X179438Y103291
X179438Y111291
X49280Y109512
X49280Y117512
X312824Y80244
X312824Y50244
T03
X173965Y29811
X183965Y29811
X204005Y40441
X204005Y50441
X204005Y60441
X204005Y70441
X204005Y80441
X204005Y90441
X204005Y100441
X204005Y110441
X294005Y110441
X294005Y100441
X294005Y90441
X294005Y80441
X294005Y70441
X294005Y60441
X294005Y50441
X294005Y40441
X327745Y84142
X327745Y94142
X327745Y104142
T04
X90540Y85559
X80540Y85559
X70540Y85559
X125658Y94181
X135658Y94181
X145658Y94181
T05
X18690Y40165
X18690Y59850
X17509Y91346
X17509Y111031
T06
X80540Y25874
X135658Y25874
T07
X328572Y18000
X328572Y132173
T08
X80540Y26559
X135658Y25181
M30
