G75*
%MOIN*%
%OFA0B0*%
%FSLAX25Y25*%
%IPPOS*%
%LPD*%
%AMOC8*
5,1,8,0,0,1.08239X$1,22.5*
%
%ADD10C,0.01600*%
%ADD11OC8,0.05200*%
%ADD12C,0.05200*%
%ADD13C,0.07400*%
%ADD14R,0.08000X0.08000*%
%ADD15C,0.08000*%
%ADD16C,0.06600*%
%ADD17C,0.07200*%
%ADD18C,0.06600*%
%ADD19C,0.00000*%
%ADD20C,0.01000*%
D10*
X0001800Y0001800D02*
X0001800Y0147469D01*
X0344320Y0147469D01*
X0344320Y0001800D01*
X0001800Y0001800D01*
X0007400Y0007400D02*
X0007400Y0141869D01*
X0318047Y0141869D01*
X0316598Y0140420D01*
X0314496Y0136295D01*
X0314496Y0136295D01*
X0313772Y0131721D01*
X0314496Y0127148D01*
X0314496Y0127148D01*
X0316598Y0123022D01*
X0319872Y0119748D01*
X0319872Y0119748D01*
X0323998Y0117646D01*
X0323998Y0117646D01*
X0328572Y0116921D01*
X0333145Y0117646D01*
X0333145Y0117646D01*
X0337271Y0119748D01*
X0338720Y0121197D01*
X0338720Y0028073D01*
X0337271Y0029521D01*
X0333145Y0031624D01*
X0328572Y0032348D01*
X0328572Y0032348D01*
X0323998Y0031624D01*
X0319872Y0029521D01*
X0316598Y0026247D01*
X0314496Y0022121D01*
X0313772Y0017548D01*
X0314496Y0012975D01*
X0314496Y0012975D01*
X0316598Y0008849D01*
X0316598Y0008849D01*
X0318047Y0007400D01*
X0007400Y0007400D01*
X0007400Y0008194D02*
X0130526Y0008194D01*
X0128981Y0008608D02*
X0133381Y0007429D01*
X0137936Y0007429D01*
X0142336Y0008608D01*
X0146281Y0010886D01*
X0149502Y0014107D01*
X0151779Y0018052D01*
X0152958Y0022452D01*
X0152958Y0027007D01*
X0151779Y0031407D01*
X0149502Y0035352D01*
X0146281Y0038573D01*
X0142336Y0040850D01*
X0137936Y0042029D01*
X0133381Y0042029D01*
X0128981Y0040850D01*
X0125036Y0038573D01*
X0121815Y0035352D01*
X0119537Y0031407D01*
X0118358Y0027007D01*
X0118358Y0022452D01*
X0119537Y0018052D01*
X0121815Y0014107D01*
X0125036Y0010886D01*
X0128981Y0008608D01*
X0126929Y0009793D02*
X0007400Y0009793D01*
X0007400Y0011391D02*
X0075879Y0011391D01*
X0075967Y0011346D02*
X0075967Y0011346D01*
X0080540Y0010622D01*
X0080540Y0010622D01*
X0085114Y0011346D01*
X0089239Y0013449D01*
X0089239Y0013449D01*
X0092514Y0016723D01*
X0094616Y0020849D01*
X0095340Y0025422D01*
X0094616Y0029995D01*
X0094616Y0029995D01*
X0092514Y0034121D01*
X0092514Y0034121D01*
X0089239Y0037395D01*
X0085114Y0039498D01*
X0085114Y0039498D01*
X0080540Y0040222D01*
X0075967Y0039498D01*
X0075967Y0039498D01*
X0071841Y0037395D01*
X0068567Y0034121D01*
X0066465Y0029995D01*
X0065740Y0025422D01*
X0066465Y0020849D01*
X0068567Y0016723D01*
X0071841Y0013449D01*
X0075967Y0011346D01*
X0072742Y0012990D02*
X0007400Y0012990D01*
X0007400Y0014588D02*
X0070701Y0014588D01*
X0071841Y0013449D02*
X0071841Y0013449D01*
X0069103Y0016187D02*
X0007400Y0016187D01*
X0007400Y0017785D02*
X0068025Y0017785D01*
X0068567Y0016723D02*
X0068567Y0016723D01*
X0067211Y0019384D02*
X0007400Y0019384D01*
X0007400Y0020982D02*
X0066443Y0020982D01*
X0066465Y0020849D02*
X0066465Y0020849D01*
X0066190Y0022581D02*
X0007400Y0022581D01*
X0007400Y0024179D02*
X0065937Y0024179D01*
X0065740Y0025422D02*
X0065740Y0025422D01*
X0065796Y0025778D02*
X0007400Y0025778D01*
X0007400Y0027376D02*
X0066050Y0027376D01*
X0066303Y0028975D02*
X0007400Y0028975D01*
X0007400Y0030573D02*
X0066759Y0030573D01*
X0066465Y0029995D02*
X0066465Y0029995D01*
X0067573Y0032172D02*
X0007400Y0032172D01*
X0007400Y0033770D02*
X0068388Y0033770D01*
X0068567Y0034121D02*
X0068567Y0034121D01*
X0069814Y0035369D02*
X0022265Y0035369D01*
X0021862Y0034966D02*
X0023437Y0036541D01*
X0024290Y0038599D01*
X0024290Y0040827D01*
X0023437Y0042886D01*
X0021862Y0044461D01*
X0019804Y0045313D01*
X0017576Y0045313D01*
X0015518Y0044461D01*
X0013942Y0042886D01*
X0013090Y0040827D01*
X0013090Y0038599D01*
X0013942Y0036541D01*
X0015518Y0034966D01*
X0017576Y0034113D01*
X0019804Y0034113D01*
X0021862Y0034966D01*
X0023614Y0036967D02*
X0071413Y0036967D01*
X0071841Y0037395D02*
X0071841Y0037395D01*
X0074138Y0038566D02*
X0024276Y0038566D01*
X0024290Y0040164D02*
X0080175Y0040164D01*
X0080540Y0040222D02*
X0080540Y0040222D01*
X0080905Y0040164D02*
X0127793Y0040164D01*
X0125029Y0038566D02*
X0086943Y0038566D01*
X0089239Y0037395D02*
X0089239Y0037395D01*
X0089668Y0036967D02*
X0123430Y0036967D01*
X0121832Y0035369D02*
X0091266Y0035369D01*
X0092692Y0033770D02*
X0120902Y0033770D01*
X0119979Y0032172D02*
X0093507Y0032172D01*
X0094321Y0030573D02*
X0119314Y0030573D01*
X0118886Y0028975D02*
X0094777Y0028975D01*
X0095031Y0027376D02*
X0118457Y0027376D01*
X0118358Y0025778D02*
X0095284Y0025778D01*
X0095143Y0024179D02*
X0118358Y0024179D01*
X0118358Y0022581D02*
X0094890Y0022581D01*
X0094637Y0020982D02*
X0118752Y0020982D01*
X0119180Y0019384D02*
X0093869Y0019384D01*
X0094616Y0020849D02*
X0094616Y0020849D01*
X0093055Y0017785D02*
X0119691Y0017785D01*
X0120614Y0016187D02*
X0091977Y0016187D01*
X0092514Y0016723D02*
X0092514Y0016723D01*
X0090379Y0014588D02*
X0121537Y0014588D01*
X0122932Y0012990D02*
X0088338Y0012990D01*
X0085201Y0011391D02*
X0124530Y0011391D01*
X0140791Y0008194D02*
X0317253Y0008194D01*
X0316117Y0009793D02*
X0144387Y0009793D01*
X0146786Y0011391D02*
X0315303Y0011391D01*
X0314494Y0012990D02*
X0148385Y0012990D01*
X0149780Y0014588D02*
X0314240Y0014588D01*
X0313987Y0016187D02*
X0150703Y0016187D01*
X0151625Y0017785D02*
X0313809Y0017785D01*
X0313772Y0017548D02*
X0313772Y0017548D01*
X0314062Y0019384D02*
X0152136Y0019384D01*
X0152565Y0020982D02*
X0314316Y0020982D01*
X0314496Y0022121D02*
X0314496Y0022121D01*
X0314730Y0022581D02*
X0152958Y0022581D01*
X0152958Y0024179D02*
X0315544Y0024179D01*
X0316359Y0025778D02*
X0152958Y0025778D01*
X0152859Y0027376D02*
X0317727Y0027376D01*
X0316598Y0026247D02*
X0316598Y0026247D01*
X0319326Y0028975D02*
X0152431Y0028975D01*
X0152003Y0030573D02*
X0321937Y0030573D01*
X0323998Y0031624D02*
X0323998Y0031624D01*
X0327459Y0032172D02*
X0151338Y0032172D01*
X0150415Y0033770D02*
X0338720Y0033770D01*
X0338720Y0032172D02*
X0329685Y0032172D01*
X0333145Y0031624D02*
X0333145Y0031624D01*
X0335207Y0030573D02*
X0338720Y0030573D01*
X0338720Y0028975D02*
X0337818Y0028975D01*
X0337271Y0029521D02*
X0337271Y0029521D01*
X0338720Y0035369D02*
X0300039Y0035369D01*
X0300550Y0035581D02*
X0302013Y0037043D01*
X0302805Y0038955D01*
X0302805Y0041023D01*
X0302013Y0042935D01*
X0300550Y0044397D01*
X0299122Y0044989D01*
X0300550Y0045581D01*
X0302013Y0047043D01*
X0302805Y0048955D01*
X0302805Y0051023D01*
X0302013Y0052935D01*
X0300550Y0054397D01*
X0299122Y0054989D01*
X0300550Y0055581D01*
X0302013Y0057043D01*
X0302805Y0058955D01*
X0302805Y0061023D01*
X0302013Y0062935D01*
X0300550Y0064397D01*
X0299122Y0064989D01*
X0300550Y0065581D01*
X0302013Y0067043D01*
X0302805Y0068955D01*
X0302805Y0071023D01*
X0302013Y0072935D01*
X0300550Y0074397D01*
X0299122Y0074989D01*
X0300550Y0075581D01*
X0302013Y0077043D01*
X0302805Y0078955D01*
X0302805Y0081023D01*
X0302013Y0082935D01*
X0300550Y0084397D01*
X0299122Y0084989D01*
X0300550Y0085581D01*
X0302013Y0087043D01*
X0302805Y0088955D01*
X0302805Y0091023D01*
X0302013Y0092935D01*
X0300550Y0094397D01*
X0299122Y0094989D01*
X0300550Y0095581D01*
X0302013Y0097043D01*
X0302805Y0098955D01*
X0302805Y0101023D01*
X0302013Y0102935D01*
X0300550Y0104397D01*
X0299122Y0104989D01*
X0300550Y0105581D01*
X0302013Y0107043D01*
X0302805Y0108955D01*
X0302805Y0111023D01*
X0302013Y0112935D01*
X0300550Y0114397D01*
X0298639Y0115189D01*
X0289370Y0115189D01*
X0287459Y0114397D01*
X0285996Y0112935D01*
X0285205Y0111023D01*
X0285205Y0108955D01*
X0285996Y0107043D01*
X0287459Y0105581D01*
X0288888Y0104989D01*
X0287459Y0104397D01*
X0285996Y0102935D01*
X0285205Y0101023D01*
X0285205Y0098955D01*
X0285996Y0097043D01*
X0287459Y0095581D01*
X0288888Y0094989D01*
X0287459Y0094397D01*
X0285996Y0092935D01*
X0285205Y0091023D01*
X0285205Y0088955D01*
X0285996Y0087043D01*
X0287459Y0085581D01*
X0288888Y0084989D01*
X0287459Y0084397D01*
X0285996Y0082935D01*
X0285205Y0081023D01*
X0285205Y0078955D01*
X0285996Y0077043D01*
X0287459Y0075581D01*
X0288888Y0074989D01*
X0287459Y0074397D01*
X0285996Y0072935D01*
X0285205Y0071023D01*
X0285205Y0068955D01*
X0285996Y0067043D01*
X0287459Y0065581D01*
X0288888Y0064989D01*
X0287459Y0064397D01*
X0285996Y0062935D01*
X0285205Y0061023D01*
X0285205Y0058955D01*
X0285996Y0057043D01*
X0287459Y0055581D01*
X0288888Y0054989D01*
X0287459Y0054397D01*
X0285996Y0052935D01*
X0285205Y0051023D01*
X0285205Y0048955D01*
X0285996Y0047043D01*
X0287459Y0045581D01*
X0288888Y0044989D01*
X0287459Y0044397D01*
X0285996Y0042935D01*
X0285205Y0041023D01*
X0285205Y0038955D01*
X0285996Y0037043D01*
X0287459Y0035581D01*
X0289370Y0034789D01*
X0298639Y0034789D01*
X0300550Y0035581D01*
X0301937Y0036967D02*
X0332583Y0036967D01*
X0332619Y0036931D02*
X0336099Y0036931D01*
X0338559Y0039391D01*
X0338559Y0042870D01*
X0336099Y0045331D01*
X0332619Y0045331D01*
X0330159Y0042870D01*
X0330159Y0039391D01*
X0332619Y0036931D01*
X0330984Y0038566D02*
X0316232Y0038566D01*
X0315727Y0038357D02*
X0317528Y0039103D01*
X0318907Y0040481D01*
X0319653Y0042282D01*
X0319653Y0044231D01*
X0318907Y0046032D01*
X0317528Y0047411D01*
X0315727Y0048157D01*
X0313778Y0048157D01*
X0311977Y0047411D01*
X0310599Y0046032D01*
X0309853Y0044231D01*
X0309853Y0042282D01*
X0310599Y0040481D01*
X0311977Y0039103D01*
X0313778Y0038357D01*
X0315727Y0038357D01*
X0313273Y0038566D02*
X0302644Y0038566D01*
X0302805Y0040164D02*
X0310916Y0040164D01*
X0310068Y0041763D02*
X0302498Y0041763D01*
X0301586Y0043361D02*
X0309853Y0043361D01*
X0310154Y0044960D02*
X0299192Y0044960D01*
X0301528Y0046558D02*
X0311125Y0046558D01*
X0318381Y0046558D02*
X0338720Y0046558D01*
X0338720Y0044960D02*
X0336470Y0044960D01*
X0338068Y0043361D02*
X0338720Y0043361D01*
X0338720Y0041763D02*
X0338559Y0041763D01*
X0338559Y0040164D02*
X0338720Y0040164D01*
X0338720Y0038566D02*
X0337734Y0038566D01*
X0338720Y0036967D02*
X0336135Y0036967D01*
X0330159Y0040164D02*
X0318590Y0040164D01*
X0319438Y0041763D02*
X0330159Y0041763D01*
X0330650Y0043361D02*
X0319653Y0043361D01*
X0319351Y0044960D02*
X0332248Y0044960D01*
X0338720Y0048157D02*
X0302474Y0048157D01*
X0302805Y0049755D02*
X0338720Y0049755D01*
X0338720Y0051354D02*
X0302668Y0051354D01*
X0301995Y0052952D02*
X0338720Y0052952D01*
X0338720Y0054551D02*
X0317245Y0054551D01*
X0317426Y0054643D02*
X0318075Y0055115D01*
X0318643Y0055682D01*
X0319115Y0056332D01*
X0319479Y0057047D01*
X0319727Y0057810D01*
X0319853Y0058603D01*
X0319853Y0059005D01*
X0319853Y0059406D01*
X0319727Y0060199D01*
X0319479Y0060962D01*
X0319115Y0061678D01*
X0318643Y0062327D01*
X0318075Y0062895D01*
X0317426Y0063367D01*
X0316710Y0063731D01*
X0315947Y0063979D01*
X0315154Y0064105D01*
X0314753Y0064105D01*
X0314753Y0059005D01*
X0314753Y0059005D01*
X0319853Y0059005D01*
X0314753Y0059005D01*
X0314753Y0059005D01*
X0314753Y0064105D01*
X0314351Y0064105D01*
X0313558Y0063979D01*
X0312795Y0063731D01*
X0312080Y0063367D01*
X0311430Y0062895D01*
X0310863Y0062327D01*
X0310391Y0061678D01*
X0310026Y0060962D01*
X0309778Y0060199D01*
X0309653Y0059406D01*
X0309653Y0059005D01*
X0314753Y0059005D01*
X0314753Y0059005D01*
X0314753Y0053905D01*
X0315154Y0053905D01*
X0315947Y0054030D01*
X0316710Y0054278D01*
X0317426Y0054643D01*
X0318982Y0056149D02*
X0338720Y0056149D01*
X0338720Y0057748D02*
X0336916Y0057748D01*
X0336099Y0056931D02*
X0338559Y0059391D01*
X0338559Y0062870D01*
X0336099Y0065331D01*
X0332619Y0065331D01*
X0330159Y0062870D01*
X0330159Y0059391D01*
X0332619Y0056931D01*
X0336099Y0056931D01*
X0338514Y0059346D02*
X0338720Y0059346D01*
X0338720Y0060945D02*
X0338559Y0060945D01*
X0338559Y0062543D02*
X0338720Y0062543D01*
X0338720Y0064142D02*
X0337288Y0064142D01*
X0338720Y0065740D02*
X0300710Y0065740D01*
X0302135Y0067339D02*
X0338720Y0067339D01*
X0338720Y0068937D02*
X0302798Y0068937D01*
X0302805Y0070536D02*
X0338720Y0070536D01*
X0338720Y0072134D02*
X0302344Y0072134D01*
X0301215Y0073733D02*
X0338720Y0073733D01*
X0338720Y0075332D02*
X0299949Y0075332D01*
X0301900Y0076930D02*
X0338720Y0076930D01*
X0338720Y0078529D02*
X0329659Y0078529D01*
X0329856Y0078593D02*
X0330628Y0078986D01*
X0331328Y0079495D01*
X0331940Y0080107D01*
X0332449Y0080807D01*
X0332842Y0081578D01*
X0333109Y0082402D01*
X0333245Y0083257D01*
X0333245Y0083490D01*
X0327945Y0083490D01*
X0327945Y0083890D01*
X0333245Y0083890D01*
X0333245Y0084123D01*
X0333109Y0084978D01*
X0332842Y0085801D01*
X0332449Y0086572D01*
X0331940Y0087273D01*
X0331328Y0087885D01*
X0330628Y0088394D01*
X0329856Y0088787D01*
X0329801Y0088805D01*
X0330747Y0089197D01*
X0332238Y0090688D01*
X0333045Y0092636D01*
X0333045Y0094744D01*
X0332238Y0096692D01*
X0330747Y0098183D01*
X0329523Y0098690D01*
X0330747Y0099197D01*
X0332238Y0100688D01*
X0333045Y0102636D01*
X0333045Y0104744D01*
X0332238Y0106692D01*
X0330747Y0108183D01*
X0328799Y0108990D01*
X0326691Y0108990D01*
X0324743Y0108183D01*
X0323252Y0106692D01*
X0322445Y0104744D01*
X0322445Y0102636D01*
X0323252Y0100688D01*
X0324743Y0099197D01*
X0325966Y0098690D01*
X0324743Y0098183D01*
X0324015Y0097455D01*
X0301470Y0120000D01*
X0256530Y0120000D01*
X0255300Y0118770D01*
X0210739Y0074209D01*
X0210550Y0074397D01*
X0209122Y0074989D01*
X0210550Y0075581D01*
X0212013Y0077043D01*
X0212805Y0078955D01*
X0212805Y0081023D01*
X0212013Y0082935D01*
X0210550Y0084397D01*
X0209122Y0084989D01*
X0210550Y0085581D01*
X0212013Y0087043D01*
X0212805Y0088955D01*
X0212805Y0091023D01*
X0212013Y0092935D01*
X0210550Y0094397D01*
X0209372Y0094885D01*
X0209678Y0094985D01*
X0210435Y0095370D01*
X0211123Y0095870D01*
X0211724Y0096471D01*
X0212223Y0097159D01*
X0212609Y0097916D01*
X0212872Y0098724D01*
X0213005Y0099564D01*
X0213005Y0099789D01*
X0204205Y0099789D01*
X0204205Y0100189D01*
X0213005Y0100189D01*
X0213005Y0100414D01*
X0212872Y0101253D01*
X0212609Y0102062D01*
X0212223Y0102819D01*
X0211724Y0103507D01*
X0211123Y0104108D01*
X0210435Y0104607D01*
X0209678Y0104993D01*
X0209372Y0105093D01*
X0210550Y0105581D01*
X0212013Y0107043D01*
X0212805Y0108955D01*
X0212805Y0111023D01*
X0212013Y0112935D01*
X0210550Y0114397D01*
X0208639Y0115189D01*
X0199370Y0115189D01*
X0197459Y0114397D01*
X0195996Y0112935D01*
X0195205Y0111023D01*
X0195205Y0108955D01*
X0195996Y0107043D01*
X0197459Y0105581D01*
X0198637Y0105093D01*
X0198332Y0104993D01*
X0197574Y0104607D01*
X0196887Y0104108D01*
X0196286Y0103507D01*
X0195786Y0102819D01*
X0195400Y0102062D01*
X0195138Y0101253D01*
X0195005Y0100414D01*
X0195005Y0100189D01*
X0203805Y0100189D01*
X0203805Y0099789D01*
X0195005Y0099789D01*
X0195005Y0099564D01*
X0195138Y0098724D01*
X0195400Y0097916D01*
X0195786Y0097159D01*
X0196286Y0096471D01*
X0196887Y0095870D01*
X0197574Y0095370D01*
X0198332Y0094985D01*
X0198637Y0094885D01*
X0197459Y0094397D01*
X0195996Y0092935D01*
X0195205Y0091023D01*
X0195205Y0088955D01*
X0195996Y0087043D01*
X0197459Y0085581D01*
X0198888Y0084989D01*
X0197459Y0084397D01*
X0195996Y0082935D01*
X0195205Y0081023D01*
X0195205Y0078955D01*
X0195996Y0077043D01*
X0197459Y0075581D01*
X0198888Y0074989D01*
X0197459Y0074397D01*
X0195996Y0072935D01*
X0195205Y0071023D01*
X0195205Y0068955D01*
X0195996Y0067043D01*
X0197459Y0065581D01*
X0198888Y0064989D01*
X0197459Y0064397D01*
X0195996Y0062935D01*
X0195205Y0061023D01*
X0195205Y0058955D01*
X0195996Y0057043D01*
X0197459Y0055581D01*
X0198888Y0054989D01*
X0197459Y0054397D01*
X0195996Y0052935D01*
X0195205Y0051023D01*
X0195205Y0048955D01*
X0195996Y0047043D01*
X0197459Y0045581D01*
X0198888Y0044989D01*
X0197459Y0044397D01*
X0195996Y0042935D01*
X0195205Y0041023D01*
X0195205Y0038955D01*
X0195996Y0037043D01*
X0197459Y0035581D01*
X0199370Y0034789D01*
X0208639Y0034789D01*
X0210550Y0035581D01*
X0212013Y0037043D01*
X0212805Y0038955D01*
X0212805Y0041023D01*
X0212013Y0042935D01*
X0210550Y0044397D01*
X0209122Y0044989D01*
X0210550Y0045581D01*
X0212013Y0047043D01*
X0212805Y0048955D01*
X0212805Y0051023D01*
X0212013Y0052935D01*
X0210550Y0054397D01*
X0209122Y0054989D01*
X0210550Y0055581D01*
X0212013Y0057043D01*
X0212805Y0058955D01*
X0212805Y0061023D01*
X0212013Y0062935D01*
X0210550Y0064397D01*
X0209122Y0064989D01*
X0210550Y0065581D01*
X0212013Y0067043D01*
X0212805Y0068955D01*
X0212805Y0070335D01*
X0258270Y0115800D01*
X0299730Y0115800D01*
X0321900Y0093630D01*
X0322445Y0093085D01*
X0322445Y0092636D01*
X0323252Y0090688D01*
X0324743Y0089197D01*
X0325689Y0088805D01*
X0325634Y0088787D01*
X0324862Y0088394D01*
X0324162Y0087885D01*
X0323550Y0087273D01*
X0323041Y0086572D01*
X0322648Y0085801D01*
X0322380Y0084978D01*
X0322245Y0084123D01*
X0322245Y0083890D01*
X0327545Y0083890D01*
X0327545Y0083490D01*
X0322245Y0083490D01*
X0322245Y0083257D01*
X0322380Y0082402D01*
X0322648Y0081578D01*
X0323041Y0080807D01*
X0323550Y0080107D01*
X0324162Y0079495D01*
X0324862Y0078986D01*
X0325634Y0078593D01*
X0326457Y0078325D01*
X0327312Y0078190D01*
X0327545Y0078190D01*
X0327545Y0083490D01*
X0327945Y0083490D01*
X0327945Y0078190D01*
X0328178Y0078190D01*
X0329033Y0078325D01*
X0329856Y0078593D01*
X0327945Y0078529D02*
X0327545Y0078529D01*
X0327545Y0080127D02*
X0327945Y0080127D01*
X0327945Y0081726D02*
X0327545Y0081726D01*
X0327545Y0083324D02*
X0327945Y0083324D01*
X0322600Y0081726D02*
X0302514Y0081726D01*
X0302805Y0080127D02*
X0323535Y0080127D01*
X0325831Y0078529D02*
X0302628Y0078529D01*
X0301624Y0083324D02*
X0322245Y0083324D01*
X0322372Y0084923D02*
X0299282Y0084923D01*
X0301491Y0086521D02*
X0323015Y0086521D01*
X0324485Y0088120D02*
X0302459Y0088120D01*
X0302805Y0089718D02*
X0324221Y0089718D01*
X0322991Y0091317D02*
X0302683Y0091317D01*
X0302021Y0092915D02*
X0322445Y0092915D01*
X0321016Y0094514D02*
X0300269Y0094514D01*
X0301082Y0096112D02*
X0319418Y0096112D01*
X0317819Y0097711D02*
X0302289Y0097711D01*
X0302805Y0099309D02*
X0316221Y0099309D01*
X0314622Y0100908D02*
X0302805Y0100908D01*
X0302190Y0102506D02*
X0313024Y0102506D01*
X0311425Y0104105D02*
X0300843Y0104105D01*
X0300673Y0105703D02*
X0309827Y0105703D01*
X0308228Y0107302D02*
X0302120Y0107302D01*
X0302782Y0108900D02*
X0306630Y0108900D01*
X0305031Y0110499D02*
X0302805Y0110499D01*
X0302360Y0112097D02*
X0303433Y0112097D01*
X0301834Y0113696D02*
X0301252Y0113696D01*
X0300236Y0115294D02*
X0257764Y0115294D01*
X0256166Y0113696D02*
X0286758Y0113696D01*
X0285650Y0112097D02*
X0254567Y0112097D01*
X0252969Y0110499D02*
X0285205Y0110499D01*
X0285227Y0108900D02*
X0251370Y0108900D01*
X0249772Y0107302D02*
X0285889Y0107302D01*
X0287337Y0105703D02*
X0248173Y0105703D01*
X0246575Y0104105D02*
X0287167Y0104105D01*
X0285819Y0102506D02*
X0244976Y0102506D01*
X0243378Y0100908D02*
X0285205Y0100908D01*
X0285205Y0099309D02*
X0241779Y0099309D01*
X0240181Y0097711D02*
X0285720Y0097711D01*
X0286928Y0096112D02*
X0238582Y0096112D01*
X0236984Y0094514D02*
X0287740Y0094514D01*
X0285988Y0092915D02*
X0235385Y0092915D01*
X0233786Y0091317D02*
X0285326Y0091317D01*
X0285205Y0089718D02*
X0232188Y0089718D01*
X0230589Y0088120D02*
X0285551Y0088120D01*
X0286519Y0086521D02*
X0228991Y0086521D01*
X0227392Y0084923D02*
X0288727Y0084923D01*
X0286386Y0083324D02*
X0225794Y0083324D01*
X0224195Y0081726D02*
X0285496Y0081726D01*
X0285205Y0080127D02*
X0222597Y0080127D01*
X0220998Y0078529D02*
X0285381Y0078529D01*
X0286110Y0076930D02*
X0219400Y0076930D01*
X0217801Y0075332D02*
X0288061Y0075332D01*
X0286795Y0073733D02*
X0216203Y0073733D01*
X0214604Y0072134D02*
X0285665Y0072134D01*
X0285205Y0070536D02*
X0213006Y0070536D01*
X0212798Y0068937D02*
X0285212Y0068937D01*
X0285874Y0067339D02*
X0212135Y0067339D01*
X0210710Y0065740D02*
X0287299Y0065740D01*
X0287204Y0064142D02*
X0210806Y0064142D01*
X0212175Y0062543D02*
X0285834Y0062543D01*
X0285205Y0060945D02*
X0212805Y0060945D01*
X0212805Y0059346D02*
X0285205Y0059346D01*
X0285705Y0057748D02*
X0212305Y0057748D01*
X0211119Y0056149D02*
X0286890Y0056149D01*
X0287830Y0054551D02*
X0210180Y0054551D01*
X0211995Y0052952D02*
X0286014Y0052952D01*
X0285342Y0051354D02*
X0212668Y0051354D01*
X0212805Y0049755D02*
X0285205Y0049755D01*
X0285535Y0048157D02*
X0212474Y0048157D01*
X0211528Y0046558D02*
X0286481Y0046558D01*
X0288817Y0044960D02*
X0209192Y0044960D01*
X0211586Y0043361D02*
X0286423Y0043361D01*
X0285511Y0041763D02*
X0212498Y0041763D01*
X0212805Y0040164D02*
X0285205Y0040164D01*
X0285366Y0038566D02*
X0212644Y0038566D01*
X0211937Y0036967D02*
X0286073Y0036967D01*
X0287971Y0035369D02*
X0210039Y0035369D01*
X0197971Y0035369D02*
X0149485Y0035369D01*
X0147886Y0036967D02*
X0196073Y0036967D01*
X0195366Y0038566D02*
X0146288Y0038566D01*
X0143524Y0040164D02*
X0164976Y0040164D01*
X0166084Y0039057D02*
X0169563Y0039057D01*
X0172024Y0041517D01*
X0172024Y0044996D01*
X0169563Y0047457D01*
X0166084Y0047457D01*
X0163624Y0044996D01*
X0163624Y0041517D01*
X0166084Y0039057D01*
X0163624Y0041763D02*
X0138930Y0041763D01*
X0132387Y0041763D02*
X0023902Y0041763D01*
X0022961Y0043361D02*
X0163624Y0043361D01*
X0163624Y0044960D02*
X0020657Y0044960D01*
X0016722Y0044960D02*
X0007400Y0044960D01*
X0007400Y0046558D02*
X0165186Y0046558D01*
X0170462Y0046558D02*
X0185186Y0046558D01*
X0186084Y0047457D02*
X0183624Y0044996D01*
X0183624Y0041517D01*
X0186084Y0039057D01*
X0189563Y0039057D01*
X0192024Y0041517D01*
X0192024Y0044996D01*
X0189563Y0047457D01*
X0186084Y0047457D01*
X0183624Y0044960D02*
X0172024Y0044960D01*
X0172024Y0043361D02*
X0183624Y0043361D01*
X0183624Y0041763D02*
X0172024Y0041763D01*
X0170671Y0040164D02*
X0184976Y0040164D01*
X0190671Y0040164D02*
X0195205Y0040164D01*
X0195511Y0041763D02*
X0192024Y0041763D01*
X0192024Y0043361D02*
X0196423Y0043361D01*
X0198817Y0044960D02*
X0192024Y0044960D01*
X0190462Y0046558D02*
X0196481Y0046558D01*
X0195535Y0048157D02*
X0007400Y0048157D01*
X0007400Y0049755D02*
X0195205Y0049755D01*
X0195342Y0051354D02*
X0007400Y0051354D01*
X0007400Y0052952D02*
X0196014Y0052952D01*
X0197830Y0054551D02*
X0024105Y0054551D01*
X0024290Y0054736D02*
X0023352Y0053798D01*
X0014027Y0053798D01*
X0013090Y0054736D01*
X0013090Y0064061D01*
X0014027Y0064998D01*
X0023352Y0064998D01*
X0024290Y0064061D01*
X0024290Y0054736D01*
X0024290Y0056149D02*
X0196890Y0056149D01*
X0195705Y0057748D02*
X0024290Y0057748D01*
X0024290Y0059346D02*
X0195205Y0059346D01*
X0195205Y0060945D02*
X0024290Y0060945D01*
X0024290Y0062543D02*
X0195834Y0062543D01*
X0197204Y0064142D02*
X0024209Y0064142D01*
X0013171Y0064142D02*
X0007400Y0064142D01*
X0007400Y0062543D02*
X0013090Y0062543D01*
X0013090Y0060945D02*
X0007400Y0060945D01*
X0007400Y0059346D02*
X0013090Y0059346D01*
X0013090Y0057748D02*
X0007400Y0057748D01*
X0007400Y0056149D02*
X0013090Y0056149D01*
X0013275Y0054551D02*
X0007400Y0054551D01*
X0007400Y0043361D02*
X0014418Y0043361D01*
X0013477Y0041763D02*
X0007400Y0041763D01*
X0007400Y0040164D02*
X0013090Y0040164D01*
X0013104Y0038566D02*
X0007400Y0038566D01*
X0007400Y0036967D02*
X0013766Y0036967D01*
X0015115Y0035369D02*
X0007400Y0035369D01*
X0007400Y0065740D02*
X0197299Y0065740D01*
X0195874Y0067339D02*
X0192065Y0067339D01*
X0191142Y0066416D02*
X0189320Y0066416D01*
X0189320Y0070816D01*
X0193720Y0070816D01*
X0193720Y0072638D01*
X0191142Y0075216D01*
X0189320Y0075216D01*
X0189320Y0070816D01*
X0189320Y0070816D01*
X0189320Y0070816D01*
X0193720Y0070816D01*
X0193720Y0068993D01*
X0191142Y0066416D01*
X0189320Y0066416D02*
X0189320Y0070816D01*
X0189320Y0075216D01*
X0187497Y0075216D01*
X0184920Y0072638D01*
X0184920Y0070816D01*
X0189320Y0070816D01*
X0189320Y0070816D01*
X0189320Y0070816D01*
X0184920Y0070816D01*
X0184920Y0068993D01*
X0187497Y0066416D01*
X0189320Y0066416D01*
X0189320Y0067339D02*
X0189320Y0067339D01*
X0189320Y0068937D02*
X0189320Y0068937D01*
X0189320Y0070536D02*
X0189320Y0070536D01*
X0189320Y0072134D02*
X0189320Y0072134D01*
X0189320Y0073733D02*
X0189320Y0073733D01*
X0192625Y0073733D02*
X0196795Y0073733D01*
X0195665Y0072134D02*
X0193720Y0072134D01*
X0193720Y0070536D02*
X0195205Y0070536D01*
X0195212Y0068937D02*
X0193664Y0068937D01*
X0186574Y0067339D02*
X0171783Y0067339D01*
X0171059Y0066616D02*
X0167580Y0066616D01*
X0165120Y0069076D01*
X0165120Y0072555D01*
X0167580Y0075016D01*
X0171059Y0075016D01*
X0173520Y0072555D01*
X0173520Y0069076D01*
X0171059Y0066616D01*
X0166857Y0067339D02*
X0007400Y0067339D01*
X0007400Y0068937D02*
X0165258Y0068937D01*
X0165120Y0070536D02*
X0007400Y0070536D01*
X0007400Y0072134D02*
X0165120Y0072134D01*
X0166297Y0073733D02*
X0007400Y0073733D01*
X0007400Y0075332D02*
X0198061Y0075332D01*
X0196110Y0076930D02*
X0091570Y0076930D01*
X0091515Y0076907D02*
X0093316Y0077653D01*
X0094694Y0079031D01*
X0095440Y0080832D01*
X0095440Y0089382D01*
X0094694Y0091183D01*
X0093316Y0092561D01*
X0091515Y0093307D01*
X0089565Y0093307D01*
X0087765Y0092561D01*
X0086386Y0091183D01*
X0085640Y0089382D01*
X0085640Y0080832D01*
X0086386Y0079031D01*
X0087765Y0077653D01*
X0089565Y0076907D01*
X0091515Y0076907D01*
X0089510Y0076930D02*
X0082034Y0076930D01*
X0081734Y0076833D02*
X0082498Y0077081D01*
X0083213Y0077445D01*
X0083863Y0077917D01*
X0084430Y0078485D01*
X0084902Y0079134D01*
X0085266Y0079849D01*
X0085515Y0080613D01*
X0085640Y0081406D01*
X0085640Y0084807D01*
X0080840Y0084807D01*
X0080840Y0076707D01*
X0080942Y0076707D01*
X0081734Y0076833D01*
X0080840Y0076930D02*
X0080240Y0076930D01*
X0080240Y0076707D02*
X0080240Y0084807D01*
X0075440Y0084807D01*
X0075440Y0081406D01*
X0075566Y0080613D01*
X0075814Y0079849D01*
X0076178Y0079134D01*
X0076650Y0078485D01*
X0077218Y0077917D01*
X0077867Y0077445D01*
X0078582Y0077081D01*
X0079346Y0076833D01*
X0080139Y0076707D01*
X0080240Y0076707D01*
X0079046Y0076930D02*
X0071570Y0076930D01*
X0071515Y0076907D02*
X0073316Y0077653D01*
X0074694Y0079031D01*
X0075440Y0080832D01*
X0075440Y0089382D01*
X0074694Y0091183D01*
X0074523Y0091354D01*
X0089070Y0105900D01*
X0174570Y0105900D01*
X0176504Y0107834D01*
X0177059Y0107279D01*
X0177480Y0107104D01*
X0175038Y0104662D01*
X0175038Y0102839D01*
X0175038Y0101017D01*
X0177615Y0098439D01*
X0179438Y0098439D01*
X0181260Y0098439D01*
X0183838Y0101017D01*
X0183838Y0102839D01*
X0179438Y0102839D01*
X0179438Y0098439D01*
X0179438Y0102839D01*
X0179438Y0102839D01*
X0179438Y0102839D01*
X0183838Y0102839D01*
X0183838Y0104662D01*
X0181395Y0107104D01*
X0181817Y0107279D01*
X0182998Y0108460D01*
X0183638Y0110004D01*
X0183638Y0111675D01*
X0182998Y0113218D01*
X0181817Y0114400D01*
X0180273Y0115039D01*
X0178602Y0115039D01*
X0177059Y0114400D01*
X0175877Y0113218D01*
X0175704Y0112800D01*
X0175530Y0112800D01*
X0174300Y0111570D01*
X0172830Y0110100D01*
X0087330Y0110100D01*
X0086100Y0108870D01*
X0070537Y0093307D01*
X0069565Y0093307D01*
X0067765Y0092561D01*
X0066386Y0091183D01*
X0065640Y0089382D01*
X0065640Y0080832D01*
X0066386Y0079031D01*
X0067765Y0077653D01*
X0069565Y0076907D01*
X0071515Y0076907D01*
X0069510Y0076930D02*
X0007400Y0076930D01*
X0007400Y0078529D02*
X0066889Y0078529D01*
X0065932Y0080127D02*
X0007400Y0080127D01*
X0007400Y0081726D02*
X0065640Y0081726D01*
X0065640Y0083324D02*
X0007400Y0083324D01*
X0007400Y0084923D02*
X0065640Y0084923D01*
X0065640Y0086521D02*
X0021055Y0086521D01*
X0020681Y0086147D02*
X0022256Y0087722D01*
X0023109Y0089781D01*
X0023109Y0092008D01*
X0022256Y0094067D01*
X0020681Y0095642D01*
X0018623Y0096494D01*
X0016395Y0096494D01*
X0014337Y0095642D01*
X0012761Y0094067D01*
X0011909Y0092008D01*
X0011909Y0089781D01*
X0012761Y0087722D01*
X0014337Y0086147D01*
X0016395Y0085294D01*
X0018623Y0085294D01*
X0020681Y0086147D01*
X0013962Y0086521D02*
X0007400Y0086521D01*
X0007400Y0088120D02*
X0012597Y0088120D01*
X0011935Y0089718D02*
X0007400Y0089718D01*
X0007400Y0091317D02*
X0011909Y0091317D01*
X0012284Y0092915D02*
X0007400Y0092915D01*
X0007400Y0094514D02*
X0013208Y0094514D01*
X0015472Y0096112D02*
X0007400Y0096112D01*
X0007400Y0097711D02*
X0074941Y0097711D01*
X0076539Y0099309D02*
X0007400Y0099309D01*
X0007400Y0100908D02*
X0078138Y0100908D01*
X0079736Y0102506D02*
X0007400Y0102506D01*
X0007400Y0104105D02*
X0081335Y0104105D01*
X0082933Y0105703D02*
X0051863Y0105703D01*
X0051659Y0105499D02*
X0052841Y0106681D01*
X0053480Y0108224D01*
X0053480Y0109895D01*
X0052841Y0111439D01*
X0051659Y0112620D01*
X0051238Y0112795D01*
X0053680Y0115237D01*
X0053680Y0117060D01*
X0053680Y0118882D01*
X0051103Y0121460D01*
X0049280Y0121460D01*
X0047458Y0121460D01*
X0044880Y0118882D01*
X0044880Y0117060D01*
X0049280Y0117060D01*
X0049280Y0117060D01*
X0049280Y0121460D01*
X0049280Y0117060D01*
X0049280Y0117060D01*
X0044880Y0117060D01*
X0044880Y0115237D01*
X0047323Y0112795D01*
X0046901Y0112620D01*
X0045720Y0111439D01*
X0045080Y0109895D01*
X0045080Y0108224D01*
X0045720Y0106681D01*
X0046901Y0105499D01*
X0048445Y0104860D01*
X0050116Y0104860D01*
X0051659Y0105499D01*
X0053098Y0107302D02*
X0084532Y0107302D01*
X0086130Y0108900D02*
X0053480Y0108900D01*
X0053230Y0110499D02*
X0173229Y0110499D01*
X0174827Y0112097D02*
X0052183Y0112097D01*
X0052139Y0113696D02*
X0176355Y0113696D01*
X0182521Y0113696D02*
X0196758Y0113696D01*
X0195650Y0112097D02*
X0183463Y0112097D01*
X0183638Y0110499D02*
X0195205Y0110499D01*
X0195227Y0108900D02*
X0183181Y0108900D01*
X0181840Y0107302D02*
X0195889Y0107302D01*
X0197337Y0105703D02*
X0182796Y0105703D01*
X0183838Y0104105D02*
X0196884Y0104105D01*
X0195627Y0102506D02*
X0183838Y0102506D01*
X0183729Y0100908D02*
X0195083Y0100908D01*
X0195045Y0099309D02*
X0182130Y0099309D01*
X0179438Y0099309D02*
X0179438Y0099309D01*
X0179438Y0100908D02*
X0179438Y0100908D01*
X0179438Y0102506D02*
X0179438Y0102506D01*
X0179438Y0102839D02*
X0175038Y0102839D01*
X0179438Y0102839D01*
X0179438Y0102839D01*
X0175038Y0102506D02*
X0085676Y0102506D01*
X0084078Y0100908D02*
X0122324Y0100908D01*
X0122336Y0100919D02*
X0121768Y0100352D01*
X0121296Y0099702D01*
X0120932Y0098987D01*
X0120684Y0098223D01*
X0120558Y0097431D01*
X0120558Y0094029D01*
X0125358Y0094029D01*
X0125358Y0093429D01*
X0120558Y0093429D01*
X0120558Y0090028D01*
X0120684Y0089235D01*
X0120932Y0088471D01*
X0121296Y0087756D01*
X0121768Y0087107D01*
X0122336Y0086539D01*
X0122985Y0086067D01*
X0123701Y0085703D01*
X0124464Y0085455D01*
X0125257Y0085329D01*
X0125358Y0085329D01*
X0125358Y0093429D01*
X0125958Y0093429D01*
X0125958Y0085329D01*
X0126060Y0085329D01*
X0126853Y0085455D01*
X0127616Y0085703D01*
X0128331Y0086067D01*
X0128981Y0086539D01*
X0129548Y0087107D01*
X0130020Y0087756D01*
X0130385Y0088471D01*
X0130633Y0089235D01*
X0130758Y0090028D01*
X0130758Y0093429D01*
X0125958Y0093429D01*
X0125958Y0094029D01*
X0125358Y0094029D01*
X0125358Y0102129D01*
X0125257Y0102129D01*
X0124464Y0102004D01*
X0123701Y0101755D01*
X0122985Y0101391D01*
X0122336Y0100919D01*
X0121096Y0099309D02*
X0082479Y0099309D01*
X0080881Y0097711D02*
X0120603Y0097711D01*
X0120558Y0096112D02*
X0079282Y0096112D01*
X0077684Y0094514D02*
X0120558Y0094514D01*
X0120558Y0092915D02*
X0092461Y0092915D01*
X0094560Y0091317D02*
X0120558Y0091317D01*
X0120607Y0089718D02*
X0095301Y0089718D01*
X0095440Y0088120D02*
X0121111Y0088120D01*
X0122361Y0086521D02*
X0095440Y0086521D01*
X0095440Y0084923D02*
X0198727Y0084923D01*
X0196519Y0086521D02*
X0148680Y0086521D01*
X0148434Y0086275D02*
X0149812Y0087654D01*
X0150558Y0089454D01*
X0150558Y0098004D01*
X0149812Y0099805D01*
X0148434Y0101183D01*
X0146633Y0101929D01*
X0144684Y0101929D01*
X0142883Y0101183D01*
X0141504Y0099805D01*
X0140758Y0098004D01*
X0140758Y0089454D01*
X0141504Y0087654D01*
X0142883Y0086275D01*
X0144684Y0085529D01*
X0146633Y0085529D01*
X0148434Y0086275D01*
X0142637Y0086521D02*
X0138680Y0086521D01*
X0138434Y0086275D02*
X0139812Y0087654D01*
X0140558Y0089454D01*
X0140558Y0098004D01*
X0139812Y0099805D01*
X0138434Y0101183D01*
X0136633Y0101929D01*
X0134684Y0101929D01*
X0132883Y0101183D01*
X0131504Y0099805D01*
X0130758Y0098004D01*
X0130758Y0089454D01*
X0131504Y0087654D01*
X0132883Y0086275D01*
X0134684Y0085529D01*
X0136633Y0085529D01*
X0138434Y0086275D01*
X0132637Y0086521D02*
X0128956Y0086521D01*
X0125958Y0086521D02*
X0125358Y0086521D01*
X0125358Y0088120D02*
X0125958Y0088120D01*
X0125958Y0089718D02*
X0125358Y0089718D01*
X0125358Y0091317D02*
X0125958Y0091317D01*
X0125958Y0092915D02*
X0125358Y0092915D01*
X0125958Y0094029D02*
X0130758Y0094029D01*
X0130758Y0097431D01*
X0130633Y0098223D01*
X0130385Y0098987D01*
X0130020Y0099702D01*
X0129548Y0100352D01*
X0128981Y0100919D01*
X0128331Y0101391D01*
X0127616Y0101755D01*
X0126853Y0102004D01*
X0126060Y0102129D01*
X0125958Y0102129D01*
X0125958Y0094029D01*
X0125958Y0094514D02*
X0125358Y0094514D01*
X0125358Y0096112D02*
X0125958Y0096112D01*
X0125958Y0097711D02*
X0125358Y0097711D01*
X0125358Y0099309D02*
X0125958Y0099309D01*
X0125958Y0100908D02*
X0125358Y0100908D01*
X0128992Y0100908D02*
X0132607Y0100908D01*
X0131299Y0099309D02*
X0130220Y0099309D01*
X0130714Y0097711D02*
X0130758Y0097711D01*
X0130758Y0096112D02*
X0130758Y0096112D01*
X0130758Y0094514D02*
X0130758Y0094514D01*
X0130758Y0092915D02*
X0130758Y0092915D01*
X0130758Y0091317D02*
X0130758Y0091317D01*
X0130709Y0089718D02*
X0130758Y0089718D01*
X0130205Y0088120D02*
X0131311Y0088120D01*
X0140005Y0088120D02*
X0141311Y0088120D01*
X0140758Y0089718D02*
X0140558Y0089718D01*
X0140558Y0091317D02*
X0140758Y0091317D01*
X0140758Y0092915D02*
X0140558Y0092915D01*
X0140558Y0094514D02*
X0140758Y0094514D01*
X0140758Y0096112D02*
X0140558Y0096112D01*
X0140558Y0097711D02*
X0140758Y0097711D01*
X0141299Y0099309D02*
X0140018Y0099309D01*
X0138709Y0100908D02*
X0142607Y0100908D01*
X0148709Y0100908D02*
X0175147Y0100908D01*
X0176745Y0099309D02*
X0150018Y0099309D01*
X0150558Y0097711D02*
X0195505Y0097711D01*
X0196645Y0096112D02*
X0150558Y0096112D01*
X0150558Y0094514D02*
X0197740Y0094514D01*
X0195988Y0092915D02*
X0150558Y0092915D01*
X0150558Y0091317D02*
X0195326Y0091317D01*
X0195205Y0089718D02*
X0150558Y0089718D01*
X0150005Y0088120D02*
X0195551Y0088120D01*
X0196386Y0083324D02*
X0095440Y0083324D01*
X0095440Y0081726D02*
X0195496Y0081726D01*
X0195205Y0080127D02*
X0095148Y0080127D01*
X0094191Y0078529D02*
X0195381Y0078529D01*
X0186014Y0073733D02*
X0172342Y0073733D01*
X0173520Y0072134D02*
X0184920Y0072134D01*
X0184920Y0070536D02*
X0173520Y0070536D01*
X0173381Y0068937D02*
X0184975Y0068937D01*
X0209949Y0075332D02*
X0211862Y0075332D01*
X0211900Y0076930D02*
X0213460Y0076930D01*
X0212628Y0078529D02*
X0215059Y0078529D01*
X0216657Y0080127D02*
X0212805Y0080127D01*
X0212514Y0081726D02*
X0218256Y0081726D01*
X0219854Y0083324D02*
X0211624Y0083324D01*
X0209282Y0084923D02*
X0221453Y0084923D01*
X0223051Y0086521D02*
X0211491Y0086521D01*
X0212459Y0088120D02*
X0224650Y0088120D01*
X0226248Y0089718D02*
X0212805Y0089718D01*
X0212683Y0091317D02*
X0227847Y0091317D01*
X0229445Y0092915D02*
X0212021Y0092915D01*
X0210269Y0094514D02*
X0231044Y0094514D01*
X0232642Y0096112D02*
X0211365Y0096112D01*
X0212504Y0097711D02*
X0234241Y0097711D01*
X0235839Y0099309D02*
X0212964Y0099309D01*
X0212927Y0100908D02*
X0237438Y0100908D01*
X0239036Y0102506D02*
X0212383Y0102506D01*
X0211126Y0104105D02*
X0240635Y0104105D01*
X0242233Y0105703D02*
X0210673Y0105703D01*
X0212120Y0107302D02*
X0243832Y0107302D01*
X0245430Y0108900D02*
X0212782Y0108900D01*
X0212805Y0110499D02*
X0247029Y0110499D01*
X0248627Y0112097D02*
X0212360Y0112097D01*
X0211252Y0113696D02*
X0250226Y0113696D01*
X0251824Y0115294D02*
X0053680Y0115294D01*
X0053680Y0116893D02*
X0253423Y0116893D01*
X0255021Y0118491D02*
X0053680Y0118491D01*
X0053680Y0117060D02*
X0049280Y0117060D01*
X0049280Y0117060D01*
X0053680Y0117060D01*
X0049280Y0118491D02*
X0049280Y0118491D01*
X0049280Y0120090D02*
X0049280Y0120090D01*
X0046088Y0120090D02*
X0007400Y0120090D01*
X0007400Y0121688D02*
X0317932Y0121688D01*
X0316598Y0123022D02*
X0316598Y0123022D01*
X0316463Y0123287D02*
X0007400Y0123287D01*
X0007400Y0124885D02*
X0315649Y0124885D01*
X0314834Y0126484D02*
X0007400Y0126484D01*
X0007400Y0128082D02*
X0314348Y0128082D01*
X0314095Y0129681D02*
X0007400Y0129681D01*
X0007400Y0131279D02*
X0313842Y0131279D01*
X0313772Y0131721D02*
X0313772Y0131721D01*
X0313955Y0132878D02*
X0007400Y0132878D01*
X0007400Y0134476D02*
X0314208Y0134476D01*
X0314461Y0136075D02*
X0007400Y0136075D01*
X0007400Y0137673D02*
X0315199Y0137673D01*
X0316013Y0139272D02*
X0007400Y0139272D01*
X0007400Y0140870D02*
X0317048Y0140870D01*
X0316598Y0140420D02*
X0316598Y0140420D01*
X0319530Y0120090D02*
X0052473Y0120090D01*
X0044880Y0118491D02*
X0007400Y0118491D01*
X0007400Y0116893D02*
X0044880Y0116893D01*
X0044880Y0115294D02*
X0023174Y0115294D01*
X0023186Y0115274D02*
X0022949Y0115685D01*
X0022614Y0116020D01*
X0022203Y0116257D01*
X0021746Y0116380D01*
X0017988Y0116380D01*
X0017988Y0111059D01*
X0017029Y0111059D01*
X0017029Y0110100D01*
X0011709Y0110100D01*
X0011709Y0106343D01*
X0011831Y0105885D01*
X0012068Y0105474D01*
X0012403Y0105139D01*
X0012814Y0104902D01*
X0013272Y0104780D01*
X0017029Y0104780D01*
X0017029Y0110100D01*
X0017988Y0110100D01*
X0017988Y0104780D01*
X0021746Y0104780D01*
X0022203Y0104902D01*
X0022614Y0105139D01*
X0022949Y0105474D01*
X0023186Y0105885D01*
X0023309Y0106343D01*
X0023309Y0110100D01*
X0017988Y0110100D01*
X0017988Y0111059D01*
X0023309Y0111059D01*
X0023309Y0114816D01*
X0023186Y0115274D01*
X0023309Y0113696D02*
X0046422Y0113696D01*
X0046378Y0112097D02*
X0023309Y0112097D01*
X0017988Y0112097D02*
X0017029Y0112097D01*
X0017029Y0111059D02*
X0017029Y0116380D01*
X0013272Y0116380D01*
X0012814Y0116257D01*
X0012403Y0116020D01*
X0012068Y0115685D01*
X0011831Y0115274D01*
X0011709Y0114816D01*
X0011709Y0111059D01*
X0017029Y0111059D01*
X0017029Y0110499D02*
X0007400Y0110499D01*
X0007400Y0112097D02*
X0011709Y0112097D01*
X0011709Y0113696D02*
X0007400Y0113696D01*
X0007400Y0115294D02*
X0011843Y0115294D01*
X0017029Y0115294D02*
X0017988Y0115294D01*
X0017988Y0113696D02*
X0017029Y0113696D01*
X0017988Y0110499D02*
X0045330Y0110499D01*
X0045080Y0108900D02*
X0023309Y0108900D01*
X0023309Y0107302D02*
X0045462Y0107302D01*
X0046697Y0105703D02*
X0023081Y0105703D01*
X0017988Y0105703D02*
X0017029Y0105703D01*
X0017029Y0107302D02*
X0017988Y0107302D01*
X0017988Y0108900D02*
X0017029Y0108900D01*
X0011709Y0108900D02*
X0007400Y0108900D01*
X0007400Y0107302D02*
X0011709Y0107302D01*
X0011936Y0105703D02*
X0007400Y0105703D01*
X0019546Y0096112D02*
X0073342Y0096112D01*
X0071744Y0094514D02*
X0021809Y0094514D01*
X0022733Y0092915D02*
X0068619Y0092915D01*
X0066520Y0091317D02*
X0023109Y0091317D01*
X0023083Y0089718D02*
X0065779Y0089718D01*
X0065640Y0088120D02*
X0022421Y0088120D01*
X0074560Y0091317D02*
X0076350Y0091317D01*
X0076178Y0091080D02*
X0075814Y0090365D01*
X0075566Y0089601D01*
X0075440Y0088808D01*
X0075440Y0085407D01*
X0080240Y0085407D01*
X0080240Y0084807D01*
X0080840Y0084807D01*
X0080840Y0085407D01*
X0080240Y0085407D01*
X0080240Y0093507D01*
X0080139Y0093507D01*
X0079346Y0093381D01*
X0078582Y0093133D01*
X0077867Y0092769D01*
X0077218Y0092297D01*
X0076650Y0091730D01*
X0076178Y0091080D01*
X0075604Y0089718D02*
X0075301Y0089718D01*
X0075440Y0088120D02*
X0075440Y0088120D01*
X0075440Y0086521D02*
X0075440Y0086521D01*
X0075440Y0084923D02*
X0080240Y0084923D01*
X0080840Y0084923D02*
X0085640Y0084923D01*
X0085640Y0085407D02*
X0080840Y0085407D01*
X0080840Y0093507D01*
X0080942Y0093507D01*
X0081734Y0093381D01*
X0082498Y0093133D01*
X0083213Y0092769D01*
X0083863Y0092297D01*
X0084430Y0091730D01*
X0084902Y0091080D01*
X0085266Y0090365D01*
X0085515Y0089601D01*
X0085640Y0088808D01*
X0085640Y0085407D01*
X0085640Y0086521D02*
X0085640Y0086521D01*
X0080840Y0086521D02*
X0080240Y0086521D01*
X0080240Y0088120D02*
X0080840Y0088120D01*
X0080840Y0089718D02*
X0080240Y0089718D01*
X0080240Y0091317D02*
X0080840Y0091317D01*
X0080840Y0092915D02*
X0080240Y0092915D01*
X0078154Y0092915D02*
X0076085Y0092915D01*
X0082926Y0092915D02*
X0088619Y0092915D01*
X0086520Y0091317D02*
X0084730Y0091317D01*
X0085477Y0089718D02*
X0085779Y0089718D01*
X0085640Y0088120D02*
X0085640Y0088120D01*
X0085640Y0083324D02*
X0085640Y0083324D01*
X0085640Y0081726D02*
X0085640Y0081726D01*
X0085357Y0080127D02*
X0085932Y0080127D01*
X0086889Y0078529D02*
X0084462Y0078529D01*
X0080840Y0078529D02*
X0080240Y0078529D01*
X0080240Y0080127D02*
X0080840Y0080127D01*
X0080840Y0081726D02*
X0080240Y0081726D01*
X0080240Y0083324D02*
X0080840Y0083324D01*
X0075440Y0083324D02*
X0075440Y0083324D01*
X0075440Y0081726D02*
X0075440Y0081726D01*
X0075724Y0080127D02*
X0075148Y0080127D01*
X0074191Y0078529D02*
X0076618Y0078529D01*
X0087275Y0104105D02*
X0175038Y0104105D01*
X0176079Y0105703D02*
X0088873Y0105703D01*
X0175972Y0107302D02*
X0177036Y0107302D01*
X0300806Y0064142D02*
X0331431Y0064142D01*
X0330159Y0062543D02*
X0318427Y0062543D01*
X0319485Y0060945D02*
X0330159Y0060945D01*
X0330204Y0059346D02*
X0319853Y0059346D01*
X0319707Y0057748D02*
X0331802Y0057748D01*
X0314753Y0057748D02*
X0314753Y0057748D01*
X0314753Y0059005D02*
X0314753Y0059005D01*
X0309653Y0059005D01*
X0309653Y0058603D01*
X0309778Y0057810D01*
X0310026Y0057047D01*
X0310391Y0056332D01*
X0310863Y0055682D01*
X0311430Y0055115D01*
X0312080Y0054643D01*
X0312795Y0054278D01*
X0313558Y0054030D01*
X0314351Y0053905D01*
X0314753Y0053905D01*
X0314753Y0059005D01*
X0314753Y0059346D02*
X0314753Y0059346D01*
X0314753Y0060945D02*
X0314753Y0060945D01*
X0314753Y0062543D02*
X0314753Y0062543D01*
X0311079Y0062543D02*
X0302175Y0062543D01*
X0302805Y0060945D02*
X0310021Y0060945D01*
X0309653Y0059346D02*
X0302805Y0059346D01*
X0302305Y0057748D02*
X0309799Y0057748D01*
X0310523Y0056149D02*
X0301119Y0056149D01*
X0300180Y0054551D02*
X0312260Y0054551D01*
X0314753Y0054551D02*
X0314753Y0054551D01*
X0314753Y0056149D02*
X0314753Y0056149D01*
X0331955Y0080127D02*
X0338720Y0080127D01*
X0338720Y0081726D02*
X0332890Y0081726D01*
X0333245Y0083324D02*
X0338720Y0083324D01*
X0338720Y0084923D02*
X0333118Y0084923D01*
X0332475Y0086521D02*
X0338720Y0086521D01*
X0338720Y0088120D02*
X0331005Y0088120D01*
X0331269Y0089718D02*
X0338720Y0089718D01*
X0338720Y0091317D02*
X0332499Y0091317D01*
X0333045Y0092915D02*
X0338720Y0092915D01*
X0338720Y0094514D02*
X0333045Y0094514D01*
X0332478Y0096112D02*
X0338720Y0096112D01*
X0338720Y0097711D02*
X0331219Y0097711D01*
X0330860Y0099309D02*
X0338720Y0099309D01*
X0338720Y0100908D02*
X0332329Y0100908D01*
X0332991Y0102506D02*
X0338720Y0102506D01*
X0338720Y0104105D02*
X0333045Y0104105D01*
X0332648Y0105703D02*
X0338720Y0105703D01*
X0338720Y0107302D02*
X0331628Y0107302D01*
X0329015Y0108900D02*
X0338720Y0108900D01*
X0338720Y0110499D02*
X0310971Y0110499D01*
X0309373Y0112097D02*
X0338720Y0112097D01*
X0338720Y0113696D02*
X0307774Y0113696D01*
X0306176Y0115294D02*
X0338720Y0115294D01*
X0338720Y0116893D02*
X0304577Y0116893D01*
X0302979Y0118491D02*
X0322338Y0118491D01*
X0328572Y0116921D02*
X0328572Y0116921D01*
X0334805Y0118491D02*
X0338720Y0118491D01*
X0338720Y0120090D02*
X0337613Y0120090D01*
X0337271Y0119748D02*
X0337271Y0119748D01*
X0337271Y0119748D01*
X0326475Y0108900D02*
X0312570Y0108900D01*
X0314168Y0107302D02*
X0323862Y0107302D01*
X0322842Y0105703D02*
X0315767Y0105703D01*
X0317365Y0104105D02*
X0322445Y0104105D01*
X0322498Y0102506D02*
X0318964Y0102506D01*
X0320562Y0100908D02*
X0323161Y0100908D01*
X0322161Y0099309D02*
X0324630Y0099309D01*
X0324270Y0097711D02*
X0323759Y0097711D01*
X0319872Y0029521D02*
X0319872Y0029521D01*
X0085114Y0011346D02*
X0085114Y0011346D01*
D11*
X0167824Y0043257D03*
X0187824Y0043257D03*
X0189320Y0070816D03*
X0169320Y0070816D03*
X0179438Y0102839D03*
X0049280Y0117060D03*
X0334359Y0061131D03*
X0334359Y0041131D03*
D12*
X0179438Y0110839D03*
X0049280Y0109060D03*
D13*
X0327745Y0103690D03*
X0327745Y0093690D03*
X0327745Y0083690D03*
D14*
X0018690Y0059398D03*
X0017509Y0110580D03*
D15*
X0017509Y0090894D03*
X0018690Y0039713D03*
D16*
X0314753Y0043257D03*
X0314753Y0059005D03*
D17*
X0297605Y0059989D02*
X0290405Y0059989D01*
X0290405Y0069989D02*
X0297605Y0069989D01*
X0297605Y0079989D02*
X0290405Y0079989D01*
X0290405Y0089989D02*
X0297605Y0089989D01*
X0297605Y0099989D02*
X0290405Y0099989D01*
X0290405Y0109989D02*
X0297605Y0109989D01*
X0207605Y0109989D02*
X0200405Y0109989D01*
X0200405Y0099989D02*
X0207605Y0099989D01*
X0207605Y0089989D02*
X0200405Y0089989D01*
X0200405Y0079989D02*
X0207605Y0079989D01*
X0207605Y0069989D02*
X0200405Y0069989D01*
X0200405Y0059989D02*
X0207605Y0059989D01*
X0207605Y0049989D02*
X0200405Y0049989D01*
X0200405Y0039989D02*
X0207605Y0039989D01*
X0290405Y0039989D02*
X0297605Y0039989D01*
X0297605Y0049989D02*
X0290405Y0049989D01*
D18*
X0145658Y0090429D02*
X0145658Y0097029D01*
X0135658Y0097029D02*
X0135658Y0090429D01*
X0125658Y0090429D02*
X0125658Y0097029D01*
X0090540Y0088407D02*
X0090540Y0081807D01*
X0080540Y0081807D02*
X0080540Y0088407D01*
X0070540Y0088407D02*
X0070540Y0081807D01*
D19*
X0074040Y0026107D02*
X0074042Y0026268D01*
X0074048Y0026428D01*
X0074058Y0026589D01*
X0074072Y0026749D01*
X0074090Y0026909D01*
X0074111Y0027068D01*
X0074137Y0027227D01*
X0074167Y0027385D01*
X0074200Y0027542D01*
X0074238Y0027699D01*
X0074279Y0027854D01*
X0074324Y0028008D01*
X0074373Y0028161D01*
X0074426Y0028313D01*
X0074482Y0028464D01*
X0074543Y0028613D01*
X0074606Y0028761D01*
X0074674Y0028907D01*
X0074745Y0029051D01*
X0074819Y0029193D01*
X0074897Y0029334D01*
X0074979Y0029472D01*
X0075064Y0029609D01*
X0075152Y0029743D01*
X0075244Y0029875D01*
X0075339Y0030005D01*
X0075437Y0030133D01*
X0075538Y0030258D01*
X0075642Y0030380D01*
X0075749Y0030500D01*
X0075859Y0030617D01*
X0075972Y0030732D01*
X0076088Y0030843D01*
X0076207Y0030952D01*
X0076328Y0031057D01*
X0076452Y0031160D01*
X0076578Y0031260D01*
X0076706Y0031356D01*
X0076837Y0031449D01*
X0076971Y0031539D01*
X0077106Y0031626D01*
X0077244Y0031709D01*
X0077383Y0031789D01*
X0077525Y0031865D01*
X0077668Y0031938D01*
X0077813Y0032007D01*
X0077960Y0032073D01*
X0078108Y0032135D01*
X0078258Y0032193D01*
X0078409Y0032248D01*
X0078562Y0032299D01*
X0078716Y0032346D01*
X0078871Y0032389D01*
X0079027Y0032428D01*
X0079183Y0032464D01*
X0079341Y0032495D01*
X0079499Y0032523D01*
X0079658Y0032547D01*
X0079818Y0032567D01*
X0079978Y0032583D01*
X0080138Y0032595D01*
X0080299Y0032603D01*
X0080460Y0032607D01*
X0080620Y0032607D01*
X0080781Y0032603D01*
X0080942Y0032595D01*
X0081102Y0032583D01*
X0081262Y0032567D01*
X0081422Y0032547D01*
X0081581Y0032523D01*
X0081739Y0032495D01*
X0081897Y0032464D01*
X0082053Y0032428D01*
X0082209Y0032389D01*
X0082364Y0032346D01*
X0082518Y0032299D01*
X0082671Y0032248D01*
X0082822Y0032193D01*
X0082972Y0032135D01*
X0083120Y0032073D01*
X0083267Y0032007D01*
X0083412Y0031938D01*
X0083555Y0031865D01*
X0083697Y0031789D01*
X0083836Y0031709D01*
X0083974Y0031626D01*
X0084109Y0031539D01*
X0084243Y0031449D01*
X0084374Y0031356D01*
X0084502Y0031260D01*
X0084628Y0031160D01*
X0084752Y0031057D01*
X0084873Y0030952D01*
X0084992Y0030843D01*
X0085108Y0030732D01*
X0085221Y0030617D01*
X0085331Y0030500D01*
X0085438Y0030380D01*
X0085542Y0030258D01*
X0085643Y0030133D01*
X0085741Y0030005D01*
X0085836Y0029875D01*
X0085928Y0029743D01*
X0086016Y0029609D01*
X0086101Y0029472D01*
X0086183Y0029334D01*
X0086261Y0029193D01*
X0086335Y0029051D01*
X0086406Y0028907D01*
X0086474Y0028761D01*
X0086537Y0028613D01*
X0086598Y0028464D01*
X0086654Y0028313D01*
X0086707Y0028161D01*
X0086756Y0028008D01*
X0086801Y0027854D01*
X0086842Y0027699D01*
X0086880Y0027542D01*
X0086913Y0027385D01*
X0086943Y0027227D01*
X0086969Y0027068D01*
X0086990Y0026909D01*
X0087008Y0026749D01*
X0087022Y0026589D01*
X0087032Y0026428D01*
X0087038Y0026268D01*
X0087040Y0026107D01*
X0087038Y0025946D01*
X0087032Y0025786D01*
X0087022Y0025625D01*
X0087008Y0025465D01*
X0086990Y0025305D01*
X0086969Y0025146D01*
X0086943Y0024987D01*
X0086913Y0024829D01*
X0086880Y0024672D01*
X0086842Y0024515D01*
X0086801Y0024360D01*
X0086756Y0024206D01*
X0086707Y0024053D01*
X0086654Y0023901D01*
X0086598Y0023750D01*
X0086537Y0023601D01*
X0086474Y0023453D01*
X0086406Y0023307D01*
X0086335Y0023163D01*
X0086261Y0023021D01*
X0086183Y0022880D01*
X0086101Y0022742D01*
X0086016Y0022605D01*
X0085928Y0022471D01*
X0085836Y0022339D01*
X0085741Y0022209D01*
X0085643Y0022081D01*
X0085542Y0021956D01*
X0085438Y0021834D01*
X0085331Y0021714D01*
X0085221Y0021597D01*
X0085108Y0021482D01*
X0084992Y0021371D01*
X0084873Y0021262D01*
X0084752Y0021157D01*
X0084628Y0021054D01*
X0084502Y0020954D01*
X0084374Y0020858D01*
X0084243Y0020765D01*
X0084109Y0020675D01*
X0083974Y0020588D01*
X0083836Y0020505D01*
X0083697Y0020425D01*
X0083555Y0020349D01*
X0083412Y0020276D01*
X0083267Y0020207D01*
X0083120Y0020141D01*
X0082972Y0020079D01*
X0082822Y0020021D01*
X0082671Y0019966D01*
X0082518Y0019915D01*
X0082364Y0019868D01*
X0082209Y0019825D01*
X0082053Y0019786D01*
X0081897Y0019750D01*
X0081739Y0019719D01*
X0081581Y0019691D01*
X0081422Y0019667D01*
X0081262Y0019647D01*
X0081102Y0019631D01*
X0080942Y0019619D01*
X0080781Y0019611D01*
X0080620Y0019607D01*
X0080460Y0019607D01*
X0080299Y0019611D01*
X0080138Y0019619D01*
X0079978Y0019631D01*
X0079818Y0019647D01*
X0079658Y0019667D01*
X0079499Y0019691D01*
X0079341Y0019719D01*
X0079183Y0019750D01*
X0079027Y0019786D01*
X0078871Y0019825D01*
X0078716Y0019868D01*
X0078562Y0019915D01*
X0078409Y0019966D01*
X0078258Y0020021D01*
X0078108Y0020079D01*
X0077960Y0020141D01*
X0077813Y0020207D01*
X0077668Y0020276D01*
X0077525Y0020349D01*
X0077383Y0020425D01*
X0077244Y0020505D01*
X0077106Y0020588D01*
X0076971Y0020675D01*
X0076837Y0020765D01*
X0076706Y0020858D01*
X0076578Y0020954D01*
X0076452Y0021054D01*
X0076328Y0021157D01*
X0076207Y0021262D01*
X0076088Y0021371D01*
X0075972Y0021482D01*
X0075859Y0021597D01*
X0075749Y0021714D01*
X0075642Y0021834D01*
X0075538Y0021956D01*
X0075437Y0022081D01*
X0075339Y0022209D01*
X0075244Y0022339D01*
X0075152Y0022471D01*
X0075064Y0022605D01*
X0074979Y0022742D01*
X0074897Y0022880D01*
X0074819Y0023021D01*
X0074745Y0023163D01*
X0074674Y0023307D01*
X0074606Y0023453D01*
X0074543Y0023601D01*
X0074482Y0023750D01*
X0074426Y0023901D01*
X0074373Y0024053D01*
X0074324Y0024206D01*
X0074279Y0024360D01*
X0074238Y0024515D01*
X0074200Y0024672D01*
X0074167Y0024829D01*
X0074137Y0024987D01*
X0074111Y0025146D01*
X0074090Y0025305D01*
X0074072Y0025465D01*
X0074058Y0025625D01*
X0074048Y0025786D01*
X0074042Y0025946D01*
X0074040Y0026107D01*
X0075028Y0025422D02*
X0075030Y0025570D01*
X0075036Y0025718D01*
X0075046Y0025866D01*
X0075060Y0026013D01*
X0075078Y0026160D01*
X0075099Y0026306D01*
X0075125Y0026452D01*
X0075155Y0026597D01*
X0075188Y0026741D01*
X0075226Y0026884D01*
X0075267Y0027026D01*
X0075312Y0027167D01*
X0075360Y0027307D01*
X0075413Y0027446D01*
X0075469Y0027583D01*
X0075529Y0027718D01*
X0075592Y0027852D01*
X0075659Y0027984D01*
X0075730Y0028114D01*
X0075804Y0028242D01*
X0075881Y0028368D01*
X0075962Y0028492D01*
X0076046Y0028614D01*
X0076133Y0028733D01*
X0076224Y0028850D01*
X0076318Y0028965D01*
X0076414Y0029077D01*
X0076514Y0029187D01*
X0076616Y0029293D01*
X0076722Y0029397D01*
X0076830Y0029498D01*
X0076941Y0029596D01*
X0077054Y0029692D01*
X0077170Y0029784D01*
X0077288Y0029873D01*
X0077409Y0029958D01*
X0077532Y0030041D01*
X0077657Y0030120D01*
X0077784Y0030196D01*
X0077913Y0030268D01*
X0078044Y0030337D01*
X0078177Y0030402D01*
X0078312Y0030463D01*
X0078448Y0030521D01*
X0078585Y0030576D01*
X0078724Y0030626D01*
X0078865Y0030673D01*
X0079006Y0030716D01*
X0079149Y0030756D01*
X0079293Y0030791D01*
X0079437Y0030823D01*
X0079583Y0030850D01*
X0079729Y0030874D01*
X0079876Y0030894D01*
X0080023Y0030910D01*
X0080170Y0030922D01*
X0080318Y0030930D01*
X0080466Y0030934D01*
X0080614Y0030934D01*
X0080762Y0030930D01*
X0080910Y0030922D01*
X0081057Y0030910D01*
X0081204Y0030894D01*
X0081351Y0030874D01*
X0081497Y0030850D01*
X0081643Y0030823D01*
X0081787Y0030791D01*
X0081931Y0030756D01*
X0082074Y0030716D01*
X0082215Y0030673D01*
X0082356Y0030626D01*
X0082495Y0030576D01*
X0082632Y0030521D01*
X0082768Y0030463D01*
X0082903Y0030402D01*
X0083036Y0030337D01*
X0083167Y0030268D01*
X0083296Y0030196D01*
X0083423Y0030120D01*
X0083548Y0030041D01*
X0083671Y0029958D01*
X0083792Y0029873D01*
X0083910Y0029784D01*
X0084026Y0029692D01*
X0084139Y0029596D01*
X0084250Y0029498D01*
X0084358Y0029397D01*
X0084464Y0029293D01*
X0084566Y0029187D01*
X0084666Y0029077D01*
X0084762Y0028965D01*
X0084856Y0028850D01*
X0084947Y0028733D01*
X0085034Y0028614D01*
X0085118Y0028492D01*
X0085199Y0028368D01*
X0085276Y0028242D01*
X0085350Y0028114D01*
X0085421Y0027984D01*
X0085488Y0027852D01*
X0085551Y0027718D01*
X0085611Y0027583D01*
X0085667Y0027446D01*
X0085720Y0027307D01*
X0085768Y0027167D01*
X0085813Y0027026D01*
X0085854Y0026884D01*
X0085892Y0026741D01*
X0085925Y0026597D01*
X0085955Y0026452D01*
X0085981Y0026306D01*
X0086002Y0026160D01*
X0086020Y0026013D01*
X0086034Y0025866D01*
X0086044Y0025718D01*
X0086050Y0025570D01*
X0086052Y0025422D01*
X0086050Y0025274D01*
X0086044Y0025126D01*
X0086034Y0024978D01*
X0086020Y0024831D01*
X0086002Y0024684D01*
X0085981Y0024538D01*
X0085955Y0024392D01*
X0085925Y0024247D01*
X0085892Y0024103D01*
X0085854Y0023960D01*
X0085813Y0023818D01*
X0085768Y0023677D01*
X0085720Y0023537D01*
X0085667Y0023398D01*
X0085611Y0023261D01*
X0085551Y0023126D01*
X0085488Y0022992D01*
X0085421Y0022860D01*
X0085350Y0022730D01*
X0085276Y0022602D01*
X0085199Y0022476D01*
X0085118Y0022352D01*
X0085034Y0022230D01*
X0084947Y0022111D01*
X0084856Y0021994D01*
X0084762Y0021879D01*
X0084666Y0021767D01*
X0084566Y0021657D01*
X0084464Y0021551D01*
X0084358Y0021447D01*
X0084250Y0021346D01*
X0084139Y0021248D01*
X0084026Y0021152D01*
X0083910Y0021060D01*
X0083792Y0020971D01*
X0083671Y0020886D01*
X0083548Y0020803D01*
X0083423Y0020724D01*
X0083296Y0020648D01*
X0083167Y0020576D01*
X0083036Y0020507D01*
X0082903Y0020442D01*
X0082768Y0020381D01*
X0082632Y0020323D01*
X0082495Y0020268D01*
X0082356Y0020218D01*
X0082215Y0020171D01*
X0082074Y0020128D01*
X0081931Y0020088D01*
X0081787Y0020053D01*
X0081643Y0020021D01*
X0081497Y0019994D01*
X0081351Y0019970D01*
X0081204Y0019950D01*
X0081057Y0019934D01*
X0080910Y0019922D01*
X0080762Y0019914D01*
X0080614Y0019910D01*
X0080466Y0019910D01*
X0080318Y0019914D01*
X0080170Y0019922D01*
X0080023Y0019934D01*
X0079876Y0019950D01*
X0079729Y0019970D01*
X0079583Y0019994D01*
X0079437Y0020021D01*
X0079293Y0020053D01*
X0079149Y0020088D01*
X0079006Y0020128D01*
X0078865Y0020171D01*
X0078724Y0020218D01*
X0078585Y0020268D01*
X0078448Y0020323D01*
X0078312Y0020381D01*
X0078177Y0020442D01*
X0078044Y0020507D01*
X0077913Y0020576D01*
X0077784Y0020648D01*
X0077657Y0020724D01*
X0077532Y0020803D01*
X0077409Y0020886D01*
X0077288Y0020971D01*
X0077170Y0021060D01*
X0077054Y0021152D01*
X0076941Y0021248D01*
X0076830Y0021346D01*
X0076722Y0021447D01*
X0076616Y0021551D01*
X0076514Y0021657D01*
X0076414Y0021767D01*
X0076318Y0021879D01*
X0076224Y0021994D01*
X0076133Y0022111D01*
X0076046Y0022230D01*
X0075962Y0022352D01*
X0075881Y0022476D01*
X0075804Y0022602D01*
X0075730Y0022730D01*
X0075659Y0022860D01*
X0075592Y0022992D01*
X0075529Y0023126D01*
X0075469Y0023261D01*
X0075413Y0023398D01*
X0075360Y0023537D01*
X0075312Y0023677D01*
X0075267Y0023818D01*
X0075226Y0023960D01*
X0075188Y0024103D01*
X0075155Y0024247D01*
X0075125Y0024392D01*
X0075099Y0024538D01*
X0075078Y0024684D01*
X0075060Y0024831D01*
X0075046Y0024978D01*
X0075036Y0025126D01*
X0075030Y0025274D01*
X0075028Y0025422D01*
X0130146Y0025422D02*
X0130148Y0025570D01*
X0130154Y0025718D01*
X0130164Y0025866D01*
X0130178Y0026013D01*
X0130196Y0026160D01*
X0130217Y0026306D01*
X0130243Y0026452D01*
X0130273Y0026597D01*
X0130306Y0026741D01*
X0130344Y0026884D01*
X0130385Y0027026D01*
X0130430Y0027167D01*
X0130478Y0027307D01*
X0130531Y0027446D01*
X0130587Y0027583D01*
X0130647Y0027718D01*
X0130710Y0027852D01*
X0130777Y0027984D01*
X0130848Y0028114D01*
X0130922Y0028242D01*
X0130999Y0028368D01*
X0131080Y0028492D01*
X0131164Y0028614D01*
X0131251Y0028733D01*
X0131342Y0028850D01*
X0131436Y0028965D01*
X0131532Y0029077D01*
X0131632Y0029187D01*
X0131734Y0029293D01*
X0131840Y0029397D01*
X0131948Y0029498D01*
X0132059Y0029596D01*
X0132172Y0029692D01*
X0132288Y0029784D01*
X0132406Y0029873D01*
X0132527Y0029958D01*
X0132650Y0030041D01*
X0132775Y0030120D01*
X0132902Y0030196D01*
X0133031Y0030268D01*
X0133162Y0030337D01*
X0133295Y0030402D01*
X0133430Y0030463D01*
X0133566Y0030521D01*
X0133703Y0030576D01*
X0133842Y0030626D01*
X0133983Y0030673D01*
X0134124Y0030716D01*
X0134267Y0030756D01*
X0134411Y0030791D01*
X0134555Y0030823D01*
X0134701Y0030850D01*
X0134847Y0030874D01*
X0134994Y0030894D01*
X0135141Y0030910D01*
X0135288Y0030922D01*
X0135436Y0030930D01*
X0135584Y0030934D01*
X0135732Y0030934D01*
X0135880Y0030930D01*
X0136028Y0030922D01*
X0136175Y0030910D01*
X0136322Y0030894D01*
X0136469Y0030874D01*
X0136615Y0030850D01*
X0136761Y0030823D01*
X0136905Y0030791D01*
X0137049Y0030756D01*
X0137192Y0030716D01*
X0137333Y0030673D01*
X0137474Y0030626D01*
X0137613Y0030576D01*
X0137750Y0030521D01*
X0137886Y0030463D01*
X0138021Y0030402D01*
X0138154Y0030337D01*
X0138285Y0030268D01*
X0138414Y0030196D01*
X0138541Y0030120D01*
X0138666Y0030041D01*
X0138789Y0029958D01*
X0138910Y0029873D01*
X0139028Y0029784D01*
X0139144Y0029692D01*
X0139257Y0029596D01*
X0139368Y0029498D01*
X0139476Y0029397D01*
X0139582Y0029293D01*
X0139684Y0029187D01*
X0139784Y0029077D01*
X0139880Y0028965D01*
X0139974Y0028850D01*
X0140065Y0028733D01*
X0140152Y0028614D01*
X0140236Y0028492D01*
X0140317Y0028368D01*
X0140394Y0028242D01*
X0140468Y0028114D01*
X0140539Y0027984D01*
X0140606Y0027852D01*
X0140669Y0027718D01*
X0140729Y0027583D01*
X0140785Y0027446D01*
X0140838Y0027307D01*
X0140886Y0027167D01*
X0140931Y0027026D01*
X0140972Y0026884D01*
X0141010Y0026741D01*
X0141043Y0026597D01*
X0141073Y0026452D01*
X0141099Y0026306D01*
X0141120Y0026160D01*
X0141138Y0026013D01*
X0141152Y0025866D01*
X0141162Y0025718D01*
X0141168Y0025570D01*
X0141170Y0025422D01*
X0141168Y0025274D01*
X0141162Y0025126D01*
X0141152Y0024978D01*
X0141138Y0024831D01*
X0141120Y0024684D01*
X0141099Y0024538D01*
X0141073Y0024392D01*
X0141043Y0024247D01*
X0141010Y0024103D01*
X0140972Y0023960D01*
X0140931Y0023818D01*
X0140886Y0023677D01*
X0140838Y0023537D01*
X0140785Y0023398D01*
X0140729Y0023261D01*
X0140669Y0023126D01*
X0140606Y0022992D01*
X0140539Y0022860D01*
X0140468Y0022730D01*
X0140394Y0022602D01*
X0140317Y0022476D01*
X0140236Y0022352D01*
X0140152Y0022230D01*
X0140065Y0022111D01*
X0139974Y0021994D01*
X0139880Y0021879D01*
X0139784Y0021767D01*
X0139684Y0021657D01*
X0139582Y0021551D01*
X0139476Y0021447D01*
X0139368Y0021346D01*
X0139257Y0021248D01*
X0139144Y0021152D01*
X0139028Y0021060D01*
X0138910Y0020971D01*
X0138789Y0020886D01*
X0138666Y0020803D01*
X0138541Y0020724D01*
X0138414Y0020648D01*
X0138285Y0020576D01*
X0138154Y0020507D01*
X0138021Y0020442D01*
X0137886Y0020381D01*
X0137750Y0020323D01*
X0137613Y0020268D01*
X0137474Y0020218D01*
X0137333Y0020171D01*
X0137192Y0020128D01*
X0137049Y0020088D01*
X0136905Y0020053D01*
X0136761Y0020021D01*
X0136615Y0019994D01*
X0136469Y0019970D01*
X0136322Y0019950D01*
X0136175Y0019934D01*
X0136028Y0019922D01*
X0135880Y0019914D01*
X0135732Y0019910D01*
X0135584Y0019910D01*
X0135436Y0019914D01*
X0135288Y0019922D01*
X0135141Y0019934D01*
X0134994Y0019950D01*
X0134847Y0019970D01*
X0134701Y0019994D01*
X0134555Y0020021D01*
X0134411Y0020053D01*
X0134267Y0020088D01*
X0134124Y0020128D01*
X0133983Y0020171D01*
X0133842Y0020218D01*
X0133703Y0020268D01*
X0133566Y0020323D01*
X0133430Y0020381D01*
X0133295Y0020442D01*
X0133162Y0020507D01*
X0133031Y0020576D01*
X0132902Y0020648D01*
X0132775Y0020724D01*
X0132650Y0020803D01*
X0132527Y0020886D01*
X0132406Y0020971D01*
X0132288Y0021060D01*
X0132172Y0021152D01*
X0132059Y0021248D01*
X0131948Y0021346D01*
X0131840Y0021447D01*
X0131734Y0021551D01*
X0131632Y0021657D01*
X0131532Y0021767D01*
X0131436Y0021879D01*
X0131342Y0021994D01*
X0131251Y0022111D01*
X0131164Y0022230D01*
X0131080Y0022352D01*
X0130999Y0022476D01*
X0130922Y0022602D01*
X0130848Y0022730D01*
X0130777Y0022860D01*
X0130710Y0022992D01*
X0130647Y0023126D01*
X0130587Y0023261D01*
X0130531Y0023398D01*
X0130478Y0023537D01*
X0130430Y0023677D01*
X0130385Y0023818D01*
X0130344Y0023960D01*
X0130306Y0024103D01*
X0130273Y0024247D01*
X0130243Y0024392D01*
X0130217Y0024538D01*
X0130196Y0024684D01*
X0130178Y0024831D01*
X0130164Y0024978D01*
X0130154Y0025126D01*
X0130148Y0025274D01*
X0130146Y0025422D01*
X0129158Y0024729D02*
X0129160Y0024890D01*
X0129166Y0025050D01*
X0129176Y0025211D01*
X0129190Y0025371D01*
X0129208Y0025531D01*
X0129229Y0025690D01*
X0129255Y0025849D01*
X0129285Y0026007D01*
X0129318Y0026164D01*
X0129356Y0026321D01*
X0129397Y0026476D01*
X0129442Y0026630D01*
X0129491Y0026783D01*
X0129544Y0026935D01*
X0129600Y0027086D01*
X0129661Y0027235D01*
X0129724Y0027383D01*
X0129792Y0027529D01*
X0129863Y0027673D01*
X0129937Y0027815D01*
X0130015Y0027956D01*
X0130097Y0028094D01*
X0130182Y0028231D01*
X0130270Y0028365D01*
X0130362Y0028497D01*
X0130457Y0028627D01*
X0130555Y0028755D01*
X0130656Y0028880D01*
X0130760Y0029002D01*
X0130867Y0029122D01*
X0130977Y0029239D01*
X0131090Y0029354D01*
X0131206Y0029465D01*
X0131325Y0029574D01*
X0131446Y0029679D01*
X0131570Y0029782D01*
X0131696Y0029882D01*
X0131824Y0029978D01*
X0131955Y0030071D01*
X0132089Y0030161D01*
X0132224Y0030248D01*
X0132362Y0030331D01*
X0132501Y0030411D01*
X0132643Y0030487D01*
X0132786Y0030560D01*
X0132931Y0030629D01*
X0133078Y0030695D01*
X0133226Y0030757D01*
X0133376Y0030815D01*
X0133527Y0030870D01*
X0133680Y0030921D01*
X0133834Y0030968D01*
X0133989Y0031011D01*
X0134145Y0031050D01*
X0134301Y0031086D01*
X0134459Y0031117D01*
X0134617Y0031145D01*
X0134776Y0031169D01*
X0134936Y0031189D01*
X0135096Y0031205D01*
X0135256Y0031217D01*
X0135417Y0031225D01*
X0135578Y0031229D01*
X0135738Y0031229D01*
X0135899Y0031225D01*
X0136060Y0031217D01*
X0136220Y0031205D01*
X0136380Y0031189D01*
X0136540Y0031169D01*
X0136699Y0031145D01*
X0136857Y0031117D01*
X0137015Y0031086D01*
X0137171Y0031050D01*
X0137327Y0031011D01*
X0137482Y0030968D01*
X0137636Y0030921D01*
X0137789Y0030870D01*
X0137940Y0030815D01*
X0138090Y0030757D01*
X0138238Y0030695D01*
X0138385Y0030629D01*
X0138530Y0030560D01*
X0138673Y0030487D01*
X0138815Y0030411D01*
X0138954Y0030331D01*
X0139092Y0030248D01*
X0139227Y0030161D01*
X0139361Y0030071D01*
X0139492Y0029978D01*
X0139620Y0029882D01*
X0139746Y0029782D01*
X0139870Y0029679D01*
X0139991Y0029574D01*
X0140110Y0029465D01*
X0140226Y0029354D01*
X0140339Y0029239D01*
X0140449Y0029122D01*
X0140556Y0029002D01*
X0140660Y0028880D01*
X0140761Y0028755D01*
X0140859Y0028627D01*
X0140954Y0028497D01*
X0141046Y0028365D01*
X0141134Y0028231D01*
X0141219Y0028094D01*
X0141301Y0027956D01*
X0141379Y0027815D01*
X0141453Y0027673D01*
X0141524Y0027529D01*
X0141592Y0027383D01*
X0141655Y0027235D01*
X0141716Y0027086D01*
X0141772Y0026935D01*
X0141825Y0026783D01*
X0141874Y0026630D01*
X0141919Y0026476D01*
X0141960Y0026321D01*
X0141998Y0026164D01*
X0142031Y0026007D01*
X0142061Y0025849D01*
X0142087Y0025690D01*
X0142108Y0025531D01*
X0142126Y0025371D01*
X0142140Y0025211D01*
X0142150Y0025050D01*
X0142156Y0024890D01*
X0142158Y0024729D01*
X0142156Y0024568D01*
X0142150Y0024408D01*
X0142140Y0024247D01*
X0142126Y0024087D01*
X0142108Y0023927D01*
X0142087Y0023768D01*
X0142061Y0023609D01*
X0142031Y0023451D01*
X0141998Y0023294D01*
X0141960Y0023137D01*
X0141919Y0022982D01*
X0141874Y0022828D01*
X0141825Y0022675D01*
X0141772Y0022523D01*
X0141716Y0022372D01*
X0141655Y0022223D01*
X0141592Y0022075D01*
X0141524Y0021929D01*
X0141453Y0021785D01*
X0141379Y0021643D01*
X0141301Y0021502D01*
X0141219Y0021364D01*
X0141134Y0021227D01*
X0141046Y0021093D01*
X0140954Y0020961D01*
X0140859Y0020831D01*
X0140761Y0020703D01*
X0140660Y0020578D01*
X0140556Y0020456D01*
X0140449Y0020336D01*
X0140339Y0020219D01*
X0140226Y0020104D01*
X0140110Y0019993D01*
X0139991Y0019884D01*
X0139870Y0019779D01*
X0139746Y0019676D01*
X0139620Y0019576D01*
X0139492Y0019480D01*
X0139361Y0019387D01*
X0139227Y0019297D01*
X0139092Y0019210D01*
X0138954Y0019127D01*
X0138815Y0019047D01*
X0138673Y0018971D01*
X0138530Y0018898D01*
X0138385Y0018829D01*
X0138238Y0018763D01*
X0138090Y0018701D01*
X0137940Y0018643D01*
X0137789Y0018588D01*
X0137636Y0018537D01*
X0137482Y0018490D01*
X0137327Y0018447D01*
X0137171Y0018408D01*
X0137015Y0018372D01*
X0136857Y0018341D01*
X0136699Y0018313D01*
X0136540Y0018289D01*
X0136380Y0018269D01*
X0136220Y0018253D01*
X0136060Y0018241D01*
X0135899Y0018233D01*
X0135738Y0018229D01*
X0135578Y0018229D01*
X0135417Y0018233D01*
X0135256Y0018241D01*
X0135096Y0018253D01*
X0134936Y0018269D01*
X0134776Y0018289D01*
X0134617Y0018313D01*
X0134459Y0018341D01*
X0134301Y0018372D01*
X0134145Y0018408D01*
X0133989Y0018447D01*
X0133834Y0018490D01*
X0133680Y0018537D01*
X0133527Y0018588D01*
X0133376Y0018643D01*
X0133226Y0018701D01*
X0133078Y0018763D01*
X0132931Y0018829D01*
X0132786Y0018898D01*
X0132643Y0018971D01*
X0132501Y0019047D01*
X0132362Y0019127D01*
X0132224Y0019210D01*
X0132089Y0019297D01*
X0131955Y0019387D01*
X0131824Y0019480D01*
X0131696Y0019576D01*
X0131570Y0019676D01*
X0131446Y0019779D01*
X0131325Y0019884D01*
X0131206Y0019993D01*
X0131090Y0020104D01*
X0130977Y0020219D01*
X0130867Y0020336D01*
X0130760Y0020456D01*
X0130656Y0020578D01*
X0130555Y0020703D01*
X0130457Y0020831D01*
X0130362Y0020961D01*
X0130270Y0021093D01*
X0130182Y0021227D01*
X0130097Y0021364D01*
X0130015Y0021502D01*
X0129937Y0021643D01*
X0129863Y0021785D01*
X0129792Y0021929D01*
X0129724Y0022075D01*
X0129661Y0022223D01*
X0129600Y0022372D01*
X0129544Y0022523D01*
X0129491Y0022675D01*
X0129442Y0022828D01*
X0129397Y0022982D01*
X0129356Y0023137D01*
X0129318Y0023294D01*
X0129285Y0023451D01*
X0129255Y0023609D01*
X0129229Y0023768D01*
X0129208Y0023927D01*
X0129190Y0024087D01*
X0129176Y0024247D01*
X0129166Y0024408D01*
X0129160Y0024568D01*
X0129158Y0024729D01*
X0323060Y0017548D02*
X0323062Y0017696D01*
X0323068Y0017844D01*
X0323078Y0017992D01*
X0323092Y0018139D01*
X0323110Y0018286D01*
X0323131Y0018432D01*
X0323157Y0018578D01*
X0323187Y0018723D01*
X0323220Y0018867D01*
X0323258Y0019010D01*
X0323299Y0019152D01*
X0323344Y0019293D01*
X0323392Y0019433D01*
X0323445Y0019572D01*
X0323501Y0019709D01*
X0323561Y0019844D01*
X0323624Y0019978D01*
X0323691Y0020110D01*
X0323762Y0020240D01*
X0323836Y0020368D01*
X0323913Y0020494D01*
X0323994Y0020618D01*
X0324078Y0020740D01*
X0324165Y0020859D01*
X0324256Y0020976D01*
X0324350Y0021091D01*
X0324446Y0021203D01*
X0324546Y0021313D01*
X0324648Y0021419D01*
X0324754Y0021523D01*
X0324862Y0021624D01*
X0324973Y0021722D01*
X0325086Y0021818D01*
X0325202Y0021910D01*
X0325320Y0021999D01*
X0325441Y0022084D01*
X0325564Y0022167D01*
X0325689Y0022246D01*
X0325816Y0022322D01*
X0325945Y0022394D01*
X0326076Y0022463D01*
X0326209Y0022528D01*
X0326344Y0022589D01*
X0326480Y0022647D01*
X0326617Y0022702D01*
X0326756Y0022752D01*
X0326897Y0022799D01*
X0327038Y0022842D01*
X0327181Y0022882D01*
X0327325Y0022917D01*
X0327469Y0022949D01*
X0327615Y0022976D01*
X0327761Y0023000D01*
X0327908Y0023020D01*
X0328055Y0023036D01*
X0328202Y0023048D01*
X0328350Y0023056D01*
X0328498Y0023060D01*
X0328646Y0023060D01*
X0328794Y0023056D01*
X0328942Y0023048D01*
X0329089Y0023036D01*
X0329236Y0023020D01*
X0329383Y0023000D01*
X0329529Y0022976D01*
X0329675Y0022949D01*
X0329819Y0022917D01*
X0329963Y0022882D01*
X0330106Y0022842D01*
X0330247Y0022799D01*
X0330388Y0022752D01*
X0330527Y0022702D01*
X0330664Y0022647D01*
X0330800Y0022589D01*
X0330935Y0022528D01*
X0331068Y0022463D01*
X0331199Y0022394D01*
X0331328Y0022322D01*
X0331455Y0022246D01*
X0331580Y0022167D01*
X0331703Y0022084D01*
X0331824Y0021999D01*
X0331942Y0021910D01*
X0332058Y0021818D01*
X0332171Y0021722D01*
X0332282Y0021624D01*
X0332390Y0021523D01*
X0332496Y0021419D01*
X0332598Y0021313D01*
X0332698Y0021203D01*
X0332794Y0021091D01*
X0332888Y0020976D01*
X0332979Y0020859D01*
X0333066Y0020740D01*
X0333150Y0020618D01*
X0333231Y0020494D01*
X0333308Y0020368D01*
X0333382Y0020240D01*
X0333453Y0020110D01*
X0333520Y0019978D01*
X0333583Y0019844D01*
X0333643Y0019709D01*
X0333699Y0019572D01*
X0333752Y0019433D01*
X0333800Y0019293D01*
X0333845Y0019152D01*
X0333886Y0019010D01*
X0333924Y0018867D01*
X0333957Y0018723D01*
X0333987Y0018578D01*
X0334013Y0018432D01*
X0334034Y0018286D01*
X0334052Y0018139D01*
X0334066Y0017992D01*
X0334076Y0017844D01*
X0334082Y0017696D01*
X0334084Y0017548D01*
X0334082Y0017400D01*
X0334076Y0017252D01*
X0334066Y0017104D01*
X0334052Y0016957D01*
X0334034Y0016810D01*
X0334013Y0016664D01*
X0333987Y0016518D01*
X0333957Y0016373D01*
X0333924Y0016229D01*
X0333886Y0016086D01*
X0333845Y0015944D01*
X0333800Y0015803D01*
X0333752Y0015663D01*
X0333699Y0015524D01*
X0333643Y0015387D01*
X0333583Y0015252D01*
X0333520Y0015118D01*
X0333453Y0014986D01*
X0333382Y0014856D01*
X0333308Y0014728D01*
X0333231Y0014602D01*
X0333150Y0014478D01*
X0333066Y0014356D01*
X0332979Y0014237D01*
X0332888Y0014120D01*
X0332794Y0014005D01*
X0332698Y0013893D01*
X0332598Y0013783D01*
X0332496Y0013677D01*
X0332390Y0013573D01*
X0332282Y0013472D01*
X0332171Y0013374D01*
X0332058Y0013278D01*
X0331942Y0013186D01*
X0331824Y0013097D01*
X0331703Y0013012D01*
X0331580Y0012929D01*
X0331455Y0012850D01*
X0331328Y0012774D01*
X0331199Y0012702D01*
X0331068Y0012633D01*
X0330935Y0012568D01*
X0330800Y0012507D01*
X0330664Y0012449D01*
X0330527Y0012394D01*
X0330388Y0012344D01*
X0330247Y0012297D01*
X0330106Y0012254D01*
X0329963Y0012214D01*
X0329819Y0012179D01*
X0329675Y0012147D01*
X0329529Y0012120D01*
X0329383Y0012096D01*
X0329236Y0012076D01*
X0329089Y0012060D01*
X0328942Y0012048D01*
X0328794Y0012040D01*
X0328646Y0012036D01*
X0328498Y0012036D01*
X0328350Y0012040D01*
X0328202Y0012048D01*
X0328055Y0012060D01*
X0327908Y0012076D01*
X0327761Y0012096D01*
X0327615Y0012120D01*
X0327469Y0012147D01*
X0327325Y0012179D01*
X0327181Y0012214D01*
X0327038Y0012254D01*
X0326897Y0012297D01*
X0326756Y0012344D01*
X0326617Y0012394D01*
X0326480Y0012449D01*
X0326344Y0012507D01*
X0326209Y0012568D01*
X0326076Y0012633D01*
X0325945Y0012702D01*
X0325816Y0012774D01*
X0325689Y0012850D01*
X0325564Y0012929D01*
X0325441Y0013012D01*
X0325320Y0013097D01*
X0325202Y0013186D01*
X0325086Y0013278D01*
X0324973Y0013374D01*
X0324862Y0013472D01*
X0324754Y0013573D01*
X0324648Y0013677D01*
X0324546Y0013783D01*
X0324446Y0013893D01*
X0324350Y0014005D01*
X0324256Y0014120D01*
X0324165Y0014237D01*
X0324078Y0014356D01*
X0323994Y0014478D01*
X0323913Y0014602D01*
X0323836Y0014728D01*
X0323762Y0014856D01*
X0323691Y0014986D01*
X0323624Y0015118D01*
X0323561Y0015252D01*
X0323501Y0015387D01*
X0323445Y0015524D01*
X0323392Y0015663D01*
X0323344Y0015803D01*
X0323299Y0015944D01*
X0323258Y0016086D01*
X0323220Y0016229D01*
X0323187Y0016373D01*
X0323157Y0016518D01*
X0323131Y0016664D01*
X0323110Y0016810D01*
X0323092Y0016957D01*
X0323078Y0017104D01*
X0323068Y0017252D01*
X0323062Y0017400D01*
X0323060Y0017548D01*
X0323060Y0131721D02*
X0323062Y0131869D01*
X0323068Y0132017D01*
X0323078Y0132165D01*
X0323092Y0132312D01*
X0323110Y0132459D01*
X0323131Y0132605D01*
X0323157Y0132751D01*
X0323187Y0132896D01*
X0323220Y0133040D01*
X0323258Y0133183D01*
X0323299Y0133325D01*
X0323344Y0133466D01*
X0323392Y0133606D01*
X0323445Y0133745D01*
X0323501Y0133882D01*
X0323561Y0134017D01*
X0323624Y0134151D01*
X0323691Y0134283D01*
X0323762Y0134413D01*
X0323836Y0134541D01*
X0323913Y0134667D01*
X0323994Y0134791D01*
X0324078Y0134913D01*
X0324165Y0135032D01*
X0324256Y0135149D01*
X0324350Y0135264D01*
X0324446Y0135376D01*
X0324546Y0135486D01*
X0324648Y0135592D01*
X0324754Y0135696D01*
X0324862Y0135797D01*
X0324973Y0135895D01*
X0325086Y0135991D01*
X0325202Y0136083D01*
X0325320Y0136172D01*
X0325441Y0136257D01*
X0325564Y0136340D01*
X0325689Y0136419D01*
X0325816Y0136495D01*
X0325945Y0136567D01*
X0326076Y0136636D01*
X0326209Y0136701D01*
X0326344Y0136762D01*
X0326480Y0136820D01*
X0326617Y0136875D01*
X0326756Y0136925D01*
X0326897Y0136972D01*
X0327038Y0137015D01*
X0327181Y0137055D01*
X0327325Y0137090D01*
X0327469Y0137122D01*
X0327615Y0137149D01*
X0327761Y0137173D01*
X0327908Y0137193D01*
X0328055Y0137209D01*
X0328202Y0137221D01*
X0328350Y0137229D01*
X0328498Y0137233D01*
X0328646Y0137233D01*
X0328794Y0137229D01*
X0328942Y0137221D01*
X0329089Y0137209D01*
X0329236Y0137193D01*
X0329383Y0137173D01*
X0329529Y0137149D01*
X0329675Y0137122D01*
X0329819Y0137090D01*
X0329963Y0137055D01*
X0330106Y0137015D01*
X0330247Y0136972D01*
X0330388Y0136925D01*
X0330527Y0136875D01*
X0330664Y0136820D01*
X0330800Y0136762D01*
X0330935Y0136701D01*
X0331068Y0136636D01*
X0331199Y0136567D01*
X0331328Y0136495D01*
X0331455Y0136419D01*
X0331580Y0136340D01*
X0331703Y0136257D01*
X0331824Y0136172D01*
X0331942Y0136083D01*
X0332058Y0135991D01*
X0332171Y0135895D01*
X0332282Y0135797D01*
X0332390Y0135696D01*
X0332496Y0135592D01*
X0332598Y0135486D01*
X0332698Y0135376D01*
X0332794Y0135264D01*
X0332888Y0135149D01*
X0332979Y0135032D01*
X0333066Y0134913D01*
X0333150Y0134791D01*
X0333231Y0134667D01*
X0333308Y0134541D01*
X0333382Y0134413D01*
X0333453Y0134283D01*
X0333520Y0134151D01*
X0333583Y0134017D01*
X0333643Y0133882D01*
X0333699Y0133745D01*
X0333752Y0133606D01*
X0333800Y0133466D01*
X0333845Y0133325D01*
X0333886Y0133183D01*
X0333924Y0133040D01*
X0333957Y0132896D01*
X0333987Y0132751D01*
X0334013Y0132605D01*
X0334034Y0132459D01*
X0334052Y0132312D01*
X0334066Y0132165D01*
X0334076Y0132017D01*
X0334082Y0131869D01*
X0334084Y0131721D01*
X0334082Y0131573D01*
X0334076Y0131425D01*
X0334066Y0131277D01*
X0334052Y0131130D01*
X0334034Y0130983D01*
X0334013Y0130837D01*
X0333987Y0130691D01*
X0333957Y0130546D01*
X0333924Y0130402D01*
X0333886Y0130259D01*
X0333845Y0130117D01*
X0333800Y0129976D01*
X0333752Y0129836D01*
X0333699Y0129697D01*
X0333643Y0129560D01*
X0333583Y0129425D01*
X0333520Y0129291D01*
X0333453Y0129159D01*
X0333382Y0129029D01*
X0333308Y0128901D01*
X0333231Y0128775D01*
X0333150Y0128651D01*
X0333066Y0128529D01*
X0332979Y0128410D01*
X0332888Y0128293D01*
X0332794Y0128178D01*
X0332698Y0128066D01*
X0332598Y0127956D01*
X0332496Y0127850D01*
X0332390Y0127746D01*
X0332282Y0127645D01*
X0332171Y0127547D01*
X0332058Y0127451D01*
X0331942Y0127359D01*
X0331824Y0127270D01*
X0331703Y0127185D01*
X0331580Y0127102D01*
X0331455Y0127023D01*
X0331328Y0126947D01*
X0331199Y0126875D01*
X0331068Y0126806D01*
X0330935Y0126741D01*
X0330800Y0126680D01*
X0330664Y0126622D01*
X0330527Y0126567D01*
X0330388Y0126517D01*
X0330247Y0126470D01*
X0330106Y0126427D01*
X0329963Y0126387D01*
X0329819Y0126352D01*
X0329675Y0126320D01*
X0329529Y0126293D01*
X0329383Y0126269D01*
X0329236Y0126249D01*
X0329089Y0126233D01*
X0328942Y0126221D01*
X0328794Y0126213D01*
X0328646Y0126209D01*
X0328498Y0126209D01*
X0328350Y0126213D01*
X0328202Y0126221D01*
X0328055Y0126233D01*
X0327908Y0126249D01*
X0327761Y0126269D01*
X0327615Y0126293D01*
X0327469Y0126320D01*
X0327325Y0126352D01*
X0327181Y0126387D01*
X0327038Y0126427D01*
X0326897Y0126470D01*
X0326756Y0126517D01*
X0326617Y0126567D01*
X0326480Y0126622D01*
X0326344Y0126680D01*
X0326209Y0126741D01*
X0326076Y0126806D01*
X0325945Y0126875D01*
X0325816Y0126947D01*
X0325689Y0127023D01*
X0325564Y0127102D01*
X0325441Y0127185D01*
X0325320Y0127270D01*
X0325202Y0127359D01*
X0325086Y0127451D01*
X0324973Y0127547D01*
X0324862Y0127645D01*
X0324754Y0127746D01*
X0324648Y0127850D01*
X0324546Y0127956D01*
X0324446Y0128066D01*
X0324350Y0128178D01*
X0324256Y0128293D01*
X0324165Y0128410D01*
X0324078Y0128529D01*
X0323994Y0128651D01*
X0323913Y0128775D01*
X0323836Y0128901D01*
X0323762Y0129029D01*
X0323691Y0129159D01*
X0323624Y0129291D01*
X0323561Y0129425D01*
X0323501Y0129560D01*
X0323445Y0129697D01*
X0323392Y0129836D01*
X0323344Y0129976D01*
X0323299Y0130117D01*
X0323258Y0130259D01*
X0323220Y0130402D01*
X0323187Y0130546D01*
X0323157Y0130691D01*
X0323131Y0130837D01*
X0323110Y0130983D01*
X0323092Y0131130D01*
X0323078Y0131277D01*
X0323068Y0131425D01*
X0323062Y0131573D01*
X0323060Y0131721D01*
D20*
X0300600Y0117900D02*
X0324000Y0094500D01*
X0327600Y0094500D01*
X0327745Y0093690D01*
X0300600Y0117900D02*
X0257400Y0117900D01*
X0209700Y0070200D01*
X0204300Y0070200D01*
X0204005Y0069989D01*
X0173700Y0108000D02*
X0176400Y0110700D01*
X0179100Y0110700D01*
X0179438Y0110839D01*
X0173700Y0108000D02*
X0088200Y0108000D01*
X0071100Y0090900D01*
X0071100Y0085500D01*
X0070540Y0085107D01*
M02*
