G75*
%MOIN*%
%OFA0B0*%
%FSLAX25Y25*%
%IPPOS*%
%LPD*%
%AMOC8*
5,1,8,0,0,1.08239X$1,22.5*
%
%ADD10C,0.01600*%
%ADD11OC8,0.05200*%
%ADD12C,0.05200*%
%ADD13C,0.07400*%
%ADD14R,0.08000X0.08000*%
%ADD15C,0.08000*%
%ADD16C,0.06600*%
%ADD17C,0.07200*%
%ADD18C,0.06600*%
%ADD19C,0.00000*%
%ADD20C,0.06000*%
%ADD21C,0.01000*%
%ADD22C,0.05000*%
%ADD23C,0.04000*%
D10*
X0001800Y0002252D02*
X0001800Y0147921D01*
X0344320Y0147921D01*
X0344320Y0002252D01*
X0001800Y0002252D01*
X0007400Y0007852D02*
X0007400Y0046654D01*
X0008478Y0045576D01*
X0013090Y0040964D01*
X0013090Y0039051D01*
X0013942Y0036993D01*
X0015518Y0035418D01*
X0017576Y0034565D01*
X0019804Y0034565D01*
X0021862Y0035418D01*
X0023437Y0036993D01*
X0024290Y0039051D01*
X0024290Y0041279D01*
X0023437Y0043337D01*
X0021862Y0044913D01*
X0019942Y0045708D01*
X0014900Y0050750D01*
X0014900Y0054250D01*
X0023352Y0054250D01*
X0024290Y0055188D01*
X0024290Y0057552D01*
X0108816Y0057552D01*
X0110322Y0058176D01*
X0111476Y0059330D01*
X0138476Y0086330D01*
X0138787Y0087080D01*
X0139812Y0088105D01*
X0140558Y0089906D01*
X0140558Y0098456D01*
X0139812Y0100257D01*
X0138434Y0101635D01*
X0136633Y0102381D01*
X0134684Y0102381D01*
X0132883Y0101635D01*
X0131504Y0100257D01*
X0130758Y0098456D01*
X0130758Y0090208D01*
X0130707Y0090157D01*
X0130758Y0090480D01*
X0130758Y0093881D01*
X0125958Y0093881D01*
X0125958Y0085781D01*
X0126060Y0085781D01*
X0126382Y0085832D01*
X0106302Y0065752D01*
X0019884Y0065752D01*
X0019156Y0065450D01*
X0014900Y0065450D01*
X0014900Y0081554D01*
X0019425Y0086079D01*
X0020681Y0086599D01*
X0022256Y0088174D01*
X0022776Y0089430D01*
X0025098Y0091752D01*
X0036816Y0091752D01*
X0038322Y0092376D01*
X0039476Y0093530D01*
X0045216Y0099270D01*
X0045984Y0098952D01*
X0076602Y0098952D01*
X0081718Y0093836D01*
X0080942Y0093959D01*
X0080840Y0093959D01*
X0080840Y0085859D01*
X0080240Y0085859D01*
X0080240Y0085259D01*
X0075440Y0085259D01*
X0075440Y0081858D01*
X0075566Y0081065D01*
X0075814Y0080301D01*
X0076178Y0079586D01*
X0076650Y0078937D01*
X0077218Y0078369D01*
X0077867Y0077897D01*
X0078582Y0077533D01*
X0079346Y0077285D01*
X0080139Y0077159D01*
X0080240Y0077159D01*
X0080240Y0085259D01*
X0080840Y0085259D01*
X0080840Y0077159D01*
X0080942Y0077159D01*
X0081734Y0077285D01*
X0082498Y0077533D01*
X0083213Y0077897D01*
X0083863Y0078369D01*
X0084430Y0078937D01*
X0084902Y0079586D01*
X0085266Y0080301D01*
X0085515Y0081065D01*
X0085640Y0081858D01*
X0085640Y0085259D01*
X0080840Y0085259D01*
X0080840Y0085859D01*
X0085640Y0085859D01*
X0085640Y0089260D01*
X0085517Y0090036D01*
X0085664Y0089890D01*
X0085640Y0089834D01*
X0085640Y0081284D01*
X0086386Y0079483D01*
X0087765Y0078105D01*
X0089565Y0077359D01*
X0091515Y0077359D01*
X0093316Y0078105D01*
X0094694Y0079483D01*
X0095440Y0081284D01*
X0095440Y0089834D01*
X0094694Y0091635D01*
X0094057Y0092272D01*
X0093476Y0093674D01*
X0081776Y0105374D01*
X0080622Y0106528D01*
X0079116Y0107152D01*
X0052849Y0107152D01*
X0053480Y0108676D01*
X0053480Y0110347D01*
X0052841Y0111891D01*
X0051659Y0113072D01*
X0051238Y0113247D01*
X0053680Y0115689D01*
X0053680Y0117512D01*
X0053680Y0119334D01*
X0051103Y0121912D01*
X0049280Y0121912D01*
X0047458Y0121912D01*
X0044880Y0119334D01*
X0044880Y0117512D01*
X0049280Y0117512D01*
X0049280Y0117512D01*
X0049280Y0121912D01*
X0049280Y0117512D01*
X0049280Y0117512D01*
X0044880Y0117512D01*
X0044880Y0115689D01*
X0047323Y0113247D01*
X0046901Y0113072D01*
X0045720Y0111891D01*
X0045351Y0111002D01*
X0041524Y0107174D01*
X0034302Y0099952D01*
X0022584Y0099952D01*
X0021078Y0099328D01*
X0018675Y0096925D01*
X0018623Y0096946D01*
X0016395Y0096946D01*
X0014337Y0096094D01*
X0012761Y0094519D01*
X0011909Y0092460D01*
X0011909Y0090233D01*
X0011930Y0090180D01*
X0007400Y0085650D01*
X0007400Y0142321D01*
X0315384Y0142321D01*
X0313435Y0139462D01*
X0311959Y0134677D01*
X0311959Y0129669D01*
X0313435Y0124884D01*
X0316256Y0120746D01*
X0316256Y0120746D01*
X0316256Y0120746D01*
X0320172Y0117624D01*
X0324833Y0115794D01*
X0329827Y0115420D01*
X0329827Y0115420D01*
X0334709Y0116535D01*
X0338720Y0118850D01*
X0338720Y0031323D01*
X0334709Y0033639D01*
X0329827Y0034753D01*
X0324833Y0034379D01*
X0320172Y0032549D01*
X0320172Y0032549D01*
X0316256Y0029427D01*
X0313435Y0025289D01*
X0311959Y0020504D01*
X0311959Y0015496D01*
X0313435Y0010711D01*
X0315384Y0007852D01*
X0007400Y0007852D01*
X0007400Y0008646D02*
X0314843Y0008646D01*
X0313753Y0010245D02*
X0007400Y0010245D01*
X0007400Y0011843D02*
X0075879Y0011843D01*
X0075967Y0011798D02*
X0075967Y0011798D01*
X0080540Y0011074D01*
X0080540Y0011074D01*
X0085114Y0011798D01*
X0089239Y0013901D01*
X0092514Y0017175D01*
X0094616Y0021301D01*
X0095340Y0025874D01*
X0095340Y0025874D01*
X0094616Y0030447D01*
X0094616Y0030447D01*
X0092514Y0034573D01*
X0092514Y0034573D01*
X0089239Y0037847D01*
X0085114Y0039950D01*
X0080540Y0040674D01*
X0075967Y0039950D01*
X0075967Y0039950D01*
X0071841Y0037847D01*
X0068567Y0034573D01*
X0066465Y0030447D01*
X0065740Y0025874D01*
X0066465Y0021301D01*
X0066465Y0021301D01*
X0068567Y0017175D01*
X0068567Y0017175D01*
X0071841Y0013901D01*
X0075967Y0011798D01*
X0072742Y0013442D02*
X0007400Y0013442D01*
X0007400Y0015040D02*
X0070701Y0015040D01*
X0071841Y0013901D02*
X0071841Y0013901D01*
X0069103Y0016639D02*
X0007400Y0016639D01*
X0007400Y0018237D02*
X0068025Y0018237D01*
X0067211Y0019836D02*
X0007400Y0019836D01*
X0007400Y0021434D02*
X0066443Y0021434D01*
X0066190Y0023033D02*
X0007400Y0023033D01*
X0007400Y0024631D02*
X0065937Y0024631D01*
X0065740Y0025874D02*
X0065740Y0025874D01*
X0065796Y0026230D02*
X0007400Y0026230D01*
X0007400Y0027828D02*
X0066050Y0027828D01*
X0066303Y0029427D02*
X0007400Y0029427D01*
X0007400Y0031025D02*
X0066759Y0031025D01*
X0066465Y0030447D02*
X0066465Y0030447D01*
X0067573Y0032624D02*
X0007400Y0032624D01*
X0007400Y0034222D02*
X0068388Y0034222D01*
X0068567Y0034573D02*
X0068567Y0034573D01*
X0069814Y0035821D02*
X0022265Y0035821D01*
X0023614Y0037419D02*
X0071413Y0037419D01*
X0071841Y0037847D02*
X0071841Y0037847D01*
X0074138Y0039018D02*
X0024276Y0039018D01*
X0024290Y0040616D02*
X0080175Y0040616D01*
X0080540Y0040674D02*
X0080540Y0040674D01*
X0080905Y0040616D02*
X0135294Y0040616D01*
X0135658Y0040674D02*
X0135658Y0040674D01*
X0131085Y0039950D01*
X0131085Y0039950D01*
X0126959Y0037847D01*
X0123685Y0034573D01*
X0121583Y0030447D01*
X0120858Y0025874D01*
X0121583Y0021301D01*
X0123685Y0017175D01*
X0123685Y0017175D01*
X0126959Y0013901D01*
X0131085Y0011798D01*
X0135658Y0011074D01*
X0135658Y0011074D01*
X0140232Y0011798D01*
X0144357Y0013901D01*
X0144357Y0013901D01*
X0147632Y0017175D01*
X0149734Y0021301D01*
X0150458Y0025874D01*
X0149734Y0030447D01*
X0149734Y0030447D01*
X0147632Y0034573D01*
X0147632Y0034573D01*
X0144357Y0037847D01*
X0140232Y0039950D01*
X0135658Y0040674D01*
X0136023Y0040616D02*
X0195205Y0040616D01*
X0195205Y0041475D02*
X0195205Y0039407D01*
X0195996Y0037495D01*
X0197459Y0036033D01*
X0199370Y0035241D01*
X0208639Y0035241D01*
X0210550Y0036033D01*
X0212013Y0037495D01*
X0212805Y0039407D01*
X0212805Y0041475D01*
X0212013Y0043387D01*
X0210550Y0044849D01*
X0209122Y0045441D01*
X0210550Y0046033D01*
X0212013Y0047495D01*
X0212805Y0049407D01*
X0212805Y0051475D01*
X0212013Y0053387D01*
X0210550Y0054849D01*
X0209122Y0055441D01*
X0210550Y0056033D01*
X0212013Y0057495D01*
X0212805Y0059407D01*
X0212805Y0061475D01*
X0212013Y0063387D01*
X0210550Y0064849D01*
X0209122Y0065441D01*
X0210550Y0066033D01*
X0212013Y0067495D01*
X0212805Y0069407D01*
X0212805Y0071475D01*
X0212013Y0073387D01*
X0210550Y0074849D01*
X0209122Y0075441D01*
X0210550Y0076033D01*
X0212013Y0077495D01*
X0212805Y0079407D01*
X0212805Y0081475D01*
X0212013Y0083387D01*
X0210550Y0084849D01*
X0209122Y0085441D01*
X0210550Y0086033D01*
X0212013Y0087495D01*
X0212805Y0089407D01*
X0212805Y0091475D01*
X0212013Y0093387D01*
X0210550Y0094849D01*
X0209372Y0095337D01*
X0209678Y0095437D01*
X0210435Y0095822D01*
X0211123Y0096322D01*
X0211724Y0096923D01*
X0212223Y0097611D01*
X0212609Y0098368D01*
X0212872Y0099176D01*
X0213005Y0100016D01*
X0213005Y0100241D01*
X0204205Y0100241D01*
X0204205Y0100641D01*
X0213005Y0100641D01*
X0213005Y0100866D01*
X0212872Y0101705D01*
X0212609Y0102514D01*
X0212223Y0103271D01*
X0211724Y0103959D01*
X0211123Y0104560D01*
X0210435Y0105059D01*
X0209678Y0105445D01*
X0209372Y0105545D01*
X0210550Y0106033D01*
X0212013Y0107495D01*
X0212805Y0109407D01*
X0212805Y0111475D01*
X0212013Y0113387D01*
X0210550Y0114849D01*
X0208639Y0115641D01*
X0199370Y0115641D01*
X0197459Y0114849D01*
X0196916Y0114306D01*
X0195270Y0115952D01*
X0186270Y0115952D01*
X0185370Y0116852D01*
X0181830Y0116852D01*
X0180600Y0115622D01*
X0180412Y0115434D01*
X0180273Y0115491D01*
X0178602Y0115491D01*
X0177059Y0114852D01*
X0175877Y0113670D01*
X0175238Y0112127D01*
X0175238Y0110456D01*
X0175877Y0108912D01*
X0177059Y0107731D01*
X0177480Y0107556D01*
X0175038Y0105114D01*
X0175038Y0103291D01*
X0175038Y0101469D01*
X0177615Y0098891D01*
X0179438Y0098891D01*
X0181260Y0098891D01*
X0183838Y0101469D01*
X0183838Y0103291D01*
X0179438Y0103291D01*
X0179438Y0098891D01*
X0179438Y0103291D01*
X0179438Y0103291D01*
X0179438Y0103291D01*
X0183838Y0103291D01*
X0183838Y0105114D01*
X0181395Y0107556D01*
X0181817Y0107731D01*
X0182998Y0108912D01*
X0183638Y0110456D01*
X0183638Y0112127D01*
X0183464Y0112546D01*
X0183570Y0112652D01*
X0183630Y0112652D01*
X0184530Y0111752D01*
X0193530Y0111752D01*
X0195000Y0110282D01*
X0195205Y0110077D01*
X0195205Y0109407D01*
X0195996Y0107495D01*
X0197459Y0106033D01*
X0198637Y0105545D01*
X0198332Y0105445D01*
X0197574Y0105059D01*
X0196887Y0104560D01*
X0196286Y0103959D01*
X0195786Y0103271D01*
X0195400Y0102514D01*
X0195138Y0101705D01*
X0195005Y0100866D01*
X0195005Y0100641D01*
X0203805Y0100641D01*
X0203805Y0100241D01*
X0195005Y0100241D01*
X0195005Y0100016D01*
X0195138Y0099176D01*
X0195400Y0098368D01*
X0195786Y0097611D01*
X0196286Y0096923D01*
X0196887Y0096322D01*
X0197574Y0095822D01*
X0198332Y0095437D01*
X0198637Y0095337D01*
X0197459Y0094849D01*
X0195996Y0093387D01*
X0195205Y0091475D01*
X0195205Y0089407D01*
X0195996Y0087495D01*
X0197459Y0086033D01*
X0198888Y0085441D01*
X0197459Y0084849D01*
X0195996Y0083387D01*
X0195205Y0081475D01*
X0195205Y0079407D01*
X0195996Y0077495D01*
X0197459Y0076033D01*
X0198888Y0075441D01*
X0197459Y0074849D01*
X0195996Y0073387D01*
X0195205Y0071475D01*
X0195205Y0069407D01*
X0195996Y0067495D01*
X0197459Y0066033D01*
X0198888Y0065441D01*
X0197459Y0064849D01*
X0195996Y0063387D01*
X0195775Y0062852D01*
X0195330Y0062852D01*
X0194100Y0061622D01*
X0189719Y0057241D01*
X0188579Y0058381D01*
X0185100Y0058381D01*
X0182639Y0055921D01*
X0182639Y0052441D01*
X0185100Y0049981D01*
X0188579Y0049981D01*
X0191039Y0052441D01*
X0191039Y0052621D01*
X0195972Y0057554D01*
X0195996Y0057495D01*
X0197459Y0056033D01*
X0198888Y0055441D01*
X0197459Y0054849D01*
X0195996Y0053387D01*
X0195205Y0051475D01*
X0195205Y0049407D01*
X0195996Y0047495D01*
X0197459Y0046033D01*
X0198888Y0045441D01*
X0197459Y0044849D01*
X0195996Y0043387D01*
X0195205Y0041475D01*
X0195511Y0042215D02*
X0023902Y0042215D01*
X0022961Y0043813D02*
X0196423Y0043813D01*
X0198817Y0045412D02*
X0020657Y0045412D01*
X0018640Y0047010D02*
X0196481Y0047010D01*
X0195535Y0048609D02*
X0017041Y0048609D01*
X0015443Y0050207D02*
X0168843Y0050207D01*
X0169269Y0049781D02*
X0166691Y0052359D01*
X0166691Y0054181D01*
X0171091Y0054181D01*
X0171091Y0054181D01*
X0166691Y0054181D01*
X0166691Y0056004D01*
X0169269Y0058581D01*
X0171091Y0058581D01*
X0171091Y0054181D01*
X0171091Y0054181D01*
X0171091Y0049781D01*
X0169269Y0049781D01*
X0171091Y0049781D02*
X0172914Y0049781D01*
X0175491Y0052359D01*
X0175491Y0054181D01*
X0171091Y0054181D01*
X0171091Y0054181D01*
X0171091Y0049781D01*
X0171091Y0050207D02*
X0171091Y0050207D01*
X0171091Y0051806D02*
X0171091Y0051806D01*
X0171091Y0053404D02*
X0171091Y0053404D01*
X0171091Y0054181D02*
X0171091Y0054181D01*
X0171091Y0058581D01*
X0172914Y0058581D01*
X0175491Y0056004D01*
X0175491Y0054181D01*
X0171091Y0054181D01*
X0171091Y0055003D02*
X0171091Y0055003D01*
X0171091Y0056601D02*
X0171091Y0056601D01*
X0171091Y0058200D02*
X0171091Y0058200D01*
X0168888Y0058200D02*
X0110346Y0058200D01*
X0111945Y0059798D02*
X0192277Y0059798D01*
X0190678Y0058200D02*
X0188760Y0058200D01*
X0184918Y0058200D02*
X0173295Y0058200D01*
X0174894Y0056601D02*
X0183320Y0056601D01*
X0182639Y0055003D02*
X0175491Y0055003D01*
X0175491Y0053404D02*
X0182639Y0053404D01*
X0183275Y0051806D02*
X0174939Y0051806D01*
X0173340Y0050207D02*
X0184873Y0050207D01*
X0188805Y0050207D02*
X0195205Y0050207D01*
X0195342Y0051806D02*
X0190404Y0051806D01*
X0191822Y0053404D02*
X0196014Y0053404D01*
X0197830Y0055003D02*
X0193421Y0055003D01*
X0195019Y0056601D02*
X0196890Y0056601D01*
X0193875Y0061397D02*
X0113543Y0061397D01*
X0115142Y0062995D02*
X0195834Y0062995D01*
X0197204Y0064594D02*
X0116740Y0064594D01*
X0118339Y0066192D02*
X0197299Y0066192D01*
X0195874Y0067791D02*
X0119937Y0067791D01*
X0121536Y0069389D02*
X0195212Y0069389D01*
X0195205Y0070988D02*
X0123134Y0070988D01*
X0124733Y0072586D02*
X0195665Y0072586D01*
X0196795Y0074185D02*
X0126331Y0074185D01*
X0127930Y0075783D02*
X0198061Y0075783D01*
X0196110Y0077382D02*
X0129528Y0077382D01*
X0131127Y0078981D02*
X0195381Y0078981D01*
X0195205Y0080579D02*
X0189177Y0080579D01*
X0188579Y0079981D02*
X0191039Y0082441D01*
X0191039Y0085921D01*
X0188579Y0088381D01*
X0185100Y0088381D01*
X0184170Y0087452D01*
X0179970Y0091652D01*
X0174630Y0091652D01*
X0173400Y0090422D01*
X0171359Y0088381D01*
X0169352Y0088381D01*
X0168196Y0087226D01*
X0159270Y0096152D01*
X0150558Y0096152D01*
X0150558Y0098456D01*
X0149812Y0100257D01*
X0148434Y0101635D01*
X0146633Y0102381D01*
X0144684Y0102381D01*
X0142883Y0101635D01*
X0141504Y0100257D01*
X0140758Y0098456D01*
X0140758Y0089906D01*
X0141504Y0088105D01*
X0142883Y0086727D01*
X0144684Y0085981D01*
X0146633Y0085981D01*
X0148434Y0086727D01*
X0149812Y0088105D01*
X0150558Y0089906D01*
X0150558Y0091952D01*
X0157530Y0091952D01*
X0166200Y0083282D01*
X0166891Y0082591D01*
X0166891Y0082441D01*
X0169352Y0079981D01*
X0172831Y0079981D01*
X0175291Y0082441D01*
X0175291Y0085921D01*
X0175065Y0086147D01*
X0176370Y0087452D01*
X0178230Y0087452D01*
X0182639Y0083043D01*
X0182639Y0082441D01*
X0185100Y0079981D01*
X0188579Y0079981D01*
X0190775Y0082178D02*
X0195496Y0082178D01*
X0196386Y0083776D02*
X0191039Y0083776D01*
X0191039Y0085375D02*
X0198727Y0085375D01*
X0196519Y0086973D02*
X0189987Y0086973D01*
X0195551Y0088572D02*
X0183050Y0088572D01*
X0181452Y0090170D02*
X0195205Y0090170D01*
X0195326Y0091769D02*
X0163653Y0091769D01*
X0162055Y0093367D02*
X0195988Y0093367D01*
X0197740Y0094966D02*
X0160456Y0094966D01*
X0157714Y0091769D02*
X0150558Y0091769D01*
X0150558Y0090170D02*
X0159312Y0090170D01*
X0160911Y0088572D02*
X0150005Y0088572D01*
X0148680Y0086973D02*
X0162509Y0086973D01*
X0164108Y0085375D02*
X0137521Y0085375D01*
X0138742Y0086973D02*
X0142637Y0086973D01*
X0141311Y0088572D02*
X0140005Y0088572D01*
X0140558Y0090170D02*
X0140758Y0090170D01*
X0140758Y0091769D02*
X0140558Y0091769D01*
X0140558Y0093367D02*
X0140758Y0093367D01*
X0140758Y0094966D02*
X0140558Y0094966D01*
X0140558Y0096564D02*
X0140758Y0096564D01*
X0140758Y0098163D02*
X0140558Y0098163D01*
X0140018Y0099761D02*
X0141299Y0099761D01*
X0142607Y0101360D02*
X0138709Y0101360D01*
X0132607Y0101360D02*
X0128992Y0101360D01*
X0128981Y0101371D02*
X0128331Y0101843D01*
X0127616Y0102207D01*
X0126853Y0102456D01*
X0126060Y0102581D01*
X0125958Y0102581D01*
X0125958Y0094481D01*
X0125358Y0094481D01*
X0125358Y0093881D01*
X0120558Y0093881D01*
X0120558Y0090480D01*
X0120684Y0089687D01*
X0120932Y0088923D01*
X0121296Y0088208D01*
X0121768Y0087559D01*
X0122336Y0086991D01*
X0122985Y0086519D01*
X0123701Y0086155D01*
X0124464Y0085907D01*
X0125257Y0085781D01*
X0125358Y0085781D01*
X0125358Y0093881D01*
X0125958Y0093881D01*
X0125958Y0094481D01*
X0130758Y0094481D01*
X0130758Y0097882D01*
X0130633Y0098675D01*
X0130385Y0099439D01*
X0130020Y0100154D01*
X0129548Y0100804D01*
X0128981Y0101371D01*
X0130220Y0099761D02*
X0131299Y0099761D01*
X0130758Y0098163D02*
X0130714Y0098163D01*
X0130758Y0096564D02*
X0130758Y0096564D01*
X0130758Y0094966D02*
X0130758Y0094966D01*
X0130758Y0093367D02*
X0130758Y0093367D01*
X0130758Y0091769D02*
X0130758Y0091769D01*
X0130709Y0090170D02*
X0130720Y0090170D01*
X0125958Y0090170D02*
X0125358Y0090170D01*
X0125358Y0088572D02*
X0125958Y0088572D01*
X0125958Y0086973D02*
X0125358Y0086973D01*
X0125924Y0085375D02*
X0095440Y0085375D01*
X0095440Y0086973D02*
X0122361Y0086973D01*
X0121111Y0088572D02*
X0095440Y0088572D01*
X0095301Y0090170D02*
X0120607Y0090170D01*
X0120558Y0091769D02*
X0094560Y0091769D01*
X0093603Y0093367D02*
X0120558Y0093367D01*
X0120558Y0094481D02*
X0125358Y0094481D01*
X0125358Y0102581D01*
X0125257Y0102581D01*
X0124464Y0102456D01*
X0123701Y0102207D01*
X0122985Y0101843D01*
X0122336Y0101371D01*
X0121768Y0100804D01*
X0121296Y0100154D01*
X0120932Y0099439D01*
X0120684Y0098675D01*
X0120558Y0097882D01*
X0120558Y0094481D01*
X0120558Y0094966D02*
X0092185Y0094966D01*
X0090586Y0096564D02*
X0120558Y0096564D01*
X0120603Y0098163D02*
X0088988Y0098163D01*
X0087389Y0099761D02*
X0121096Y0099761D01*
X0122324Y0101360D02*
X0085791Y0101360D01*
X0084192Y0102958D02*
X0175038Y0102958D01*
X0175038Y0103291D02*
X0179438Y0103291D01*
X0179438Y0103291D01*
X0175038Y0103291D01*
X0175038Y0104557D02*
X0082594Y0104557D01*
X0080995Y0106155D02*
X0176079Y0106155D01*
X0177036Y0107754D02*
X0053098Y0107754D01*
X0053480Y0109352D02*
X0175695Y0109352D01*
X0175238Y0110951D02*
X0053230Y0110951D01*
X0052183Y0112549D02*
X0175413Y0112549D01*
X0176355Y0114148D02*
X0112697Y0114148D01*
X0112701Y0114150D02*
X0113351Y0114622D01*
X0113918Y0115189D01*
X0114390Y0115839D01*
X0114755Y0116554D01*
X0115003Y0117318D01*
X0115128Y0118110D01*
X0115128Y0118512D01*
X0115128Y0118913D01*
X0115003Y0119706D01*
X0114755Y0120470D01*
X0114390Y0121185D01*
X0113918Y0121834D01*
X0113351Y0122402D01*
X0112701Y0122874D01*
X0111986Y0123238D01*
X0111223Y0123486D01*
X0110430Y0123612D01*
X0110028Y0123612D01*
X0109627Y0123612D01*
X0108834Y0123486D01*
X0108071Y0123238D01*
X0107355Y0122874D01*
X0106706Y0122402D01*
X0106138Y0121834D01*
X0105666Y0121185D01*
X0105302Y0120470D01*
X0105054Y0119706D01*
X0104928Y0118913D01*
X0104928Y0118512D01*
X0110028Y0118512D01*
X0110028Y0118512D01*
X0110028Y0123612D01*
X0110028Y0118512D01*
X0110028Y0118512D01*
X0104928Y0118512D01*
X0104928Y0118110D01*
X0105054Y0117318D01*
X0105302Y0116554D01*
X0105666Y0115839D01*
X0106138Y0115189D01*
X0106706Y0114622D01*
X0107355Y0114150D01*
X0108071Y0113785D01*
X0108834Y0113537D01*
X0109627Y0113412D01*
X0110028Y0113412D01*
X0110028Y0118512D01*
X0110028Y0118512D01*
X0115128Y0118512D01*
X0110028Y0118512D01*
X0110028Y0118512D01*
X0110028Y0113412D01*
X0110430Y0113412D01*
X0111223Y0113537D01*
X0111986Y0113785D01*
X0112701Y0114150D01*
X0114323Y0115746D02*
X0180724Y0115746D01*
X0183467Y0112549D02*
X0183733Y0112549D01*
X0183638Y0110951D02*
X0194331Y0110951D01*
X0195227Y0109352D02*
X0183181Y0109352D01*
X0181840Y0107754D02*
X0195889Y0107754D01*
X0197337Y0106155D02*
X0182796Y0106155D01*
X0183838Y0104557D02*
X0196884Y0104557D01*
X0195627Y0102958D02*
X0183838Y0102958D01*
X0183729Y0101360D02*
X0195083Y0101360D01*
X0195045Y0099761D02*
X0182130Y0099761D01*
X0179438Y0099761D02*
X0179438Y0099761D01*
X0179438Y0101360D02*
X0179438Y0101360D01*
X0179438Y0102958D02*
X0179438Y0102958D01*
X0175147Y0101360D02*
X0148709Y0101360D01*
X0150018Y0099761D02*
X0176745Y0099761D01*
X0195505Y0098163D02*
X0150558Y0098163D01*
X0150558Y0096564D02*
X0196645Y0096564D01*
X0210269Y0094966D02*
X0241816Y0094966D01*
X0240218Y0096564D02*
X0211365Y0096564D01*
X0212504Y0098163D02*
X0238619Y0098163D01*
X0237021Y0099761D02*
X0212964Y0099761D01*
X0212927Y0101360D02*
X0235422Y0101360D01*
X0233824Y0102958D02*
X0212383Y0102958D01*
X0211126Y0104557D02*
X0232225Y0104557D01*
X0230627Y0106155D02*
X0210673Y0106155D01*
X0212120Y0107754D02*
X0229028Y0107754D01*
X0234968Y0107754D02*
X0285889Y0107754D01*
X0285996Y0107495D02*
X0287459Y0106033D01*
X0288888Y0105441D01*
X0287459Y0104849D01*
X0285996Y0103387D01*
X0285205Y0101475D01*
X0285205Y0099407D01*
X0285996Y0097495D01*
X0287459Y0096033D01*
X0288888Y0095441D01*
X0287459Y0094849D01*
X0285996Y0093387D01*
X0285205Y0091475D01*
X0285205Y0089407D01*
X0285996Y0087495D01*
X0287459Y0086033D01*
X0288888Y0085441D01*
X0287459Y0084849D01*
X0285996Y0083387D01*
X0285205Y0081475D01*
X0285205Y0079407D01*
X0285996Y0077495D01*
X0287459Y0076033D01*
X0288888Y0075441D01*
X0287459Y0074849D01*
X0285996Y0073387D01*
X0285205Y0071475D01*
X0285205Y0069407D01*
X0285996Y0067495D01*
X0287459Y0066033D01*
X0288888Y0065441D01*
X0287459Y0064849D01*
X0285996Y0063387D01*
X0285205Y0061475D01*
X0285205Y0059407D01*
X0285996Y0057495D01*
X0287459Y0056033D01*
X0288888Y0055441D01*
X0287751Y0054970D01*
X0214170Y0128552D01*
X0100830Y0128552D01*
X0099600Y0127322D01*
X0095563Y0123284D01*
X0095255Y0123412D01*
X0093306Y0123412D01*
X0091505Y0122666D01*
X0090126Y0121287D01*
X0089380Y0119486D01*
X0089380Y0117537D01*
X0090126Y0115736D01*
X0091505Y0114358D01*
X0093306Y0113612D01*
X0095255Y0113612D01*
X0097056Y0114358D01*
X0098434Y0115736D01*
X0099180Y0117537D01*
X0099180Y0119486D01*
X0098748Y0120530D01*
X0102570Y0124352D01*
X0212430Y0124352D01*
X0285235Y0051547D01*
X0285205Y0051475D01*
X0285205Y0049407D01*
X0285996Y0047495D01*
X0287459Y0046033D01*
X0288888Y0045441D01*
X0287459Y0044849D01*
X0285996Y0043387D01*
X0285205Y0041475D01*
X0285205Y0039407D01*
X0285228Y0039350D01*
X0278130Y0032252D01*
X0188565Y0032252D01*
X0188565Y0033726D01*
X0187865Y0035417D01*
X0186571Y0036711D01*
X0184880Y0037411D01*
X0183050Y0037411D01*
X0181360Y0036711D01*
X0180066Y0035417D01*
X0179365Y0033726D01*
X0179365Y0025896D01*
X0180066Y0024205D01*
X0181360Y0022911D01*
X0183050Y0022211D01*
X0184880Y0022211D01*
X0186571Y0022911D01*
X0187865Y0024205D01*
X0188565Y0025896D01*
X0188565Y0028052D01*
X0279870Y0028052D01*
X0287736Y0035918D01*
X0289370Y0035241D01*
X0298639Y0035241D01*
X0300550Y0036033D01*
X0302013Y0037495D01*
X0302805Y0039407D01*
X0302805Y0041475D01*
X0302013Y0043387D01*
X0300550Y0044849D01*
X0299122Y0045441D01*
X0300550Y0046033D01*
X0300600Y0046082D01*
X0301530Y0045152D01*
X0305070Y0045152D01*
X0306300Y0046382D01*
X0308624Y0048706D01*
X0308624Y0048504D01*
X0311084Y0046044D01*
X0314563Y0046044D01*
X0317024Y0048504D01*
X0317024Y0051984D01*
X0314563Y0054444D01*
X0311084Y0054444D01*
X0309592Y0052952D01*
X0306930Y0052952D01*
X0303330Y0049352D01*
X0303270Y0049352D01*
X0302805Y0049817D01*
X0302805Y0051475D01*
X0302013Y0053387D01*
X0300550Y0054849D01*
X0299122Y0055441D01*
X0300550Y0056033D01*
X0302013Y0057495D01*
X0302805Y0059407D01*
X0302805Y0061475D01*
X0302013Y0063387D01*
X0300550Y0064849D01*
X0299122Y0065441D01*
X0300550Y0066033D01*
X0302013Y0067495D01*
X0302805Y0069407D01*
X0302805Y0071475D01*
X0302013Y0073387D01*
X0300550Y0074849D01*
X0299122Y0075441D01*
X0300550Y0076033D01*
X0302013Y0077495D01*
X0302805Y0079407D01*
X0302805Y0081475D01*
X0302013Y0083387D01*
X0300550Y0084849D01*
X0299122Y0085441D01*
X0300550Y0086033D01*
X0302013Y0087495D01*
X0302805Y0089407D01*
X0302805Y0091475D01*
X0302013Y0093387D01*
X0300550Y0094849D01*
X0299122Y0095441D01*
X0300550Y0096033D01*
X0302013Y0097495D01*
X0302805Y0099407D01*
X0302805Y0101475D01*
X0302013Y0103387D01*
X0300550Y0104849D01*
X0299122Y0105441D01*
X0300550Y0106033D01*
X0302013Y0107495D01*
X0302658Y0109052D01*
X0311100Y0109052D01*
X0311100Y0084444D01*
X0311084Y0084444D01*
X0308624Y0081984D01*
X0308624Y0078504D01*
X0311084Y0076044D01*
X0314563Y0076044D01*
X0317024Y0078504D01*
X0317024Y0081984D01*
X0315300Y0083707D01*
X0315300Y0109052D01*
X0317730Y0109052D01*
X0321000Y0105782D01*
X0322230Y0104552D01*
X0322445Y0104552D01*
X0322445Y0103087D01*
X0323252Y0101140D01*
X0324743Y0099649D01*
X0325966Y0099142D01*
X0324743Y0098635D01*
X0323252Y0097144D01*
X0322445Y0095196D01*
X0322445Y0093087D01*
X0323252Y0091140D01*
X0324743Y0089649D01*
X0325689Y0089257D01*
X0325634Y0089239D01*
X0324862Y0088846D01*
X0324162Y0088337D01*
X0323550Y0087725D01*
X0323041Y0087024D01*
X0322648Y0086253D01*
X0322380Y0085430D01*
X0322245Y0084575D01*
X0322245Y0084342D01*
X0327545Y0084342D01*
X0327545Y0083942D01*
X0322245Y0083942D01*
X0322245Y0083709D01*
X0322380Y0082854D01*
X0322648Y0082030D01*
X0323041Y0081259D01*
X0323550Y0080559D01*
X0324162Y0079947D01*
X0324862Y0079438D01*
X0325634Y0079045D01*
X0326457Y0078777D01*
X0327312Y0078642D01*
X0327545Y0078642D01*
X0327545Y0083942D01*
X0327945Y0083942D01*
X0327945Y0084342D01*
X0333245Y0084342D01*
X0333245Y0084575D01*
X0333109Y0085430D01*
X0332842Y0086253D01*
X0332449Y0087024D01*
X0331940Y0087725D01*
X0331328Y0088337D01*
X0330628Y0088846D01*
X0329856Y0089239D01*
X0329801Y0089257D01*
X0330747Y0089649D01*
X0332238Y0091140D01*
X0333045Y0093087D01*
X0333045Y0095196D01*
X0332238Y0097144D01*
X0330747Y0098635D01*
X0329523Y0099142D01*
X0330747Y0099649D01*
X0332238Y0101140D01*
X0333045Y0103087D01*
X0333045Y0105196D01*
X0332238Y0107144D01*
X0330747Y0108635D01*
X0328799Y0109442D01*
X0326691Y0109442D01*
X0324915Y0108706D01*
X0324870Y0108752D01*
X0323970Y0108752D01*
X0319470Y0113252D01*
X0302069Y0113252D01*
X0302013Y0113387D01*
X0300550Y0114849D01*
X0298639Y0115641D01*
X0289370Y0115641D01*
X0287459Y0114849D01*
X0285996Y0113387D01*
X0285205Y0111475D01*
X0285205Y0109407D01*
X0285996Y0107495D01*
X0287337Y0106155D02*
X0236567Y0106155D01*
X0238165Y0104557D02*
X0287167Y0104557D01*
X0285819Y0102958D02*
X0239764Y0102958D01*
X0241362Y0101360D02*
X0285205Y0101360D01*
X0285205Y0099761D02*
X0242961Y0099761D01*
X0244559Y0098163D02*
X0285720Y0098163D01*
X0286928Y0096564D02*
X0246158Y0096564D01*
X0247756Y0094966D02*
X0287740Y0094966D01*
X0285988Y0093367D02*
X0249355Y0093367D01*
X0250953Y0091769D02*
X0285326Y0091769D01*
X0285205Y0090170D02*
X0252552Y0090170D01*
X0254150Y0088572D02*
X0285551Y0088572D01*
X0286519Y0086973D02*
X0255749Y0086973D01*
X0257347Y0085375D02*
X0288727Y0085375D01*
X0286386Y0083776D02*
X0258946Y0083776D01*
X0260544Y0082178D02*
X0285496Y0082178D01*
X0285205Y0080579D02*
X0262143Y0080579D01*
X0263741Y0078981D02*
X0285381Y0078981D01*
X0286110Y0077382D02*
X0265340Y0077382D01*
X0266938Y0075783D02*
X0288061Y0075783D01*
X0286795Y0074185D02*
X0268537Y0074185D01*
X0270135Y0072586D02*
X0285665Y0072586D01*
X0285205Y0070988D02*
X0271734Y0070988D01*
X0273332Y0069389D02*
X0285212Y0069389D01*
X0285874Y0067791D02*
X0274931Y0067791D01*
X0276529Y0066192D02*
X0287299Y0066192D01*
X0287204Y0064594D02*
X0278128Y0064594D01*
X0279726Y0062995D02*
X0285834Y0062995D01*
X0285205Y0061397D02*
X0281325Y0061397D01*
X0282923Y0059798D02*
X0285205Y0059798D01*
X0285705Y0058200D02*
X0284522Y0058200D01*
X0286120Y0056601D02*
X0286890Y0056601D01*
X0287719Y0055003D02*
X0287830Y0055003D01*
X0284976Y0051806D02*
X0212668Y0051806D01*
X0212805Y0050207D02*
X0285205Y0050207D01*
X0285535Y0048609D02*
X0212474Y0048609D01*
X0211528Y0047010D02*
X0286481Y0047010D01*
X0288817Y0045412D02*
X0209192Y0045412D01*
X0211586Y0043813D02*
X0286423Y0043813D01*
X0285511Y0042215D02*
X0212498Y0042215D01*
X0212805Y0040616D02*
X0285205Y0040616D01*
X0284896Y0039018D02*
X0212644Y0039018D01*
X0211937Y0037419D02*
X0283297Y0037419D01*
X0281699Y0035821D02*
X0210039Y0035821D01*
X0197971Y0035821D02*
X0187461Y0035821D01*
X0188360Y0034222D02*
X0280100Y0034222D01*
X0278502Y0032624D02*
X0188565Y0032624D01*
X0180470Y0035821D02*
X0177712Y0035821D01*
X0177627Y0035938D02*
X0178071Y0035327D01*
X0178414Y0034654D01*
X0178647Y0033935D01*
X0178765Y0033189D01*
X0178765Y0030011D01*
X0174165Y0030011D01*
X0173765Y0030011D01*
X0173765Y0029611D01*
X0169165Y0029611D01*
X0169165Y0026433D01*
X0169284Y0025687D01*
X0169517Y0024968D01*
X0169860Y0024295D01*
X0170304Y0023684D01*
X0170838Y0023150D01*
X0171450Y0022706D01*
X0172123Y0022363D01*
X0172841Y0022129D01*
X0173588Y0022011D01*
X0173765Y0022011D01*
X0173765Y0029611D01*
X0174165Y0029611D01*
X0174165Y0022011D01*
X0174343Y0022011D01*
X0175089Y0022129D01*
X0175808Y0022363D01*
X0176481Y0022706D01*
X0177092Y0023150D01*
X0177627Y0023684D01*
X0178071Y0024295D01*
X0178414Y0024968D01*
X0178647Y0025687D01*
X0178765Y0026433D01*
X0178765Y0029611D01*
X0174165Y0029611D01*
X0174165Y0030011D01*
X0174165Y0037611D01*
X0174343Y0037611D01*
X0175089Y0037493D01*
X0175808Y0037259D01*
X0176481Y0036916D01*
X0177092Y0036472D01*
X0177627Y0035938D01*
X0175316Y0037419D02*
X0196073Y0037419D01*
X0195366Y0039018D02*
X0142061Y0039018D01*
X0144786Y0037419D02*
X0172615Y0037419D01*
X0172841Y0037493D02*
X0172123Y0037259D01*
X0171450Y0036916D01*
X0170838Y0036472D01*
X0170304Y0035938D01*
X0169860Y0035327D01*
X0169517Y0034654D01*
X0169284Y0033935D01*
X0169165Y0033189D01*
X0169165Y0030011D01*
X0173765Y0030011D01*
X0173765Y0037611D01*
X0173588Y0037611D01*
X0172841Y0037493D01*
X0173765Y0037419D02*
X0174165Y0037419D01*
X0174165Y0035821D02*
X0173765Y0035821D01*
X0173765Y0034222D02*
X0174165Y0034222D01*
X0174165Y0032624D02*
X0173765Y0032624D01*
X0173765Y0031025D02*
X0174165Y0031025D01*
X0174165Y0029427D02*
X0173765Y0029427D01*
X0173765Y0027828D02*
X0174165Y0027828D01*
X0174165Y0026230D02*
X0173765Y0026230D01*
X0173765Y0024631D02*
X0174165Y0024631D01*
X0174165Y0023033D02*
X0173765Y0023033D01*
X0171000Y0023033D02*
X0150008Y0023033D01*
X0150261Y0024631D02*
X0169689Y0024631D01*
X0169198Y0026230D02*
X0150402Y0026230D01*
X0150149Y0027828D02*
X0169165Y0027828D01*
X0169165Y0029427D02*
X0149896Y0029427D01*
X0149440Y0031025D02*
X0169165Y0031025D01*
X0169165Y0032624D02*
X0148625Y0032624D01*
X0147811Y0034222D02*
X0169377Y0034222D01*
X0170219Y0035821D02*
X0146384Y0035821D01*
X0129256Y0039018D02*
X0086943Y0039018D01*
X0085114Y0039950D02*
X0085114Y0039950D01*
X0089239Y0037847D02*
X0089239Y0037847D01*
X0089668Y0037419D02*
X0126531Y0037419D01*
X0126959Y0037847D02*
X0126959Y0037847D01*
X0124932Y0035821D02*
X0091266Y0035821D01*
X0092692Y0034222D02*
X0123506Y0034222D01*
X0123685Y0034573D02*
X0123685Y0034573D01*
X0122691Y0032624D02*
X0093507Y0032624D01*
X0094321Y0031025D02*
X0121877Y0031025D01*
X0121583Y0030447D02*
X0121583Y0030447D01*
X0121421Y0029427D02*
X0094777Y0029427D01*
X0095031Y0027828D02*
X0121168Y0027828D01*
X0120915Y0026230D02*
X0095284Y0026230D01*
X0095143Y0024631D02*
X0121055Y0024631D01*
X0120858Y0025874D02*
X0120858Y0025874D01*
X0121308Y0023033D02*
X0094890Y0023033D01*
X0094637Y0021434D02*
X0121561Y0021434D01*
X0121583Y0021301D02*
X0121583Y0021301D01*
X0122329Y0019836D02*
X0093869Y0019836D01*
X0093055Y0018237D02*
X0123144Y0018237D01*
X0124221Y0016639D02*
X0091977Y0016639D01*
X0090379Y0015040D02*
X0125820Y0015040D01*
X0126959Y0013901D02*
X0126959Y0013901D01*
X0127860Y0013442D02*
X0088338Y0013442D01*
X0089239Y0013901D02*
X0089239Y0013901D01*
X0085201Y0011843D02*
X0130997Y0011843D01*
X0131085Y0011798D02*
X0131085Y0011798D01*
X0140232Y0011798D02*
X0140232Y0011798D01*
X0140319Y0011843D02*
X0313086Y0011843D01*
X0313435Y0010711D02*
X0313435Y0010711D01*
X0312593Y0013442D02*
X0143457Y0013442D01*
X0145497Y0015040D02*
X0312100Y0015040D01*
X0311959Y0016639D02*
X0147095Y0016639D01*
X0147632Y0017175D02*
X0147632Y0017175D01*
X0148173Y0018237D02*
X0311959Y0018237D01*
X0311959Y0019836D02*
X0148987Y0019836D01*
X0149734Y0021301D02*
X0149734Y0021301D01*
X0149755Y0021434D02*
X0312246Y0021434D01*
X0312739Y0023033D02*
X0186692Y0023033D01*
X0188041Y0024631D02*
X0313232Y0024631D01*
X0313435Y0025289D02*
X0313435Y0025289D01*
X0314077Y0026230D02*
X0188565Y0026230D01*
X0188565Y0027828D02*
X0315166Y0027828D01*
X0316256Y0029427D02*
X0281245Y0029427D01*
X0282843Y0031025D02*
X0318261Y0031025D01*
X0316256Y0029427D02*
X0316256Y0029427D01*
X0320361Y0032624D02*
X0284442Y0032624D01*
X0286040Y0034222D02*
X0324434Y0034222D01*
X0324833Y0034379D02*
X0324833Y0034379D01*
X0329827Y0034753D02*
X0329827Y0034753D01*
X0332153Y0034222D02*
X0338720Y0034222D01*
X0338720Y0032624D02*
X0336467Y0032624D01*
X0334709Y0033639D02*
X0334709Y0033639D01*
X0338720Y0035821D02*
X0300039Y0035821D01*
X0301937Y0037419D02*
X0338720Y0037419D01*
X0338720Y0039018D02*
X0302644Y0039018D01*
X0302805Y0040616D02*
X0338720Y0040616D01*
X0338720Y0042215D02*
X0302498Y0042215D01*
X0301586Y0043813D02*
X0338720Y0043813D01*
X0338720Y0045412D02*
X0305330Y0045412D01*
X0306928Y0047010D02*
X0310118Y0047010D01*
X0308624Y0048609D02*
X0308527Y0048609D01*
X0305784Y0051806D02*
X0302668Y0051806D01*
X0302805Y0050207D02*
X0304185Y0050207D01*
X0301995Y0053404D02*
X0310044Y0053404D01*
X0315603Y0053404D02*
X0338720Y0053404D01*
X0338720Y0051806D02*
X0317024Y0051806D01*
X0317024Y0050207D02*
X0338720Y0050207D01*
X0338720Y0048609D02*
X0317024Y0048609D01*
X0315530Y0047010D02*
X0338720Y0047010D01*
X0338720Y0055003D02*
X0300180Y0055003D01*
X0301119Y0056601D02*
X0338720Y0056601D01*
X0338720Y0058200D02*
X0302305Y0058200D01*
X0302805Y0059798D02*
X0338720Y0059798D01*
X0338720Y0061397D02*
X0302805Y0061397D01*
X0302175Y0062995D02*
X0338720Y0062995D01*
X0338720Y0064594D02*
X0300806Y0064594D01*
X0300710Y0066192D02*
X0338720Y0066192D01*
X0338720Y0067791D02*
X0302135Y0067791D01*
X0302798Y0069389D02*
X0338720Y0069389D01*
X0338720Y0070988D02*
X0302805Y0070988D01*
X0302344Y0072586D02*
X0338720Y0072586D01*
X0338720Y0074185D02*
X0301215Y0074185D01*
X0299949Y0075783D02*
X0338720Y0075783D01*
X0338720Y0077382D02*
X0315901Y0077382D01*
X0317024Y0078981D02*
X0325831Y0078981D01*
X0327545Y0078981D02*
X0327945Y0078981D01*
X0327945Y0078642D02*
X0328178Y0078642D01*
X0329033Y0078777D01*
X0329856Y0079045D01*
X0330628Y0079438D01*
X0331328Y0079947D01*
X0331940Y0080559D01*
X0332449Y0081259D01*
X0332842Y0082030D01*
X0333109Y0082854D01*
X0333245Y0083709D01*
X0333245Y0083942D01*
X0327945Y0083942D01*
X0327945Y0078642D01*
X0329659Y0078981D02*
X0338720Y0078981D01*
X0338720Y0080579D02*
X0331955Y0080579D01*
X0332890Y0082178D02*
X0338720Y0082178D01*
X0338720Y0083776D02*
X0333245Y0083776D01*
X0333118Y0085375D02*
X0338720Y0085375D01*
X0338720Y0086973D02*
X0332475Y0086973D01*
X0331005Y0088572D02*
X0338720Y0088572D01*
X0338720Y0090170D02*
X0331269Y0090170D01*
X0332499Y0091769D02*
X0338720Y0091769D01*
X0338720Y0093367D02*
X0333045Y0093367D01*
X0333045Y0094966D02*
X0338720Y0094966D01*
X0338720Y0096564D02*
X0332478Y0096564D01*
X0331219Y0098163D02*
X0338720Y0098163D01*
X0338720Y0099761D02*
X0330860Y0099761D01*
X0332329Y0101360D02*
X0338720Y0101360D01*
X0338720Y0102958D02*
X0332991Y0102958D01*
X0333045Y0104557D02*
X0338720Y0104557D01*
X0338720Y0106155D02*
X0332648Y0106155D01*
X0331628Y0107754D02*
X0338720Y0107754D01*
X0338720Y0109352D02*
X0329015Y0109352D01*
X0326475Y0109352D02*
X0323370Y0109352D01*
X0321771Y0110951D02*
X0338720Y0110951D01*
X0338720Y0112549D02*
X0320173Y0112549D01*
X0324833Y0115794D02*
X0324833Y0115794D01*
X0325476Y0115746D02*
X0226976Y0115746D01*
X0228574Y0114148D02*
X0286758Y0114148D01*
X0285650Y0112549D02*
X0230173Y0112549D01*
X0231771Y0110951D02*
X0285205Y0110951D01*
X0285227Y0109352D02*
X0233370Y0109352D01*
X0227430Y0109352D02*
X0212782Y0109352D01*
X0212805Y0110951D02*
X0225831Y0110951D01*
X0224233Y0112549D02*
X0212360Y0112549D01*
X0211252Y0114148D02*
X0222634Y0114148D01*
X0221036Y0115746D02*
X0195476Y0115746D01*
X0213043Y0123739D02*
X0101957Y0123739D01*
X0100358Y0122140D02*
X0106444Y0122140D01*
X0105339Y0120542D02*
X0098760Y0120542D01*
X0099180Y0118943D02*
X0104933Y0118943D01*
X0105050Y0117345D02*
X0099101Y0117345D01*
X0098438Y0115746D02*
X0105734Y0115746D01*
X0107360Y0114148D02*
X0096549Y0114148D01*
X0092012Y0114148D02*
X0052139Y0114148D01*
X0053680Y0115746D02*
X0090122Y0115746D01*
X0089460Y0117345D02*
X0053680Y0117345D01*
X0053680Y0117512D02*
X0049280Y0117512D01*
X0053680Y0117512D01*
X0053680Y0118943D02*
X0089380Y0118943D01*
X0089817Y0120542D02*
X0052473Y0120542D01*
X0049280Y0120542D02*
X0049280Y0120542D01*
X0049280Y0118943D02*
X0049280Y0118943D01*
X0049280Y0117512D02*
X0049280Y0117512D01*
X0046088Y0120542D02*
X0007400Y0120542D01*
X0007400Y0122140D02*
X0090979Y0122140D01*
X0096017Y0123739D02*
X0007400Y0123739D01*
X0007400Y0125337D02*
X0097616Y0125337D01*
X0099214Y0126936D02*
X0007400Y0126936D01*
X0007400Y0128534D02*
X0100813Y0128534D01*
X0110028Y0122140D02*
X0110028Y0122140D01*
X0110028Y0120542D02*
X0110028Y0120542D01*
X0110028Y0118943D02*
X0110028Y0118943D01*
X0110028Y0117345D02*
X0110028Y0117345D01*
X0110028Y0115746D02*
X0110028Y0115746D01*
X0110028Y0114148D02*
X0110028Y0114148D01*
X0115007Y0117345D02*
X0219437Y0117345D01*
X0217839Y0118943D02*
X0115124Y0118943D01*
X0114718Y0120542D02*
X0216240Y0120542D01*
X0214642Y0122140D02*
X0113612Y0122140D01*
X0125358Y0101360D02*
X0125958Y0101360D01*
X0125958Y0099761D02*
X0125358Y0099761D01*
X0125358Y0098163D02*
X0125958Y0098163D01*
X0125958Y0096564D02*
X0125358Y0096564D01*
X0125358Y0094966D02*
X0125958Y0094966D01*
X0125958Y0093367D02*
X0125358Y0093367D01*
X0125358Y0091769D02*
X0125958Y0091769D01*
X0124326Y0083776D02*
X0095440Y0083776D01*
X0095440Y0082178D02*
X0122727Y0082178D01*
X0121129Y0080579D02*
X0095148Y0080579D01*
X0094191Y0078981D02*
X0119530Y0078981D01*
X0117932Y0077382D02*
X0091570Y0077382D01*
X0089510Y0077382D02*
X0082034Y0077382D01*
X0080840Y0077382D02*
X0080240Y0077382D01*
X0079046Y0077382D02*
X0071570Y0077382D01*
X0071515Y0077359D02*
X0073316Y0078105D01*
X0074694Y0079483D01*
X0075440Y0081284D01*
X0075440Y0089834D01*
X0074694Y0091635D01*
X0073316Y0093013D01*
X0071515Y0093759D01*
X0069565Y0093759D01*
X0067765Y0093013D01*
X0066386Y0091635D01*
X0065640Y0089834D01*
X0065640Y0081284D01*
X0066386Y0079483D01*
X0067765Y0078105D01*
X0069565Y0077359D01*
X0071515Y0077359D01*
X0069510Y0077382D02*
X0014900Y0077382D01*
X0014900Y0075783D02*
X0116333Y0075783D01*
X0114735Y0074185D02*
X0014900Y0074185D01*
X0014900Y0072586D02*
X0113136Y0072586D01*
X0111538Y0070988D02*
X0014900Y0070988D01*
X0014900Y0069389D02*
X0109939Y0069389D01*
X0108341Y0067791D02*
X0014900Y0067791D01*
X0014900Y0066192D02*
X0106742Y0066192D01*
X0086889Y0078981D02*
X0084462Y0078981D01*
X0085357Y0080579D02*
X0085932Y0080579D01*
X0085640Y0082178D02*
X0085640Y0082178D01*
X0085640Y0083776D02*
X0085640Y0083776D01*
X0080840Y0083776D02*
X0080240Y0083776D01*
X0080240Y0082178D02*
X0080840Y0082178D01*
X0080840Y0080579D02*
X0080240Y0080579D01*
X0080240Y0078981D02*
X0080840Y0078981D01*
X0076618Y0078981D02*
X0074191Y0078981D01*
X0075148Y0080579D02*
X0075724Y0080579D01*
X0075440Y0082178D02*
X0075440Y0082178D01*
X0075440Y0083776D02*
X0075440Y0083776D01*
X0075440Y0085375D02*
X0080240Y0085375D01*
X0080240Y0085859D02*
X0075440Y0085859D01*
X0075440Y0089260D01*
X0075566Y0090053D01*
X0075814Y0090817D01*
X0076178Y0091532D01*
X0076650Y0092181D01*
X0077218Y0092749D01*
X0077867Y0093221D01*
X0078582Y0093585D01*
X0079346Y0093833D01*
X0080139Y0093959D01*
X0080240Y0093959D01*
X0080240Y0085859D01*
X0080840Y0085375D02*
X0085640Y0085375D01*
X0085640Y0086973D02*
X0085640Y0086973D01*
X0085640Y0088572D02*
X0085640Y0088572D01*
X0080840Y0088572D02*
X0080240Y0088572D01*
X0080240Y0090170D02*
X0080840Y0090170D01*
X0080840Y0091769D02*
X0080240Y0091769D01*
X0080240Y0093367D02*
X0080840Y0093367D01*
X0080588Y0094966D02*
X0040912Y0094966D01*
X0042510Y0096564D02*
X0078990Y0096564D01*
X0077391Y0098163D02*
X0044109Y0098163D01*
X0035709Y0101360D02*
X0007400Y0101360D01*
X0007400Y0102958D02*
X0037308Y0102958D01*
X0038906Y0104557D02*
X0007400Y0104557D01*
X0007400Y0106155D02*
X0011936Y0106155D01*
X0011831Y0106337D02*
X0012068Y0105926D01*
X0012403Y0105591D01*
X0012814Y0105354D01*
X0013272Y0105231D01*
X0017029Y0105231D01*
X0017029Y0110552D01*
X0011709Y0110552D01*
X0011709Y0106795D01*
X0011831Y0106337D01*
X0011709Y0107754D02*
X0007400Y0107754D01*
X0007400Y0109352D02*
X0011709Y0109352D01*
X0011709Y0111511D02*
X0017029Y0111511D01*
X0017029Y0110552D01*
X0017988Y0110552D01*
X0017988Y0105231D01*
X0021746Y0105231D01*
X0022203Y0105354D01*
X0022614Y0105591D01*
X0022949Y0105926D01*
X0023186Y0106337D01*
X0023309Y0106795D01*
X0023309Y0110552D01*
X0017988Y0110552D01*
X0017988Y0111511D01*
X0017029Y0111511D01*
X0017029Y0116831D01*
X0013272Y0116831D01*
X0012814Y0116709D01*
X0012403Y0116472D01*
X0012068Y0116137D01*
X0011831Y0115726D01*
X0011709Y0115268D01*
X0011709Y0111511D01*
X0011709Y0112549D02*
X0007400Y0112549D01*
X0007400Y0110951D02*
X0017029Y0110951D01*
X0017988Y0110951D02*
X0045301Y0110951D01*
X0046378Y0112549D02*
X0023309Y0112549D01*
X0023309Y0111511D02*
X0017988Y0111511D01*
X0017988Y0116831D01*
X0021746Y0116831D01*
X0022203Y0116709D01*
X0022614Y0116472D01*
X0022949Y0116137D01*
X0023186Y0115726D01*
X0023309Y0115268D01*
X0023309Y0111511D01*
X0023309Y0109352D02*
X0043702Y0109352D01*
X0042103Y0107754D02*
X0023309Y0107754D01*
X0023081Y0106155D02*
X0040505Y0106155D01*
X0022124Y0099761D02*
X0007400Y0099761D01*
X0007400Y0098163D02*
X0019912Y0098163D01*
X0015472Y0096564D02*
X0007400Y0096564D01*
X0007400Y0094966D02*
X0013208Y0094966D01*
X0012284Y0093367D02*
X0007400Y0093367D01*
X0007400Y0091769D02*
X0011909Y0091769D01*
X0011920Y0090170D02*
X0007400Y0090170D01*
X0007400Y0088572D02*
X0010321Y0088572D01*
X0008723Y0086973D02*
X0007400Y0086973D01*
X0017122Y0083776D02*
X0065640Y0083776D01*
X0065640Y0082178D02*
X0015524Y0082178D01*
X0014900Y0080579D02*
X0065932Y0080579D01*
X0066889Y0078981D02*
X0014900Y0078981D01*
X0018721Y0085375D02*
X0065640Y0085375D01*
X0065640Y0086973D02*
X0021055Y0086973D01*
X0022421Y0088572D02*
X0065640Y0088572D01*
X0065779Y0090170D02*
X0023516Y0090170D01*
X0036856Y0091769D02*
X0066520Y0091769D01*
X0068619Y0093367D02*
X0039313Y0093367D01*
X0017988Y0106155D02*
X0017029Y0106155D01*
X0017029Y0107754D02*
X0017988Y0107754D01*
X0017988Y0109352D02*
X0017029Y0109352D01*
X0017029Y0112549D02*
X0017988Y0112549D01*
X0017988Y0114148D02*
X0017029Y0114148D01*
X0017029Y0115746D02*
X0017988Y0115746D01*
X0023174Y0115746D02*
X0044880Y0115746D01*
X0044880Y0117345D02*
X0007400Y0117345D01*
X0007400Y0118943D02*
X0044880Y0118943D01*
X0046422Y0114148D02*
X0023309Y0114148D01*
X0011843Y0115746D02*
X0007400Y0115746D01*
X0007400Y0114148D02*
X0011709Y0114148D01*
X0007400Y0130133D02*
X0311959Y0130133D01*
X0311959Y0131731D02*
X0007400Y0131731D01*
X0007400Y0133330D02*
X0311959Y0133330D01*
X0312037Y0134928D02*
X0007400Y0134928D01*
X0007400Y0136527D02*
X0312530Y0136527D01*
X0313023Y0138125D02*
X0007400Y0138125D01*
X0007400Y0139724D02*
X0313614Y0139724D01*
X0313435Y0139462D02*
X0313435Y0139462D01*
X0314703Y0141322D02*
X0007400Y0141322D01*
X0072461Y0093367D02*
X0078154Y0093367D01*
X0076350Y0091769D02*
X0074560Y0091769D01*
X0075301Y0090170D02*
X0075604Y0090170D01*
X0075440Y0088572D02*
X0075440Y0088572D01*
X0075440Y0086973D02*
X0075440Y0086973D01*
X0080240Y0086973D02*
X0080840Y0086973D01*
X0132725Y0080579D02*
X0168754Y0080579D01*
X0167155Y0082178D02*
X0134324Y0082178D01*
X0135922Y0083776D02*
X0165706Y0083776D01*
X0173429Y0080579D02*
X0184502Y0080579D01*
X0182903Y0082178D02*
X0175027Y0082178D01*
X0175291Y0083776D02*
X0181906Y0083776D01*
X0180308Y0085375D02*
X0175291Y0085375D01*
X0175891Y0086973D02*
X0178709Y0086973D01*
X0173148Y0090170D02*
X0165252Y0090170D01*
X0166850Y0088572D02*
X0171550Y0088572D01*
X0209282Y0085375D02*
X0251408Y0085375D01*
X0249809Y0086973D02*
X0211491Y0086973D01*
X0212459Y0088572D02*
X0248211Y0088572D01*
X0246612Y0090170D02*
X0212805Y0090170D01*
X0212683Y0091769D02*
X0245014Y0091769D01*
X0243415Y0093367D02*
X0212021Y0093367D01*
X0211624Y0083776D02*
X0253006Y0083776D01*
X0254605Y0082178D02*
X0212514Y0082178D01*
X0212805Y0080579D02*
X0256203Y0080579D01*
X0257802Y0078981D02*
X0212628Y0078981D01*
X0211900Y0077382D02*
X0259400Y0077382D01*
X0260999Y0075783D02*
X0209949Y0075783D01*
X0211215Y0074185D02*
X0262597Y0074185D01*
X0264196Y0072586D02*
X0212344Y0072586D01*
X0212805Y0070988D02*
X0265794Y0070988D01*
X0267393Y0069389D02*
X0212798Y0069389D01*
X0212135Y0067791D02*
X0268991Y0067791D01*
X0270590Y0066192D02*
X0210710Y0066192D01*
X0210806Y0064594D02*
X0272188Y0064594D01*
X0273787Y0062995D02*
X0212175Y0062995D01*
X0212805Y0061397D02*
X0275385Y0061397D01*
X0276984Y0059798D02*
X0212805Y0059798D01*
X0212305Y0058200D02*
X0278582Y0058200D01*
X0280181Y0056601D02*
X0211119Y0056601D01*
X0210180Y0055003D02*
X0281779Y0055003D01*
X0283378Y0053404D02*
X0211995Y0053404D01*
X0179571Y0034222D02*
X0178554Y0034222D01*
X0178765Y0032624D02*
X0179365Y0032624D01*
X0179365Y0031025D02*
X0178765Y0031025D01*
X0178765Y0029427D02*
X0179365Y0029427D01*
X0179365Y0027828D02*
X0178765Y0027828D01*
X0178733Y0026230D02*
X0179365Y0026230D01*
X0179889Y0024631D02*
X0178242Y0024631D01*
X0176931Y0023033D02*
X0181238Y0023033D01*
X0167244Y0051806D02*
X0014900Y0051806D01*
X0014900Y0053404D02*
X0166691Y0053404D01*
X0166691Y0055003D02*
X0024105Y0055003D01*
X0024290Y0056601D02*
X0167289Y0056601D01*
X0085114Y0011798D02*
X0085114Y0011798D01*
X0015115Y0035821D02*
X0007400Y0035821D01*
X0007400Y0037419D02*
X0013766Y0037419D01*
X0013104Y0039018D02*
X0007400Y0039018D01*
X0007400Y0040616D02*
X0013090Y0040616D01*
X0011839Y0042215D02*
X0007400Y0042215D01*
X0007400Y0043813D02*
X0010240Y0043813D01*
X0008642Y0045412D02*
X0007400Y0045412D01*
X0214187Y0128534D02*
X0312309Y0128534D01*
X0312802Y0126936D02*
X0215786Y0126936D01*
X0217384Y0125337D02*
X0313296Y0125337D01*
X0313435Y0124884D02*
X0313435Y0124884D01*
X0314216Y0123739D02*
X0218983Y0123739D01*
X0220581Y0122140D02*
X0315306Y0122140D01*
X0316513Y0120542D02*
X0222180Y0120542D01*
X0223779Y0118943D02*
X0318517Y0118943D01*
X0320172Y0117624D02*
X0320172Y0117624D01*
X0320883Y0117345D02*
X0225377Y0117345D01*
X0300673Y0106155D02*
X0311100Y0106155D01*
X0311100Y0104557D02*
X0300843Y0104557D01*
X0302190Y0102958D02*
X0311100Y0102958D01*
X0311100Y0101360D02*
X0302805Y0101360D01*
X0302805Y0099761D02*
X0311100Y0099761D01*
X0311100Y0098163D02*
X0302289Y0098163D01*
X0301082Y0096564D02*
X0311100Y0096564D01*
X0311100Y0094966D02*
X0300269Y0094966D01*
X0302021Y0093367D02*
X0311100Y0093367D01*
X0311100Y0091769D02*
X0302683Y0091769D01*
X0302805Y0090170D02*
X0311100Y0090170D01*
X0311100Y0088572D02*
X0302459Y0088572D01*
X0301491Y0086973D02*
X0311100Y0086973D01*
X0311100Y0085375D02*
X0299282Y0085375D01*
X0301624Y0083776D02*
X0310416Y0083776D01*
X0308817Y0082178D02*
X0302514Y0082178D01*
X0302805Y0080579D02*
X0308624Y0080579D01*
X0308624Y0078981D02*
X0302628Y0078981D01*
X0301900Y0077382D02*
X0309746Y0077382D01*
X0317024Y0080579D02*
X0323535Y0080579D01*
X0322600Y0082178D02*
X0316830Y0082178D01*
X0315300Y0083776D02*
X0322245Y0083776D01*
X0327545Y0083776D02*
X0327945Y0083776D01*
X0327945Y0082178D02*
X0327545Y0082178D01*
X0327545Y0080579D02*
X0327945Y0080579D01*
X0322372Y0085375D02*
X0315300Y0085375D01*
X0315300Y0086973D02*
X0323015Y0086973D01*
X0324485Y0088572D02*
X0315300Y0088572D01*
X0315300Y0090170D02*
X0324221Y0090170D01*
X0322991Y0091769D02*
X0315300Y0091769D01*
X0315300Y0093367D02*
X0322445Y0093367D01*
X0322445Y0094966D02*
X0315300Y0094966D01*
X0315300Y0096564D02*
X0323012Y0096564D01*
X0324270Y0098163D02*
X0315300Y0098163D01*
X0315300Y0099761D02*
X0324630Y0099761D01*
X0323161Y0101360D02*
X0315300Y0101360D01*
X0315300Y0102958D02*
X0322498Y0102958D01*
X0322225Y0104557D02*
X0315300Y0104557D01*
X0315300Y0106155D02*
X0320627Y0106155D01*
X0319028Y0107754D02*
X0315300Y0107754D01*
X0311100Y0107754D02*
X0302120Y0107754D01*
X0301252Y0114148D02*
X0338720Y0114148D01*
X0338720Y0115746D02*
X0331256Y0115746D01*
X0334709Y0116535D02*
X0334709Y0116535D01*
X0336113Y0117345D02*
X0338720Y0117345D01*
X0301270Y0045412D02*
X0299192Y0045412D01*
X0287971Y0035821D02*
X0287639Y0035821D01*
D11*
X0312824Y0050244D03*
X0312824Y0080244D03*
X0186839Y0084181D03*
X0171091Y0084181D03*
X0179438Y0103291D03*
X0186839Y0054181D03*
X0171091Y0054181D03*
X0049280Y0117512D03*
D12*
X0049280Y0109512D03*
X0179438Y0111291D03*
D13*
X0327745Y0104142D03*
X0327745Y0094142D03*
X0327745Y0084142D03*
D14*
X0018690Y0059850D03*
X0017509Y0111031D03*
D15*
X0017509Y0091346D03*
X0018690Y0040165D03*
D16*
X0094280Y0118512D03*
X0110028Y0118512D03*
D17*
X0200405Y0110441D02*
X0207605Y0110441D01*
X0207605Y0100441D02*
X0200405Y0100441D01*
X0200405Y0090441D02*
X0207605Y0090441D01*
X0207605Y0080441D02*
X0200405Y0080441D01*
X0200405Y0070441D02*
X0207605Y0070441D01*
X0207605Y0060441D02*
X0200405Y0060441D01*
X0200405Y0050441D02*
X0207605Y0050441D01*
X0207605Y0040441D02*
X0200405Y0040441D01*
X0290405Y0040441D02*
X0297605Y0040441D01*
X0297605Y0050441D02*
X0290405Y0050441D01*
X0290405Y0060441D02*
X0297605Y0060441D01*
X0297605Y0070441D02*
X0290405Y0070441D01*
X0290405Y0080441D02*
X0297605Y0080441D01*
X0297605Y0090441D02*
X0290405Y0090441D01*
X0290405Y0100441D02*
X0297605Y0100441D01*
X0297605Y0110441D02*
X0290405Y0110441D01*
D18*
X0145658Y0097481D02*
X0145658Y0090881D01*
X0135658Y0090881D02*
X0135658Y0097481D01*
X0125658Y0097481D02*
X0125658Y0090881D01*
X0090540Y0088859D02*
X0090540Y0082259D01*
X0080540Y0082259D02*
X0080540Y0088859D01*
X0070540Y0088859D02*
X0070540Y0082259D01*
D19*
X0074040Y0026559D02*
X0074042Y0026720D01*
X0074048Y0026880D01*
X0074058Y0027041D01*
X0074072Y0027201D01*
X0074090Y0027361D01*
X0074111Y0027520D01*
X0074137Y0027679D01*
X0074167Y0027837D01*
X0074200Y0027994D01*
X0074238Y0028151D01*
X0074279Y0028306D01*
X0074324Y0028460D01*
X0074373Y0028613D01*
X0074426Y0028765D01*
X0074482Y0028916D01*
X0074543Y0029065D01*
X0074606Y0029213D01*
X0074674Y0029359D01*
X0074745Y0029503D01*
X0074819Y0029645D01*
X0074897Y0029786D01*
X0074979Y0029924D01*
X0075064Y0030061D01*
X0075152Y0030195D01*
X0075244Y0030327D01*
X0075339Y0030457D01*
X0075437Y0030585D01*
X0075538Y0030710D01*
X0075642Y0030832D01*
X0075749Y0030952D01*
X0075859Y0031069D01*
X0075972Y0031184D01*
X0076088Y0031295D01*
X0076207Y0031404D01*
X0076328Y0031509D01*
X0076452Y0031612D01*
X0076578Y0031712D01*
X0076706Y0031808D01*
X0076837Y0031901D01*
X0076971Y0031991D01*
X0077106Y0032078D01*
X0077244Y0032161D01*
X0077383Y0032241D01*
X0077525Y0032317D01*
X0077668Y0032390D01*
X0077813Y0032459D01*
X0077960Y0032525D01*
X0078108Y0032587D01*
X0078258Y0032645D01*
X0078409Y0032700D01*
X0078562Y0032751D01*
X0078716Y0032798D01*
X0078871Y0032841D01*
X0079027Y0032880D01*
X0079183Y0032916D01*
X0079341Y0032947D01*
X0079499Y0032975D01*
X0079658Y0032999D01*
X0079818Y0033019D01*
X0079978Y0033035D01*
X0080138Y0033047D01*
X0080299Y0033055D01*
X0080460Y0033059D01*
X0080620Y0033059D01*
X0080781Y0033055D01*
X0080942Y0033047D01*
X0081102Y0033035D01*
X0081262Y0033019D01*
X0081422Y0032999D01*
X0081581Y0032975D01*
X0081739Y0032947D01*
X0081897Y0032916D01*
X0082053Y0032880D01*
X0082209Y0032841D01*
X0082364Y0032798D01*
X0082518Y0032751D01*
X0082671Y0032700D01*
X0082822Y0032645D01*
X0082972Y0032587D01*
X0083120Y0032525D01*
X0083267Y0032459D01*
X0083412Y0032390D01*
X0083555Y0032317D01*
X0083697Y0032241D01*
X0083836Y0032161D01*
X0083974Y0032078D01*
X0084109Y0031991D01*
X0084243Y0031901D01*
X0084374Y0031808D01*
X0084502Y0031712D01*
X0084628Y0031612D01*
X0084752Y0031509D01*
X0084873Y0031404D01*
X0084992Y0031295D01*
X0085108Y0031184D01*
X0085221Y0031069D01*
X0085331Y0030952D01*
X0085438Y0030832D01*
X0085542Y0030710D01*
X0085643Y0030585D01*
X0085741Y0030457D01*
X0085836Y0030327D01*
X0085928Y0030195D01*
X0086016Y0030061D01*
X0086101Y0029924D01*
X0086183Y0029786D01*
X0086261Y0029645D01*
X0086335Y0029503D01*
X0086406Y0029359D01*
X0086474Y0029213D01*
X0086537Y0029065D01*
X0086598Y0028916D01*
X0086654Y0028765D01*
X0086707Y0028613D01*
X0086756Y0028460D01*
X0086801Y0028306D01*
X0086842Y0028151D01*
X0086880Y0027994D01*
X0086913Y0027837D01*
X0086943Y0027679D01*
X0086969Y0027520D01*
X0086990Y0027361D01*
X0087008Y0027201D01*
X0087022Y0027041D01*
X0087032Y0026880D01*
X0087038Y0026720D01*
X0087040Y0026559D01*
X0087038Y0026398D01*
X0087032Y0026238D01*
X0087022Y0026077D01*
X0087008Y0025917D01*
X0086990Y0025757D01*
X0086969Y0025598D01*
X0086943Y0025439D01*
X0086913Y0025281D01*
X0086880Y0025124D01*
X0086842Y0024967D01*
X0086801Y0024812D01*
X0086756Y0024658D01*
X0086707Y0024505D01*
X0086654Y0024353D01*
X0086598Y0024202D01*
X0086537Y0024053D01*
X0086474Y0023905D01*
X0086406Y0023759D01*
X0086335Y0023615D01*
X0086261Y0023473D01*
X0086183Y0023332D01*
X0086101Y0023194D01*
X0086016Y0023057D01*
X0085928Y0022923D01*
X0085836Y0022791D01*
X0085741Y0022661D01*
X0085643Y0022533D01*
X0085542Y0022408D01*
X0085438Y0022286D01*
X0085331Y0022166D01*
X0085221Y0022049D01*
X0085108Y0021934D01*
X0084992Y0021823D01*
X0084873Y0021714D01*
X0084752Y0021609D01*
X0084628Y0021506D01*
X0084502Y0021406D01*
X0084374Y0021310D01*
X0084243Y0021217D01*
X0084109Y0021127D01*
X0083974Y0021040D01*
X0083836Y0020957D01*
X0083697Y0020877D01*
X0083555Y0020801D01*
X0083412Y0020728D01*
X0083267Y0020659D01*
X0083120Y0020593D01*
X0082972Y0020531D01*
X0082822Y0020473D01*
X0082671Y0020418D01*
X0082518Y0020367D01*
X0082364Y0020320D01*
X0082209Y0020277D01*
X0082053Y0020238D01*
X0081897Y0020202D01*
X0081739Y0020171D01*
X0081581Y0020143D01*
X0081422Y0020119D01*
X0081262Y0020099D01*
X0081102Y0020083D01*
X0080942Y0020071D01*
X0080781Y0020063D01*
X0080620Y0020059D01*
X0080460Y0020059D01*
X0080299Y0020063D01*
X0080138Y0020071D01*
X0079978Y0020083D01*
X0079818Y0020099D01*
X0079658Y0020119D01*
X0079499Y0020143D01*
X0079341Y0020171D01*
X0079183Y0020202D01*
X0079027Y0020238D01*
X0078871Y0020277D01*
X0078716Y0020320D01*
X0078562Y0020367D01*
X0078409Y0020418D01*
X0078258Y0020473D01*
X0078108Y0020531D01*
X0077960Y0020593D01*
X0077813Y0020659D01*
X0077668Y0020728D01*
X0077525Y0020801D01*
X0077383Y0020877D01*
X0077244Y0020957D01*
X0077106Y0021040D01*
X0076971Y0021127D01*
X0076837Y0021217D01*
X0076706Y0021310D01*
X0076578Y0021406D01*
X0076452Y0021506D01*
X0076328Y0021609D01*
X0076207Y0021714D01*
X0076088Y0021823D01*
X0075972Y0021934D01*
X0075859Y0022049D01*
X0075749Y0022166D01*
X0075642Y0022286D01*
X0075538Y0022408D01*
X0075437Y0022533D01*
X0075339Y0022661D01*
X0075244Y0022791D01*
X0075152Y0022923D01*
X0075064Y0023057D01*
X0074979Y0023194D01*
X0074897Y0023332D01*
X0074819Y0023473D01*
X0074745Y0023615D01*
X0074674Y0023759D01*
X0074606Y0023905D01*
X0074543Y0024053D01*
X0074482Y0024202D01*
X0074426Y0024353D01*
X0074373Y0024505D01*
X0074324Y0024658D01*
X0074279Y0024812D01*
X0074238Y0024967D01*
X0074200Y0025124D01*
X0074167Y0025281D01*
X0074137Y0025439D01*
X0074111Y0025598D01*
X0074090Y0025757D01*
X0074072Y0025917D01*
X0074058Y0026077D01*
X0074048Y0026238D01*
X0074042Y0026398D01*
X0074040Y0026559D01*
X0075028Y0025874D02*
X0075030Y0026022D01*
X0075036Y0026170D01*
X0075046Y0026318D01*
X0075060Y0026465D01*
X0075078Y0026612D01*
X0075099Y0026758D01*
X0075125Y0026904D01*
X0075155Y0027049D01*
X0075188Y0027193D01*
X0075226Y0027336D01*
X0075267Y0027478D01*
X0075312Y0027619D01*
X0075360Y0027759D01*
X0075413Y0027898D01*
X0075469Y0028035D01*
X0075529Y0028170D01*
X0075592Y0028304D01*
X0075659Y0028436D01*
X0075730Y0028566D01*
X0075804Y0028694D01*
X0075881Y0028820D01*
X0075962Y0028944D01*
X0076046Y0029066D01*
X0076133Y0029185D01*
X0076224Y0029302D01*
X0076318Y0029417D01*
X0076414Y0029529D01*
X0076514Y0029639D01*
X0076616Y0029745D01*
X0076722Y0029849D01*
X0076830Y0029950D01*
X0076941Y0030048D01*
X0077054Y0030144D01*
X0077170Y0030236D01*
X0077288Y0030325D01*
X0077409Y0030410D01*
X0077532Y0030493D01*
X0077657Y0030572D01*
X0077784Y0030648D01*
X0077913Y0030720D01*
X0078044Y0030789D01*
X0078177Y0030854D01*
X0078312Y0030915D01*
X0078448Y0030973D01*
X0078585Y0031028D01*
X0078724Y0031078D01*
X0078865Y0031125D01*
X0079006Y0031168D01*
X0079149Y0031208D01*
X0079293Y0031243D01*
X0079437Y0031275D01*
X0079583Y0031302D01*
X0079729Y0031326D01*
X0079876Y0031346D01*
X0080023Y0031362D01*
X0080170Y0031374D01*
X0080318Y0031382D01*
X0080466Y0031386D01*
X0080614Y0031386D01*
X0080762Y0031382D01*
X0080910Y0031374D01*
X0081057Y0031362D01*
X0081204Y0031346D01*
X0081351Y0031326D01*
X0081497Y0031302D01*
X0081643Y0031275D01*
X0081787Y0031243D01*
X0081931Y0031208D01*
X0082074Y0031168D01*
X0082215Y0031125D01*
X0082356Y0031078D01*
X0082495Y0031028D01*
X0082632Y0030973D01*
X0082768Y0030915D01*
X0082903Y0030854D01*
X0083036Y0030789D01*
X0083167Y0030720D01*
X0083296Y0030648D01*
X0083423Y0030572D01*
X0083548Y0030493D01*
X0083671Y0030410D01*
X0083792Y0030325D01*
X0083910Y0030236D01*
X0084026Y0030144D01*
X0084139Y0030048D01*
X0084250Y0029950D01*
X0084358Y0029849D01*
X0084464Y0029745D01*
X0084566Y0029639D01*
X0084666Y0029529D01*
X0084762Y0029417D01*
X0084856Y0029302D01*
X0084947Y0029185D01*
X0085034Y0029066D01*
X0085118Y0028944D01*
X0085199Y0028820D01*
X0085276Y0028694D01*
X0085350Y0028566D01*
X0085421Y0028436D01*
X0085488Y0028304D01*
X0085551Y0028170D01*
X0085611Y0028035D01*
X0085667Y0027898D01*
X0085720Y0027759D01*
X0085768Y0027619D01*
X0085813Y0027478D01*
X0085854Y0027336D01*
X0085892Y0027193D01*
X0085925Y0027049D01*
X0085955Y0026904D01*
X0085981Y0026758D01*
X0086002Y0026612D01*
X0086020Y0026465D01*
X0086034Y0026318D01*
X0086044Y0026170D01*
X0086050Y0026022D01*
X0086052Y0025874D01*
X0086050Y0025726D01*
X0086044Y0025578D01*
X0086034Y0025430D01*
X0086020Y0025283D01*
X0086002Y0025136D01*
X0085981Y0024990D01*
X0085955Y0024844D01*
X0085925Y0024699D01*
X0085892Y0024555D01*
X0085854Y0024412D01*
X0085813Y0024270D01*
X0085768Y0024129D01*
X0085720Y0023989D01*
X0085667Y0023850D01*
X0085611Y0023713D01*
X0085551Y0023578D01*
X0085488Y0023444D01*
X0085421Y0023312D01*
X0085350Y0023182D01*
X0085276Y0023054D01*
X0085199Y0022928D01*
X0085118Y0022804D01*
X0085034Y0022682D01*
X0084947Y0022563D01*
X0084856Y0022446D01*
X0084762Y0022331D01*
X0084666Y0022219D01*
X0084566Y0022109D01*
X0084464Y0022003D01*
X0084358Y0021899D01*
X0084250Y0021798D01*
X0084139Y0021700D01*
X0084026Y0021604D01*
X0083910Y0021512D01*
X0083792Y0021423D01*
X0083671Y0021338D01*
X0083548Y0021255D01*
X0083423Y0021176D01*
X0083296Y0021100D01*
X0083167Y0021028D01*
X0083036Y0020959D01*
X0082903Y0020894D01*
X0082768Y0020833D01*
X0082632Y0020775D01*
X0082495Y0020720D01*
X0082356Y0020670D01*
X0082215Y0020623D01*
X0082074Y0020580D01*
X0081931Y0020540D01*
X0081787Y0020505D01*
X0081643Y0020473D01*
X0081497Y0020446D01*
X0081351Y0020422D01*
X0081204Y0020402D01*
X0081057Y0020386D01*
X0080910Y0020374D01*
X0080762Y0020366D01*
X0080614Y0020362D01*
X0080466Y0020362D01*
X0080318Y0020366D01*
X0080170Y0020374D01*
X0080023Y0020386D01*
X0079876Y0020402D01*
X0079729Y0020422D01*
X0079583Y0020446D01*
X0079437Y0020473D01*
X0079293Y0020505D01*
X0079149Y0020540D01*
X0079006Y0020580D01*
X0078865Y0020623D01*
X0078724Y0020670D01*
X0078585Y0020720D01*
X0078448Y0020775D01*
X0078312Y0020833D01*
X0078177Y0020894D01*
X0078044Y0020959D01*
X0077913Y0021028D01*
X0077784Y0021100D01*
X0077657Y0021176D01*
X0077532Y0021255D01*
X0077409Y0021338D01*
X0077288Y0021423D01*
X0077170Y0021512D01*
X0077054Y0021604D01*
X0076941Y0021700D01*
X0076830Y0021798D01*
X0076722Y0021899D01*
X0076616Y0022003D01*
X0076514Y0022109D01*
X0076414Y0022219D01*
X0076318Y0022331D01*
X0076224Y0022446D01*
X0076133Y0022563D01*
X0076046Y0022682D01*
X0075962Y0022804D01*
X0075881Y0022928D01*
X0075804Y0023054D01*
X0075730Y0023182D01*
X0075659Y0023312D01*
X0075592Y0023444D01*
X0075529Y0023578D01*
X0075469Y0023713D01*
X0075413Y0023850D01*
X0075360Y0023989D01*
X0075312Y0024129D01*
X0075267Y0024270D01*
X0075226Y0024412D01*
X0075188Y0024555D01*
X0075155Y0024699D01*
X0075125Y0024844D01*
X0075099Y0024990D01*
X0075078Y0025136D01*
X0075060Y0025283D01*
X0075046Y0025430D01*
X0075036Y0025578D01*
X0075030Y0025726D01*
X0075028Y0025874D01*
X0130146Y0025874D02*
X0130148Y0026022D01*
X0130154Y0026170D01*
X0130164Y0026318D01*
X0130178Y0026465D01*
X0130196Y0026612D01*
X0130217Y0026758D01*
X0130243Y0026904D01*
X0130273Y0027049D01*
X0130306Y0027193D01*
X0130344Y0027336D01*
X0130385Y0027478D01*
X0130430Y0027619D01*
X0130478Y0027759D01*
X0130531Y0027898D01*
X0130587Y0028035D01*
X0130647Y0028170D01*
X0130710Y0028304D01*
X0130777Y0028436D01*
X0130848Y0028566D01*
X0130922Y0028694D01*
X0130999Y0028820D01*
X0131080Y0028944D01*
X0131164Y0029066D01*
X0131251Y0029185D01*
X0131342Y0029302D01*
X0131436Y0029417D01*
X0131532Y0029529D01*
X0131632Y0029639D01*
X0131734Y0029745D01*
X0131840Y0029849D01*
X0131948Y0029950D01*
X0132059Y0030048D01*
X0132172Y0030144D01*
X0132288Y0030236D01*
X0132406Y0030325D01*
X0132527Y0030410D01*
X0132650Y0030493D01*
X0132775Y0030572D01*
X0132902Y0030648D01*
X0133031Y0030720D01*
X0133162Y0030789D01*
X0133295Y0030854D01*
X0133430Y0030915D01*
X0133566Y0030973D01*
X0133703Y0031028D01*
X0133842Y0031078D01*
X0133983Y0031125D01*
X0134124Y0031168D01*
X0134267Y0031208D01*
X0134411Y0031243D01*
X0134555Y0031275D01*
X0134701Y0031302D01*
X0134847Y0031326D01*
X0134994Y0031346D01*
X0135141Y0031362D01*
X0135288Y0031374D01*
X0135436Y0031382D01*
X0135584Y0031386D01*
X0135732Y0031386D01*
X0135880Y0031382D01*
X0136028Y0031374D01*
X0136175Y0031362D01*
X0136322Y0031346D01*
X0136469Y0031326D01*
X0136615Y0031302D01*
X0136761Y0031275D01*
X0136905Y0031243D01*
X0137049Y0031208D01*
X0137192Y0031168D01*
X0137333Y0031125D01*
X0137474Y0031078D01*
X0137613Y0031028D01*
X0137750Y0030973D01*
X0137886Y0030915D01*
X0138021Y0030854D01*
X0138154Y0030789D01*
X0138285Y0030720D01*
X0138414Y0030648D01*
X0138541Y0030572D01*
X0138666Y0030493D01*
X0138789Y0030410D01*
X0138910Y0030325D01*
X0139028Y0030236D01*
X0139144Y0030144D01*
X0139257Y0030048D01*
X0139368Y0029950D01*
X0139476Y0029849D01*
X0139582Y0029745D01*
X0139684Y0029639D01*
X0139784Y0029529D01*
X0139880Y0029417D01*
X0139974Y0029302D01*
X0140065Y0029185D01*
X0140152Y0029066D01*
X0140236Y0028944D01*
X0140317Y0028820D01*
X0140394Y0028694D01*
X0140468Y0028566D01*
X0140539Y0028436D01*
X0140606Y0028304D01*
X0140669Y0028170D01*
X0140729Y0028035D01*
X0140785Y0027898D01*
X0140838Y0027759D01*
X0140886Y0027619D01*
X0140931Y0027478D01*
X0140972Y0027336D01*
X0141010Y0027193D01*
X0141043Y0027049D01*
X0141073Y0026904D01*
X0141099Y0026758D01*
X0141120Y0026612D01*
X0141138Y0026465D01*
X0141152Y0026318D01*
X0141162Y0026170D01*
X0141168Y0026022D01*
X0141170Y0025874D01*
X0141168Y0025726D01*
X0141162Y0025578D01*
X0141152Y0025430D01*
X0141138Y0025283D01*
X0141120Y0025136D01*
X0141099Y0024990D01*
X0141073Y0024844D01*
X0141043Y0024699D01*
X0141010Y0024555D01*
X0140972Y0024412D01*
X0140931Y0024270D01*
X0140886Y0024129D01*
X0140838Y0023989D01*
X0140785Y0023850D01*
X0140729Y0023713D01*
X0140669Y0023578D01*
X0140606Y0023444D01*
X0140539Y0023312D01*
X0140468Y0023182D01*
X0140394Y0023054D01*
X0140317Y0022928D01*
X0140236Y0022804D01*
X0140152Y0022682D01*
X0140065Y0022563D01*
X0139974Y0022446D01*
X0139880Y0022331D01*
X0139784Y0022219D01*
X0139684Y0022109D01*
X0139582Y0022003D01*
X0139476Y0021899D01*
X0139368Y0021798D01*
X0139257Y0021700D01*
X0139144Y0021604D01*
X0139028Y0021512D01*
X0138910Y0021423D01*
X0138789Y0021338D01*
X0138666Y0021255D01*
X0138541Y0021176D01*
X0138414Y0021100D01*
X0138285Y0021028D01*
X0138154Y0020959D01*
X0138021Y0020894D01*
X0137886Y0020833D01*
X0137750Y0020775D01*
X0137613Y0020720D01*
X0137474Y0020670D01*
X0137333Y0020623D01*
X0137192Y0020580D01*
X0137049Y0020540D01*
X0136905Y0020505D01*
X0136761Y0020473D01*
X0136615Y0020446D01*
X0136469Y0020422D01*
X0136322Y0020402D01*
X0136175Y0020386D01*
X0136028Y0020374D01*
X0135880Y0020366D01*
X0135732Y0020362D01*
X0135584Y0020362D01*
X0135436Y0020366D01*
X0135288Y0020374D01*
X0135141Y0020386D01*
X0134994Y0020402D01*
X0134847Y0020422D01*
X0134701Y0020446D01*
X0134555Y0020473D01*
X0134411Y0020505D01*
X0134267Y0020540D01*
X0134124Y0020580D01*
X0133983Y0020623D01*
X0133842Y0020670D01*
X0133703Y0020720D01*
X0133566Y0020775D01*
X0133430Y0020833D01*
X0133295Y0020894D01*
X0133162Y0020959D01*
X0133031Y0021028D01*
X0132902Y0021100D01*
X0132775Y0021176D01*
X0132650Y0021255D01*
X0132527Y0021338D01*
X0132406Y0021423D01*
X0132288Y0021512D01*
X0132172Y0021604D01*
X0132059Y0021700D01*
X0131948Y0021798D01*
X0131840Y0021899D01*
X0131734Y0022003D01*
X0131632Y0022109D01*
X0131532Y0022219D01*
X0131436Y0022331D01*
X0131342Y0022446D01*
X0131251Y0022563D01*
X0131164Y0022682D01*
X0131080Y0022804D01*
X0130999Y0022928D01*
X0130922Y0023054D01*
X0130848Y0023182D01*
X0130777Y0023312D01*
X0130710Y0023444D01*
X0130647Y0023578D01*
X0130587Y0023713D01*
X0130531Y0023850D01*
X0130478Y0023989D01*
X0130430Y0024129D01*
X0130385Y0024270D01*
X0130344Y0024412D01*
X0130306Y0024555D01*
X0130273Y0024699D01*
X0130243Y0024844D01*
X0130217Y0024990D01*
X0130196Y0025136D01*
X0130178Y0025283D01*
X0130164Y0025430D01*
X0130154Y0025578D01*
X0130148Y0025726D01*
X0130146Y0025874D01*
X0129158Y0025181D02*
X0129160Y0025342D01*
X0129166Y0025502D01*
X0129176Y0025663D01*
X0129190Y0025823D01*
X0129208Y0025983D01*
X0129229Y0026142D01*
X0129255Y0026301D01*
X0129285Y0026459D01*
X0129318Y0026616D01*
X0129356Y0026773D01*
X0129397Y0026928D01*
X0129442Y0027082D01*
X0129491Y0027235D01*
X0129544Y0027387D01*
X0129600Y0027538D01*
X0129661Y0027687D01*
X0129724Y0027835D01*
X0129792Y0027981D01*
X0129863Y0028125D01*
X0129937Y0028267D01*
X0130015Y0028408D01*
X0130097Y0028546D01*
X0130182Y0028683D01*
X0130270Y0028817D01*
X0130362Y0028949D01*
X0130457Y0029079D01*
X0130555Y0029207D01*
X0130656Y0029332D01*
X0130760Y0029454D01*
X0130867Y0029574D01*
X0130977Y0029691D01*
X0131090Y0029806D01*
X0131206Y0029917D01*
X0131325Y0030026D01*
X0131446Y0030131D01*
X0131570Y0030234D01*
X0131696Y0030334D01*
X0131824Y0030430D01*
X0131955Y0030523D01*
X0132089Y0030613D01*
X0132224Y0030700D01*
X0132362Y0030783D01*
X0132501Y0030863D01*
X0132643Y0030939D01*
X0132786Y0031012D01*
X0132931Y0031081D01*
X0133078Y0031147D01*
X0133226Y0031209D01*
X0133376Y0031267D01*
X0133527Y0031322D01*
X0133680Y0031373D01*
X0133834Y0031420D01*
X0133989Y0031463D01*
X0134145Y0031502D01*
X0134301Y0031538D01*
X0134459Y0031569D01*
X0134617Y0031597D01*
X0134776Y0031621D01*
X0134936Y0031641D01*
X0135096Y0031657D01*
X0135256Y0031669D01*
X0135417Y0031677D01*
X0135578Y0031681D01*
X0135738Y0031681D01*
X0135899Y0031677D01*
X0136060Y0031669D01*
X0136220Y0031657D01*
X0136380Y0031641D01*
X0136540Y0031621D01*
X0136699Y0031597D01*
X0136857Y0031569D01*
X0137015Y0031538D01*
X0137171Y0031502D01*
X0137327Y0031463D01*
X0137482Y0031420D01*
X0137636Y0031373D01*
X0137789Y0031322D01*
X0137940Y0031267D01*
X0138090Y0031209D01*
X0138238Y0031147D01*
X0138385Y0031081D01*
X0138530Y0031012D01*
X0138673Y0030939D01*
X0138815Y0030863D01*
X0138954Y0030783D01*
X0139092Y0030700D01*
X0139227Y0030613D01*
X0139361Y0030523D01*
X0139492Y0030430D01*
X0139620Y0030334D01*
X0139746Y0030234D01*
X0139870Y0030131D01*
X0139991Y0030026D01*
X0140110Y0029917D01*
X0140226Y0029806D01*
X0140339Y0029691D01*
X0140449Y0029574D01*
X0140556Y0029454D01*
X0140660Y0029332D01*
X0140761Y0029207D01*
X0140859Y0029079D01*
X0140954Y0028949D01*
X0141046Y0028817D01*
X0141134Y0028683D01*
X0141219Y0028546D01*
X0141301Y0028408D01*
X0141379Y0028267D01*
X0141453Y0028125D01*
X0141524Y0027981D01*
X0141592Y0027835D01*
X0141655Y0027687D01*
X0141716Y0027538D01*
X0141772Y0027387D01*
X0141825Y0027235D01*
X0141874Y0027082D01*
X0141919Y0026928D01*
X0141960Y0026773D01*
X0141998Y0026616D01*
X0142031Y0026459D01*
X0142061Y0026301D01*
X0142087Y0026142D01*
X0142108Y0025983D01*
X0142126Y0025823D01*
X0142140Y0025663D01*
X0142150Y0025502D01*
X0142156Y0025342D01*
X0142158Y0025181D01*
X0142156Y0025020D01*
X0142150Y0024860D01*
X0142140Y0024699D01*
X0142126Y0024539D01*
X0142108Y0024379D01*
X0142087Y0024220D01*
X0142061Y0024061D01*
X0142031Y0023903D01*
X0141998Y0023746D01*
X0141960Y0023589D01*
X0141919Y0023434D01*
X0141874Y0023280D01*
X0141825Y0023127D01*
X0141772Y0022975D01*
X0141716Y0022824D01*
X0141655Y0022675D01*
X0141592Y0022527D01*
X0141524Y0022381D01*
X0141453Y0022237D01*
X0141379Y0022095D01*
X0141301Y0021954D01*
X0141219Y0021816D01*
X0141134Y0021679D01*
X0141046Y0021545D01*
X0140954Y0021413D01*
X0140859Y0021283D01*
X0140761Y0021155D01*
X0140660Y0021030D01*
X0140556Y0020908D01*
X0140449Y0020788D01*
X0140339Y0020671D01*
X0140226Y0020556D01*
X0140110Y0020445D01*
X0139991Y0020336D01*
X0139870Y0020231D01*
X0139746Y0020128D01*
X0139620Y0020028D01*
X0139492Y0019932D01*
X0139361Y0019839D01*
X0139227Y0019749D01*
X0139092Y0019662D01*
X0138954Y0019579D01*
X0138815Y0019499D01*
X0138673Y0019423D01*
X0138530Y0019350D01*
X0138385Y0019281D01*
X0138238Y0019215D01*
X0138090Y0019153D01*
X0137940Y0019095D01*
X0137789Y0019040D01*
X0137636Y0018989D01*
X0137482Y0018942D01*
X0137327Y0018899D01*
X0137171Y0018860D01*
X0137015Y0018824D01*
X0136857Y0018793D01*
X0136699Y0018765D01*
X0136540Y0018741D01*
X0136380Y0018721D01*
X0136220Y0018705D01*
X0136060Y0018693D01*
X0135899Y0018685D01*
X0135738Y0018681D01*
X0135578Y0018681D01*
X0135417Y0018685D01*
X0135256Y0018693D01*
X0135096Y0018705D01*
X0134936Y0018721D01*
X0134776Y0018741D01*
X0134617Y0018765D01*
X0134459Y0018793D01*
X0134301Y0018824D01*
X0134145Y0018860D01*
X0133989Y0018899D01*
X0133834Y0018942D01*
X0133680Y0018989D01*
X0133527Y0019040D01*
X0133376Y0019095D01*
X0133226Y0019153D01*
X0133078Y0019215D01*
X0132931Y0019281D01*
X0132786Y0019350D01*
X0132643Y0019423D01*
X0132501Y0019499D01*
X0132362Y0019579D01*
X0132224Y0019662D01*
X0132089Y0019749D01*
X0131955Y0019839D01*
X0131824Y0019932D01*
X0131696Y0020028D01*
X0131570Y0020128D01*
X0131446Y0020231D01*
X0131325Y0020336D01*
X0131206Y0020445D01*
X0131090Y0020556D01*
X0130977Y0020671D01*
X0130867Y0020788D01*
X0130760Y0020908D01*
X0130656Y0021030D01*
X0130555Y0021155D01*
X0130457Y0021283D01*
X0130362Y0021413D01*
X0130270Y0021545D01*
X0130182Y0021679D01*
X0130097Y0021816D01*
X0130015Y0021954D01*
X0129937Y0022095D01*
X0129863Y0022237D01*
X0129792Y0022381D01*
X0129724Y0022527D01*
X0129661Y0022675D01*
X0129600Y0022824D01*
X0129544Y0022975D01*
X0129491Y0023127D01*
X0129442Y0023280D01*
X0129397Y0023434D01*
X0129356Y0023589D01*
X0129318Y0023746D01*
X0129285Y0023903D01*
X0129255Y0024061D01*
X0129229Y0024220D01*
X0129208Y0024379D01*
X0129190Y0024539D01*
X0129176Y0024699D01*
X0129166Y0024860D01*
X0129160Y0025020D01*
X0129158Y0025181D01*
X0322666Y0018000D02*
X0322668Y0018153D01*
X0322674Y0018307D01*
X0322684Y0018460D01*
X0322698Y0018612D01*
X0322716Y0018765D01*
X0322738Y0018916D01*
X0322763Y0019067D01*
X0322793Y0019218D01*
X0322827Y0019368D01*
X0322864Y0019516D01*
X0322905Y0019664D01*
X0322950Y0019810D01*
X0322999Y0019956D01*
X0323052Y0020100D01*
X0323108Y0020242D01*
X0323168Y0020383D01*
X0323232Y0020523D01*
X0323299Y0020661D01*
X0323370Y0020797D01*
X0323445Y0020931D01*
X0323522Y0021063D01*
X0323604Y0021193D01*
X0323688Y0021321D01*
X0323776Y0021447D01*
X0323867Y0021570D01*
X0323961Y0021691D01*
X0324059Y0021809D01*
X0324159Y0021925D01*
X0324263Y0022038D01*
X0324369Y0022149D01*
X0324478Y0022257D01*
X0324590Y0022362D01*
X0324704Y0022463D01*
X0324822Y0022562D01*
X0324941Y0022658D01*
X0325063Y0022751D01*
X0325188Y0022840D01*
X0325315Y0022927D01*
X0325444Y0023009D01*
X0325575Y0023089D01*
X0325708Y0023165D01*
X0325843Y0023238D01*
X0325980Y0023307D01*
X0326119Y0023372D01*
X0326259Y0023434D01*
X0326401Y0023492D01*
X0326544Y0023547D01*
X0326689Y0023598D01*
X0326835Y0023645D01*
X0326982Y0023688D01*
X0327130Y0023727D01*
X0327279Y0023763D01*
X0327429Y0023794D01*
X0327580Y0023822D01*
X0327731Y0023846D01*
X0327884Y0023866D01*
X0328036Y0023882D01*
X0328189Y0023894D01*
X0328342Y0023902D01*
X0328495Y0023906D01*
X0328649Y0023906D01*
X0328802Y0023902D01*
X0328955Y0023894D01*
X0329108Y0023882D01*
X0329260Y0023866D01*
X0329413Y0023846D01*
X0329564Y0023822D01*
X0329715Y0023794D01*
X0329865Y0023763D01*
X0330014Y0023727D01*
X0330162Y0023688D01*
X0330309Y0023645D01*
X0330455Y0023598D01*
X0330600Y0023547D01*
X0330743Y0023492D01*
X0330885Y0023434D01*
X0331025Y0023372D01*
X0331164Y0023307D01*
X0331301Y0023238D01*
X0331436Y0023165D01*
X0331569Y0023089D01*
X0331700Y0023009D01*
X0331829Y0022927D01*
X0331956Y0022840D01*
X0332081Y0022751D01*
X0332203Y0022658D01*
X0332322Y0022562D01*
X0332440Y0022463D01*
X0332554Y0022362D01*
X0332666Y0022257D01*
X0332775Y0022149D01*
X0332881Y0022038D01*
X0332985Y0021925D01*
X0333085Y0021809D01*
X0333183Y0021691D01*
X0333277Y0021570D01*
X0333368Y0021447D01*
X0333456Y0021321D01*
X0333540Y0021193D01*
X0333622Y0021063D01*
X0333699Y0020931D01*
X0333774Y0020797D01*
X0333845Y0020661D01*
X0333912Y0020523D01*
X0333976Y0020383D01*
X0334036Y0020242D01*
X0334092Y0020100D01*
X0334145Y0019956D01*
X0334194Y0019810D01*
X0334239Y0019664D01*
X0334280Y0019516D01*
X0334317Y0019368D01*
X0334351Y0019218D01*
X0334381Y0019067D01*
X0334406Y0018916D01*
X0334428Y0018765D01*
X0334446Y0018612D01*
X0334460Y0018460D01*
X0334470Y0018307D01*
X0334476Y0018153D01*
X0334478Y0018000D01*
X0334476Y0017847D01*
X0334470Y0017693D01*
X0334460Y0017540D01*
X0334446Y0017388D01*
X0334428Y0017235D01*
X0334406Y0017084D01*
X0334381Y0016933D01*
X0334351Y0016782D01*
X0334317Y0016632D01*
X0334280Y0016484D01*
X0334239Y0016336D01*
X0334194Y0016190D01*
X0334145Y0016044D01*
X0334092Y0015900D01*
X0334036Y0015758D01*
X0333976Y0015617D01*
X0333912Y0015477D01*
X0333845Y0015339D01*
X0333774Y0015203D01*
X0333699Y0015069D01*
X0333622Y0014937D01*
X0333540Y0014807D01*
X0333456Y0014679D01*
X0333368Y0014553D01*
X0333277Y0014430D01*
X0333183Y0014309D01*
X0333085Y0014191D01*
X0332985Y0014075D01*
X0332881Y0013962D01*
X0332775Y0013851D01*
X0332666Y0013743D01*
X0332554Y0013638D01*
X0332440Y0013537D01*
X0332322Y0013438D01*
X0332203Y0013342D01*
X0332081Y0013249D01*
X0331956Y0013160D01*
X0331829Y0013073D01*
X0331700Y0012991D01*
X0331569Y0012911D01*
X0331436Y0012835D01*
X0331301Y0012762D01*
X0331164Y0012693D01*
X0331025Y0012628D01*
X0330885Y0012566D01*
X0330743Y0012508D01*
X0330600Y0012453D01*
X0330455Y0012402D01*
X0330309Y0012355D01*
X0330162Y0012312D01*
X0330014Y0012273D01*
X0329865Y0012237D01*
X0329715Y0012206D01*
X0329564Y0012178D01*
X0329413Y0012154D01*
X0329260Y0012134D01*
X0329108Y0012118D01*
X0328955Y0012106D01*
X0328802Y0012098D01*
X0328649Y0012094D01*
X0328495Y0012094D01*
X0328342Y0012098D01*
X0328189Y0012106D01*
X0328036Y0012118D01*
X0327884Y0012134D01*
X0327731Y0012154D01*
X0327580Y0012178D01*
X0327429Y0012206D01*
X0327279Y0012237D01*
X0327130Y0012273D01*
X0326982Y0012312D01*
X0326835Y0012355D01*
X0326689Y0012402D01*
X0326544Y0012453D01*
X0326401Y0012508D01*
X0326259Y0012566D01*
X0326119Y0012628D01*
X0325980Y0012693D01*
X0325843Y0012762D01*
X0325708Y0012835D01*
X0325575Y0012911D01*
X0325444Y0012991D01*
X0325315Y0013073D01*
X0325188Y0013160D01*
X0325063Y0013249D01*
X0324941Y0013342D01*
X0324822Y0013438D01*
X0324704Y0013537D01*
X0324590Y0013638D01*
X0324478Y0013743D01*
X0324369Y0013851D01*
X0324263Y0013962D01*
X0324159Y0014075D01*
X0324059Y0014191D01*
X0323961Y0014309D01*
X0323867Y0014430D01*
X0323776Y0014553D01*
X0323688Y0014679D01*
X0323604Y0014807D01*
X0323522Y0014937D01*
X0323445Y0015069D01*
X0323370Y0015203D01*
X0323299Y0015339D01*
X0323232Y0015477D01*
X0323168Y0015617D01*
X0323108Y0015758D01*
X0323052Y0015900D01*
X0322999Y0016044D01*
X0322950Y0016190D01*
X0322905Y0016336D01*
X0322864Y0016484D01*
X0322827Y0016632D01*
X0322793Y0016782D01*
X0322763Y0016933D01*
X0322738Y0017084D01*
X0322716Y0017235D01*
X0322698Y0017388D01*
X0322684Y0017540D01*
X0322674Y0017693D01*
X0322668Y0017847D01*
X0322666Y0018000D01*
X0322666Y0132173D02*
X0322668Y0132326D01*
X0322674Y0132480D01*
X0322684Y0132633D01*
X0322698Y0132785D01*
X0322716Y0132938D01*
X0322738Y0133089D01*
X0322763Y0133240D01*
X0322793Y0133391D01*
X0322827Y0133541D01*
X0322864Y0133689D01*
X0322905Y0133837D01*
X0322950Y0133983D01*
X0322999Y0134129D01*
X0323052Y0134273D01*
X0323108Y0134415D01*
X0323168Y0134556D01*
X0323232Y0134696D01*
X0323299Y0134834D01*
X0323370Y0134970D01*
X0323445Y0135104D01*
X0323522Y0135236D01*
X0323604Y0135366D01*
X0323688Y0135494D01*
X0323776Y0135620D01*
X0323867Y0135743D01*
X0323961Y0135864D01*
X0324059Y0135982D01*
X0324159Y0136098D01*
X0324263Y0136211D01*
X0324369Y0136322D01*
X0324478Y0136430D01*
X0324590Y0136535D01*
X0324704Y0136636D01*
X0324822Y0136735D01*
X0324941Y0136831D01*
X0325063Y0136924D01*
X0325188Y0137013D01*
X0325315Y0137100D01*
X0325444Y0137182D01*
X0325575Y0137262D01*
X0325708Y0137338D01*
X0325843Y0137411D01*
X0325980Y0137480D01*
X0326119Y0137545D01*
X0326259Y0137607D01*
X0326401Y0137665D01*
X0326544Y0137720D01*
X0326689Y0137771D01*
X0326835Y0137818D01*
X0326982Y0137861D01*
X0327130Y0137900D01*
X0327279Y0137936D01*
X0327429Y0137967D01*
X0327580Y0137995D01*
X0327731Y0138019D01*
X0327884Y0138039D01*
X0328036Y0138055D01*
X0328189Y0138067D01*
X0328342Y0138075D01*
X0328495Y0138079D01*
X0328649Y0138079D01*
X0328802Y0138075D01*
X0328955Y0138067D01*
X0329108Y0138055D01*
X0329260Y0138039D01*
X0329413Y0138019D01*
X0329564Y0137995D01*
X0329715Y0137967D01*
X0329865Y0137936D01*
X0330014Y0137900D01*
X0330162Y0137861D01*
X0330309Y0137818D01*
X0330455Y0137771D01*
X0330600Y0137720D01*
X0330743Y0137665D01*
X0330885Y0137607D01*
X0331025Y0137545D01*
X0331164Y0137480D01*
X0331301Y0137411D01*
X0331436Y0137338D01*
X0331569Y0137262D01*
X0331700Y0137182D01*
X0331829Y0137100D01*
X0331956Y0137013D01*
X0332081Y0136924D01*
X0332203Y0136831D01*
X0332322Y0136735D01*
X0332440Y0136636D01*
X0332554Y0136535D01*
X0332666Y0136430D01*
X0332775Y0136322D01*
X0332881Y0136211D01*
X0332985Y0136098D01*
X0333085Y0135982D01*
X0333183Y0135864D01*
X0333277Y0135743D01*
X0333368Y0135620D01*
X0333456Y0135494D01*
X0333540Y0135366D01*
X0333622Y0135236D01*
X0333699Y0135104D01*
X0333774Y0134970D01*
X0333845Y0134834D01*
X0333912Y0134696D01*
X0333976Y0134556D01*
X0334036Y0134415D01*
X0334092Y0134273D01*
X0334145Y0134129D01*
X0334194Y0133983D01*
X0334239Y0133837D01*
X0334280Y0133689D01*
X0334317Y0133541D01*
X0334351Y0133391D01*
X0334381Y0133240D01*
X0334406Y0133089D01*
X0334428Y0132938D01*
X0334446Y0132785D01*
X0334460Y0132633D01*
X0334470Y0132480D01*
X0334476Y0132326D01*
X0334478Y0132173D01*
X0334476Y0132020D01*
X0334470Y0131866D01*
X0334460Y0131713D01*
X0334446Y0131561D01*
X0334428Y0131408D01*
X0334406Y0131257D01*
X0334381Y0131106D01*
X0334351Y0130955D01*
X0334317Y0130805D01*
X0334280Y0130657D01*
X0334239Y0130509D01*
X0334194Y0130363D01*
X0334145Y0130217D01*
X0334092Y0130073D01*
X0334036Y0129931D01*
X0333976Y0129790D01*
X0333912Y0129650D01*
X0333845Y0129512D01*
X0333774Y0129376D01*
X0333699Y0129242D01*
X0333622Y0129110D01*
X0333540Y0128980D01*
X0333456Y0128852D01*
X0333368Y0128726D01*
X0333277Y0128603D01*
X0333183Y0128482D01*
X0333085Y0128364D01*
X0332985Y0128248D01*
X0332881Y0128135D01*
X0332775Y0128024D01*
X0332666Y0127916D01*
X0332554Y0127811D01*
X0332440Y0127710D01*
X0332322Y0127611D01*
X0332203Y0127515D01*
X0332081Y0127422D01*
X0331956Y0127333D01*
X0331829Y0127246D01*
X0331700Y0127164D01*
X0331569Y0127084D01*
X0331436Y0127008D01*
X0331301Y0126935D01*
X0331164Y0126866D01*
X0331025Y0126801D01*
X0330885Y0126739D01*
X0330743Y0126681D01*
X0330600Y0126626D01*
X0330455Y0126575D01*
X0330309Y0126528D01*
X0330162Y0126485D01*
X0330014Y0126446D01*
X0329865Y0126410D01*
X0329715Y0126379D01*
X0329564Y0126351D01*
X0329413Y0126327D01*
X0329260Y0126307D01*
X0329108Y0126291D01*
X0328955Y0126279D01*
X0328802Y0126271D01*
X0328649Y0126267D01*
X0328495Y0126267D01*
X0328342Y0126271D01*
X0328189Y0126279D01*
X0328036Y0126291D01*
X0327884Y0126307D01*
X0327731Y0126327D01*
X0327580Y0126351D01*
X0327429Y0126379D01*
X0327279Y0126410D01*
X0327130Y0126446D01*
X0326982Y0126485D01*
X0326835Y0126528D01*
X0326689Y0126575D01*
X0326544Y0126626D01*
X0326401Y0126681D01*
X0326259Y0126739D01*
X0326119Y0126801D01*
X0325980Y0126866D01*
X0325843Y0126935D01*
X0325708Y0127008D01*
X0325575Y0127084D01*
X0325444Y0127164D01*
X0325315Y0127246D01*
X0325188Y0127333D01*
X0325063Y0127422D01*
X0324941Y0127515D01*
X0324822Y0127611D01*
X0324704Y0127710D01*
X0324590Y0127811D01*
X0324478Y0127916D01*
X0324369Y0128024D01*
X0324263Y0128135D01*
X0324159Y0128248D01*
X0324059Y0128364D01*
X0323961Y0128482D01*
X0323867Y0128603D01*
X0323776Y0128726D01*
X0323688Y0128852D01*
X0323604Y0128980D01*
X0323522Y0129110D01*
X0323445Y0129242D01*
X0323370Y0129376D01*
X0323299Y0129512D01*
X0323232Y0129650D01*
X0323168Y0129790D01*
X0323108Y0129931D01*
X0323052Y0130073D01*
X0322999Y0130217D01*
X0322950Y0130363D01*
X0322905Y0130509D01*
X0322864Y0130657D01*
X0322827Y0130805D01*
X0322793Y0130955D01*
X0322763Y0131106D01*
X0322738Y0131257D01*
X0322716Y0131408D01*
X0322698Y0131561D01*
X0322684Y0131713D01*
X0322674Y0131866D01*
X0322668Y0132020D01*
X0322666Y0132173D01*
D20*
X0183965Y0032811D02*
X0183965Y0026811D01*
X0173965Y0026811D02*
X0173965Y0032811D01*
D21*
X0183965Y0029811D02*
X0184500Y0030152D01*
X0279000Y0030152D01*
X0288900Y0040052D01*
X0293400Y0040052D01*
X0294005Y0040441D01*
X0302400Y0047252D02*
X0299700Y0049952D01*
X0294300Y0049952D01*
X0294005Y0050441D01*
X0293400Y0050852D01*
X0288900Y0050852D01*
X0213300Y0126452D01*
X0101700Y0126452D01*
X0094500Y0119252D01*
X0094280Y0118512D01*
X0049280Y0109512D02*
X0048600Y0109352D01*
X0048600Y0108452D01*
X0045000Y0104852D02*
X0046800Y0103052D01*
X0018000Y0090452D02*
X0017509Y0091346D01*
X0090000Y0085952D02*
X0090540Y0085559D01*
X0145658Y0094181D02*
X0145800Y0094052D01*
X0158400Y0094052D01*
X0168300Y0084152D01*
X0171000Y0084152D01*
X0171091Y0084181D01*
X0171900Y0085052D01*
X0171900Y0085952D01*
X0175500Y0089552D01*
X0179100Y0089552D01*
X0184500Y0084152D01*
X0186300Y0084152D01*
X0186839Y0084181D01*
X0196200Y0060752D02*
X0203400Y0060752D01*
X0204005Y0060441D01*
X0196200Y0060752D02*
X0189900Y0054452D01*
X0187200Y0054452D01*
X0186839Y0054181D01*
X0302400Y0047252D02*
X0304200Y0047252D01*
X0307800Y0050852D01*
X0312300Y0050852D01*
X0312824Y0050244D01*
X0312824Y0080244D02*
X0313200Y0080552D01*
X0313200Y0111152D01*
X0294300Y0111152D01*
X0294005Y0110441D01*
X0313200Y0111152D02*
X0318600Y0111152D01*
X0323100Y0106652D01*
X0324000Y0106652D01*
X0325800Y0104852D01*
X0327600Y0104852D01*
X0327745Y0104142D01*
X0204005Y0110441D02*
X0203400Y0111152D01*
X0197100Y0111152D01*
X0194400Y0113852D01*
X0185400Y0113852D01*
X0184500Y0114752D01*
X0182700Y0114752D01*
X0180000Y0112052D01*
X0179438Y0111291D01*
X0018000Y0041852D02*
X0018000Y0040952D01*
D22*
X0018690Y0040165D01*
X0018000Y0041852D02*
X0010800Y0049052D01*
X0010800Y0083252D01*
X0018000Y0090452D01*
X0023400Y0095852D01*
X0036000Y0095852D01*
X0045000Y0104852D01*
X0048600Y0108452D01*
X0046800Y0103052D02*
X0078300Y0103052D01*
X0090000Y0091352D01*
X0090000Y0085952D01*
X0108000Y0061652D02*
X0135000Y0088652D01*
X0135000Y0094052D01*
X0108000Y0061652D02*
X0020700Y0061652D01*
X0018900Y0059852D02*
X0018690Y0059850D01*
D23*
X0018900Y0059852D02*
X0020700Y0061652D01*
X0135000Y0094052D02*
X0135658Y0094181D01*
M02*
